%TF.GenerationSoftware,KiCad,Pcbnew,7.0.5*%
%TF.CreationDate,2024-05-30T09:30:07-05:00*%
%TF.ProjectId,wrist_ems_12_electrodes,77726973-745f-4656-9d73-5f31325f656c,rev?*%
%TF.SameCoordinates,Original*%
%TF.FileFunction,Profile,NP*%
%FSLAX46Y46*%
G04 Gerber Fmt 4.6, Leading zero omitted, Abs format (unit mm)*
G04 Created by KiCad (PCBNEW 7.0.5) date 2024-05-30 09:30:07*
%MOMM*%
%LPD*%
G01*
G04 APERTURE LIST*
%TA.AperFunction,Profile*%
%ADD10C,0.100000*%
%TD*%
G04 APERTURE END LIST*
D10*
X100330000Y-86200000D02*
X100960000Y-86880000D01*
X101600000Y-86200000D01*
X101600000Y-76200000D01*
X123190000Y-76200000D01*
X123190000Y-86185000D01*
X123825000Y-86820000D01*
X124460000Y-86185000D01*
X124460000Y-76200000D01*
X143510000Y-76200000D01*
X143510000Y-86190000D01*
X144145000Y-86825000D01*
X144780000Y-86185000D01*
X144780000Y-76200000D01*
X163830000Y-76200000D01*
X163830000Y-86190000D01*
X164465000Y-86815000D01*
X165100000Y-86190000D01*
X165100000Y-76200000D01*
X184150000Y-76200000D01*
X184150000Y-101600000D01*
X165100000Y-101600000D01*
X165100000Y-91600000D01*
X164465000Y-90965000D01*
X163830000Y-91600000D01*
X163830000Y-101600000D01*
X144780000Y-101600000D01*
X144785316Y-91599684D01*
X144145000Y-90960000D01*
X143510000Y-91610000D01*
X143510000Y-101600000D01*
X124460000Y-101600000D01*
X124460000Y-91610000D01*
X123825000Y-90965000D01*
X123190000Y-91605000D01*
X123190000Y-101600000D01*
X101600000Y-101600000D01*
X101600000Y-91600000D01*
X100990000Y-91020000D01*
X100330000Y-91600000D01*
X100330000Y-101600000D01*
X78740000Y-101600000D01*
X78740000Y-76200000D01*
X100330000Y-76200000D01*
X100330000Y-86200000D01*
M02*
