%TF.GenerationSoftware,KiCad,Pcbnew,7.0.5*%
%TF.CreationDate,2024-05-30T09:30:07-05:00*%
%TF.ProjectId,wrist_ems_12_electrodes,77726973-745f-4656-9d73-5f31325f656c,rev?*%
%TF.SameCoordinates,Original*%
%TF.FileFunction,Paste,Top*%
%TF.FilePolarity,Positive*%
%FSLAX46Y46*%
G04 Gerber Fmt 4.6, Leading zero omitted, Abs format (unit mm)*
G04 Created by KiCad (PCBNEW 7.0.5) date 2024-05-30 09:30:07*
%MOMM*%
%LPD*%
G01*
G04 APERTURE LIST*
G04 Aperture macros list*
%AMRoundRect*
0 Rectangle with rounded corners*
0 $1 Rounding radius*
0 $2 $3 $4 $5 $6 $7 $8 $9 X,Y pos of 4 corners*
0 Add a 4 corners polygon primitive as box body*
4,1,4,$2,$3,$4,$5,$6,$7,$8,$9,$2,$3,0*
0 Add four circle primitives for the rounded corners*
1,1,$1+$1,$2,$3*
1,1,$1+$1,$4,$5*
1,1,$1+$1,$6,$7*
1,1,$1+$1,$8,$9*
0 Add four rect primitives between the rounded corners*
20,1,$1+$1,$2,$3,$4,$5,0*
20,1,$1+$1,$4,$5,$6,$7,0*
20,1,$1+$1,$6,$7,$8,$9,0*
20,1,$1+$1,$8,$9,$2,$3,0*%
G04 Aperture macros list end*
%ADD10RoundRect,0.135000X0.135000X0.185000X-0.135000X0.185000X-0.135000X-0.185000X0.135000X-0.185000X0*%
%ADD11R,1.100000X0.550000*%
%ADD12R,1.000000X0.500000*%
%ADD13RoundRect,0.135000X-0.135000X-0.185000X0.135000X-0.185000X0.135000X0.185000X-0.135000X0.185000X0*%
%ADD14RoundRect,0.135000X-0.185000X0.135000X-0.185000X-0.135000X0.185000X-0.135000X0.185000X0.135000X0*%
%ADD15R,0.600000X1.000000*%
%ADD16R,0.340000X0.700000*%
%ADD17RoundRect,0.150000X-0.512500X-0.150000X0.512500X-0.150000X0.512500X0.150000X-0.512500X0.150000X0*%
%ADD18RoundRect,0.250000X-0.325000X-0.650000X0.325000X-0.650000X0.325000X0.650000X-0.325000X0.650000X0*%
%ADD19RoundRect,0.135000X0.185000X-0.135000X0.185000X0.135000X-0.185000X0.135000X-0.185000X-0.135000X0*%
%ADD20R,1.000000X0.400000*%
%ADD21R,1.300000X2.000000*%
%ADD22RoundRect,0.170000X0.170000X0.210000X-0.170000X0.210000X-0.170000X-0.210000X0.170000X-0.210000X0*%
%ADD23RoundRect,0.075000X0.650000X0.075000X-0.650000X0.075000X-0.650000X-0.075000X0.650000X-0.075000X0*%
%ADD24RoundRect,0.150000X0.512500X0.150000X-0.512500X0.150000X-0.512500X-0.150000X0.512500X-0.150000X0*%
%ADD25RoundRect,0.250000X0.325000X0.650000X-0.325000X0.650000X-0.325000X-0.650000X0.325000X-0.650000X0*%
%ADD26RoundRect,0.200000X0.200000X0.275000X-0.200000X0.275000X-0.200000X-0.275000X0.200000X-0.275000X0*%
%ADD27R,0.550000X1.000000*%
%ADD28R,0.850000X1.200000*%
%ADD29RoundRect,0.250000X0.650000X-0.325000X0.650000X0.325000X-0.650000X0.325000X-0.650000X-0.325000X0*%
%ADD30R,0.650000X1.526000*%
%ADD31RoundRect,0.140000X-0.140000X-0.170000X0.140000X-0.170000X0.140000X0.170000X-0.140000X0.170000X0*%
%ADD32RoundRect,0.140000X0.170000X-0.140000X0.170000X0.140000X-0.170000X0.140000X-0.170000X-0.140000X0*%
%ADD33R,0.450000X1.475000*%
%ADD34RoundRect,0.140000X0.140000X0.170000X-0.140000X0.170000X-0.140000X-0.170000X0.140000X-0.170000X0*%
%ADD35RoundRect,0.225000X0.250000X-0.225000X0.250000X0.225000X-0.250000X0.225000X-0.250000X-0.225000X0*%
%ADD36RoundRect,0.250000X0.850000X-0.375000X0.850000X0.375000X-0.850000X0.375000X-0.850000X-0.375000X0*%
%ADD37RoundRect,0.150000X0.587500X0.150000X-0.587500X0.150000X-0.587500X-0.150000X0.587500X-0.150000X0*%
%ADD38R,1.300000X0.600000*%
%ADD39RoundRect,0.225000X-0.250000X0.225000X-0.250000X-0.225000X0.250000X-0.225000X0.250000X0.225000X0*%
G04 APERTURE END LIST*
D10*
%TO.C,R42*%
X113616200Y-100101400D03*
X112596200Y-100101400D03*
%TD*%
D11*
%TO.C,Q6*%
X87812400Y-99781400D03*
X87812400Y-98831400D03*
X87812400Y-97881400D03*
X85212400Y-97881400D03*
X85212400Y-98831400D03*
X85212400Y-99781400D03*
%TD*%
D12*
%TO.C,D2*%
X82750000Y-95600000D03*
X80350000Y-95600000D03*
%TD*%
D13*
%TO.C,R46*%
X89329800Y-100025200D03*
X90349800Y-100025200D03*
%TD*%
D14*
%TO.C,R31*%
X89962500Y-91940000D03*
X89962500Y-92960000D03*
%TD*%
%TO.C,R21*%
X169758800Y-91635200D03*
X169758800Y-92655200D03*
%TD*%
D15*
%TO.C,Q5*%
X112034400Y-97586800D03*
X113944400Y-97586800D03*
X112989400Y-95186800D03*
%TD*%
D14*
%TO.C,R26*%
X178064600Y-91621900D03*
X178064600Y-92641900D03*
%TD*%
D10*
%TO.C,R39*%
X114048000Y-83261200D03*
X113028000Y-83261200D03*
%TD*%
D16*
%TO.C,U8*%
X94711300Y-99454400D03*
X95211300Y-99454400D03*
X95711300Y-99454400D03*
X95711300Y-97954400D03*
X95211300Y-97954400D03*
X94711300Y-97954400D03*
%TD*%
D17*
%TO.C,U1*%
X94590700Y-91683100D03*
X94590700Y-92633100D03*
X94590700Y-93583100D03*
X96865700Y-93583100D03*
X96865700Y-91683100D03*
%TD*%
D18*
%TO.C,C12*%
X89975000Y-77800000D03*
X92925000Y-77800000D03*
%TD*%
D19*
%TO.C,R2*%
X91871800Y-87682800D03*
X91871800Y-86662800D03*
%TD*%
D14*
%TO.C,R44*%
X106146600Y-93546200D03*
X106146600Y-94566200D03*
%TD*%
%TO.C,R23*%
X169936600Y-96029400D03*
X169936600Y-97049400D03*
%TD*%
D20*
%TO.C,J6*%
X150401000Y-80498600D03*
X150401000Y-81498600D03*
X150401000Y-82498600D03*
X150401000Y-83498600D03*
X150401000Y-84498600D03*
X150401000Y-85498600D03*
X150401000Y-86498600D03*
D21*
X147701000Y-77698600D03*
X147701000Y-89298600D03*
%TD*%
D22*
%TO.C,U6*%
X88393800Y-85090000D03*
X88393800Y-84150000D03*
X87553800Y-85090000D03*
X87553800Y-84150000D03*
D23*
X90123800Y-85620000D03*
X90123800Y-85120000D03*
X90123800Y-84620000D03*
X90123800Y-84120000D03*
X90123800Y-83620000D03*
X85823800Y-83620000D03*
X85823800Y-84120000D03*
X85823800Y-84620000D03*
X85823800Y-85120000D03*
X85823800Y-85620000D03*
%TD*%
D24*
%TO.C,U9*%
X88950000Y-96237500D03*
X88950000Y-95287500D03*
X88950000Y-94337500D03*
X86675000Y-94337500D03*
X86675000Y-96237500D03*
%TD*%
D13*
%TO.C,R41*%
X120610000Y-99500000D03*
X121630000Y-99500000D03*
%TD*%
D20*
%TO.C,J4*%
X117594400Y-86498600D03*
X117594400Y-85498600D03*
X117594400Y-84498600D03*
X117594400Y-83498600D03*
X117594400Y-82498600D03*
X117594400Y-81498600D03*
X117594400Y-80498600D03*
D21*
X120294400Y-89298600D03*
X120294400Y-77698600D03*
%TD*%
D20*
%TO.C,J13*%
X178554400Y-86524000D03*
X178554400Y-85524000D03*
X178554400Y-84524000D03*
X178554400Y-83524000D03*
X178554400Y-82524000D03*
X178554400Y-81524000D03*
X178554400Y-80524000D03*
D21*
X181254400Y-89324000D03*
X181254400Y-77724000D03*
%TD*%
D25*
%TO.C,C4*%
X83912500Y-90650000D03*
X80962500Y-90650000D03*
%TD*%
D13*
%TO.C,R29*%
X85681200Y-92881800D03*
X86701200Y-92881800D03*
%TD*%
D10*
%TO.C,R28*%
X92724100Y-83693000D03*
X91704100Y-83693000D03*
%TD*%
D14*
%TO.C,R17*%
X157795400Y-96004000D03*
X157795400Y-97024000D03*
%TD*%
D26*
%TO.C,R33*%
X86321400Y-81051400D03*
X84671400Y-81051400D03*
%TD*%
D27*
%TO.C,T1*%
X80111600Y-77724000D03*
X81881600Y-77724000D03*
X81881600Y-80724000D03*
X80111600Y-80724000D03*
%TD*%
D14*
%TO.C,R24*%
X179461600Y-96029400D03*
X179461600Y-97049400D03*
%TD*%
%TO.C,R7*%
X129286000Y-96010000D03*
X129286000Y-97030000D03*
%TD*%
%TO.C,R13*%
X149464200Y-91609800D03*
X149464200Y-92629800D03*
%TD*%
D28*
%TO.C,D1*%
X87725000Y-78000000D03*
X84675000Y-78000000D03*
%TD*%
D29*
%TO.C,C18*%
X92379800Y-95582000D03*
X92379800Y-92632000D03*
%TD*%
D20*
%TO.C,J11*%
X137914400Y-86498600D03*
X137914400Y-85498600D03*
X137914400Y-84498600D03*
X137914400Y-83498600D03*
X137914400Y-82498600D03*
X137914400Y-81498600D03*
X137914400Y-80498600D03*
D21*
X140614400Y-89298600D03*
X140614400Y-77698600D03*
%TD*%
D10*
%TO.C,R40*%
X114175000Y-98856800D03*
X113155000Y-98856800D03*
%TD*%
D19*
%TO.C,R51*%
X94576300Y-96674400D03*
X94576300Y-95654400D03*
%TD*%
D13*
%TO.C,R50*%
X95742700Y-96799400D03*
X96762700Y-96799400D03*
%TD*%
D18*
%TO.C,C3*%
X86069000Y-89966800D03*
X89019000Y-89966800D03*
%TD*%
D25*
%TO.C,C2*%
X83925000Y-88312500D03*
X80975000Y-88312500D03*
%TD*%
D14*
%TO.C,R20*%
X171232000Y-91621900D03*
X171232000Y-92641900D03*
%TD*%
D30*
%TO.C,IC25*%
X120600000Y-92490000D03*
X119330000Y-92490000D03*
X118060000Y-92490000D03*
X116790000Y-92490000D03*
X116790000Y-97914000D03*
X118060000Y-97914000D03*
X119330000Y-97914000D03*
X120600000Y-97914000D03*
%TD*%
D31*
%TO.C,C10*%
X82727200Y-83140000D03*
X83687200Y-83140000D03*
%TD*%
D32*
%TO.C,C13*%
X112090200Y-84198400D03*
X112090200Y-83238400D03*
%TD*%
D33*
%TO.C,U5*%
X172372300Y-96708800D03*
X173022300Y-96708800D03*
X173672300Y-96708800D03*
X174322300Y-96708800D03*
X174972300Y-96708800D03*
X175622300Y-96708800D03*
X176272300Y-96708800D03*
X176922300Y-96708800D03*
X176922300Y-90832800D03*
X176272300Y-90832800D03*
X175622300Y-90832800D03*
X174972300Y-90832800D03*
X174322300Y-90832800D03*
X173672300Y-90832800D03*
X173022300Y-90832800D03*
X172372300Y-90832800D03*
%TD*%
D14*
%TO.C,R4*%
X130581400Y-91602500D03*
X130581400Y-92622500D03*
%TD*%
D20*
%TO.C,J3*%
X107160000Y-80500000D03*
X107160000Y-81500000D03*
X107160000Y-82500000D03*
X107160000Y-83500000D03*
X107160000Y-84500000D03*
X107160000Y-85500000D03*
X107160000Y-86500000D03*
D21*
X104460000Y-77700000D03*
X104460000Y-89300000D03*
%TD*%
D15*
%TO.C,Q4*%
X110352800Y-97606000D03*
X108442800Y-97606000D03*
X109397800Y-100006000D03*
%TD*%
D14*
%TO.C,R8*%
X138811000Y-96010000D03*
X138811000Y-97030000D03*
%TD*%
D33*
%TO.C,U4*%
X152077700Y-96683400D03*
X152727700Y-96683400D03*
X153377700Y-96683400D03*
X154027700Y-96683400D03*
X154677700Y-96683400D03*
X155327700Y-96683400D03*
X155977700Y-96683400D03*
X156627700Y-96683400D03*
X156627700Y-90807400D03*
X155977700Y-90807400D03*
X155327700Y-90807400D03*
X154677700Y-90807400D03*
X154027700Y-90807400D03*
X153377700Y-90807400D03*
X152727700Y-90807400D03*
X152077700Y-90807400D03*
%TD*%
D10*
%TO.C,R30*%
X86701200Y-91916600D03*
X85681200Y-91916600D03*
%TD*%
D14*
%TO.C,R27*%
X179436200Y-91609800D03*
X179436200Y-92629800D03*
%TD*%
D34*
%TO.C,C6*%
X88867700Y-92881800D03*
X87907700Y-92881800D03*
%TD*%
D14*
%TO.C,R14*%
X150937400Y-96004000D03*
X150937400Y-97024000D03*
%TD*%
D13*
%TO.C,R32*%
X85519800Y-82296000D03*
X86539800Y-82296000D03*
%TD*%
D19*
%TO.C,R43*%
X107111800Y-94540800D03*
X107111800Y-93520800D03*
%TD*%
D35*
%TO.C,C14*%
X97167100Y-99631800D03*
X97167100Y-98081800D03*
%TD*%
D36*
%TO.C,L1*%
X80949800Y-99775000D03*
X80949800Y-97625000D03*
%TD*%
D20*
%TO.C,J7*%
X170695600Y-80492600D03*
X170695600Y-81492600D03*
X170695600Y-82492600D03*
X170695600Y-83492600D03*
X170695600Y-84492600D03*
X170695600Y-85492600D03*
X170695600Y-86492600D03*
D21*
X167995600Y-77692600D03*
X167995600Y-89292600D03*
%TD*%
D14*
%TO.C,R25*%
X178090000Y-96029400D03*
X178090000Y-97049400D03*
%TD*%
%TO.C,R12*%
X150937400Y-91596500D03*
X150937400Y-92616500D03*
%TD*%
D13*
%TO.C,R35*%
X91704100Y-81762600D03*
X92724100Y-81762600D03*
%TD*%
%TO.C,R34*%
X80512800Y-83140000D03*
X81532800Y-83140000D03*
%TD*%
D20*
%TO.C,J2*%
X94750000Y-86500000D03*
X94750000Y-85500000D03*
X94750000Y-84500000D03*
X94750000Y-83500000D03*
X94750000Y-82500000D03*
X94750000Y-81500000D03*
X94750000Y-80500000D03*
D21*
X97450000Y-89300000D03*
X97450000Y-77700000D03*
%TD*%
D37*
%TO.C,Q3*%
X114069100Y-93660000D03*
X114069100Y-91760000D03*
X112194100Y-92710000D03*
%TD*%
D34*
%TO.C,C1*%
X99413000Y-93624400D03*
X98453000Y-93624400D03*
%TD*%
D15*
%TO.C,Q2*%
X108417400Y-96069000D03*
X110327400Y-96069000D03*
X109372400Y-93669000D03*
%TD*%
D10*
%TO.C,R37*%
X113747500Y-86962500D03*
X112727500Y-86962500D03*
%TD*%
%TO.C,R36*%
X92724100Y-82727800D03*
X91704100Y-82727800D03*
%TD*%
D25*
%TO.C,C17*%
X83912500Y-92990000D03*
X80962500Y-92990000D03*
%TD*%
D20*
%TO.C,J12*%
X158259800Y-86498600D03*
X158259800Y-85498600D03*
X158259800Y-84498600D03*
X158259800Y-83498600D03*
X158259800Y-82498600D03*
X158259800Y-81498600D03*
X158259800Y-80498600D03*
D21*
X160959800Y-89298600D03*
X160959800Y-77698600D03*
%TD*%
D14*
%TO.C,R9*%
X137439400Y-96010000D03*
X137439400Y-97030000D03*
%TD*%
%TO.C,R16*%
X159167000Y-96004000D03*
X159167000Y-97024000D03*
%TD*%
%TO.C,R11*%
X138785600Y-91590400D03*
X138785600Y-92610400D03*
%TD*%
D20*
%TO.C,J5*%
X130043600Y-80500000D03*
X130043600Y-81500000D03*
X130043600Y-82500000D03*
X130043600Y-83500000D03*
X130043600Y-84500000D03*
X130043600Y-85500000D03*
X130043600Y-86500000D03*
D21*
X127343600Y-77700000D03*
X127343600Y-89300000D03*
%TD*%
D14*
%TO.C,R48*%
X84350000Y-95392500D03*
X84350000Y-96412500D03*
%TD*%
D18*
%TO.C,C8*%
X86078800Y-87655400D03*
X89028800Y-87655400D03*
%TD*%
D32*
%TO.C,C9*%
X87655400Y-82217200D03*
X87655400Y-81257200D03*
%TD*%
D14*
%TO.C,R6*%
X130581400Y-96010000D03*
X130581400Y-97030000D03*
%TD*%
D19*
%TO.C,R1*%
X92862400Y-87682800D03*
X92862400Y-86662800D03*
%TD*%
D14*
%TO.C,R18*%
X157770000Y-91596500D03*
X157770000Y-92616500D03*
%TD*%
D31*
%TO.C,C5*%
X91747400Y-84632800D03*
X92707400Y-84632800D03*
%TD*%
D14*
%TO.C,R19*%
X159141600Y-91584400D03*
X159141600Y-92604400D03*
%TD*%
D36*
%TO.C,L2*%
X92583000Y-99627000D03*
X92583000Y-97477000D03*
%TD*%
D13*
%TO.C,R49*%
X95742700Y-95783400D03*
X96762700Y-95783400D03*
%TD*%
D14*
%TO.C,R10*%
X137414000Y-91602500D03*
X137414000Y-92622500D03*
%TD*%
%TO.C,R15*%
X149642000Y-96004000D03*
X149642000Y-97024000D03*
%TD*%
%TO.C,R5*%
X129108200Y-91615800D03*
X129108200Y-92635800D03*
%TD*%
D24*
%TO.C,U7*%
X115488300Y-90104000D03*
X115488300Y-89154000D03*
X115488300Y-88204000D03*
X113213300Y-88204000D03*
X113213300Y-89154000D03*
X113213300Y-90104000D03*
%TD*%
D18*
%TO.C,C11*%
X89975000Y-80112500D03*
X92925000Y-80112500D03*
%TD*%
D34*
%TO.C,C7*%
X88867700Y-91916600D03*
X87907700Y-91916600D03*
%TD*%
D14*
%TO.C,R22*%
X171232000Y-96029400D03*
X171232000Y-97049400D03*
%TD*%
D33*
%TO.C,U3*%
X131721700Y-96689400D03*
X132371700Y-96689400D03*
X133021700Y-96689400D03*
X133671700Y-96689400D03*
X134321700Y-96689400D03*
X134971700Y-96689400D03*
X135621700Y-96689400D03*
X136271700Y-96689400D03*
X136271700Y-90813400D03*
X135621700Y-90813400D03*
X134971700Y-90813400D03*
X134321700Y-90813400D03*
X133671700Y-90813400D03*
X133021700Y-90813400D03*
X132371700Y-90813400D03*
X131721700Y-90813400D03*
%TD*%
D32*
%TO.C,C16*%
X85290000Y-95492500D03*
X85290000Y-94532500D03*
%TD*%
D38*
%TO.C,Q1*%
X82680000Y-86310000D03*
X82680000Y-84410000D03*
X80280000Y-85360000D03*
%TD*%
D19*
%TO.C,R45*%
X89179400Y-98808000D03*
X89179400Y-97788000D03*
%TD*%
D39*
%TO.C,C15*%
X83591400Y-98386600D03*
X83591400Y-99936600D03*
%TD*%
D19*
%TO.C,R38*%
X111787500Y-88910000D03*
X111787500Y-87890000D03*
%TD*%
D13*
%TO.C,R3*%
X98444000Y-91643200D03*
X99464000Y-91643200D03*
%TD*%
M02*
