M48
; DRILL file {KiCad 7.0.5} date Thu May 30 09:30:07 2024
; FORMAT={-:-/ absolute / inch / decimal}
; #@! TF.CreationDate,2024-05-30T09:30:07-05:00
; #@! TF.GenerationSoftware,Kicad,Pcbnew,7.0.5
; #@! TF.FileFunction,Plated,1,2,PTH
FMAT,2
INCH
; #@! TA.AperFunction,Plated,PTH,ViaDrill
T1C0.0118
; #@! TA.AperFunction,Plated,PTH,ComponentDrill
T2C0.0394
%
G90
G05
T1
X3.154Y-3.06
X3.1875Y-3.5689
X3.1875Y-3.661
X3.188Y-3.4769
X3.2237Y-3.06
X3.291Y-3.949
X3.3041Y-3.4769
X3.356Y-3.891
X3.36Y-3.399
X3.3733Y-3.6568
X3.3965Y-3.538
X3.4019Y-3.191
X3.441Y-3.294
X3.441Y-3.33
X3.441Y-3.37
X3.4432Y-3.656
X3.451Y-3.1957
X3.4639Y-3.637
X3.467Y-3.743
X3.4814Y-3.891
X3.4819Y-3.8253
X3.4835Y-3.3685
X3.484Y-3.294
X3.484Y-3.331
X3.5047Y-3.542
X3.506Y-3.452
X3.5192Y-3.2761
X3.5423Y-3.154
X3.547Y-3.743
X3.56Y-3.939
X3.5733Y-3.2751
X3.5743Y-3.2382
X3.587Y-3.558
X3.5992Y-3.3629
X3.6058Y-3.257
X3.617Y-3.408
X3.639Y-3.647
X3.6507Y-3.332
X3.651Y-3.295
X3.653Y-3.2574
X3.654Y-3.219
X3.655Y-3.055
X3.6558Y-3.135
X3.701Y-3.169
X3.72Y-3.406
X3.724Y-3.532
X3.724Y-3.6844
X3.7241Y-3.9155
X3.7303Y-3.3268
X3.7303Y-3.3661
X3.7447Y-3.2874
X3.759Y-3.169
X3.7695Y-3.7525
X3.7726Y-3.9322
X3.825Y-3.862
X3.833Y-3.811
X3.864Y-3.97
X3.9173Y-3.686
X3.9194Y-3.608
X4.041Y-3.244
X4.041Y-3.302
X4.089Y-3.772
X4.0896Y-3.2729
X4.0896Y-3.6729
X4.112Y-3.936
X4.1213Y-3.3413
X4.124Y-3.401
X4.138Y-3.244
X4.186Y-3.209
X4.19Y-3.169
X4.223Y-3.443
X4.241Y-3.515
X4.247Y-3.703
X4.248Y-3.169
X4.248Y-3.651
X4.253Y-3.249
X4.2877Y-3.6516
X4.317Y-3.4715
X4.3366Y-3.5994
X4.346Y-3.273
X4.347Y-3.225
X4.3606Y-3.651
X4.367Y-3.553
X4.384Y-3.315
X4.46Y-3.474
X4.46Y-3.51
X4.4889Y-3.941
X4.512Y-3.28
X4.527Y-3.221
X4.534Y-3.332
X4.547Y-3.4055
X4.5842Y-3.7131
X4.5848Y-3.332
X4.592Y-3.51
X4.595Y-3.17
X4.598Y-3.6413
X4.599Y-3.8406
X4.649Y-3.8406
X4.667Y-3.169
X4.669Y-3.272
X4.6736Y-3.5484
X4.679Y-3.386
X4.6825Y-3.7304
X4.6874Y-3.4413
X4.7589Y-3.2729
X4.7589Y-3.3729
X4.8Y-3.8913
X4.935Y-3.4679
X4.935Y-3.5229
X4.935Y-3.6629
X4.935Y-3.7179
X4.937Y-3.0348
X4.937Y-3.0898
X4.937Y-3.2348
X4.937Y-3.2848
X4.9587Y-3.1602
X4.9587Y-3.5933
X4.97Y-3.0348
X4.97Y-3.4679
X4.97Y-3.5229
X4.9702Y-3.09
X4.982Y-3.2348
X4.982Y-3.2848
X4.985Y-3.6629
X4.985Y-3.7179
X5.0494Y-3.6994
X5.074Y-3.404
X5.104Y-3.457
X5.104Y-3.571
X5.119Y-3.686
X5.15Y-3.405
X5.15Y-3.3661
X5.162Y-3.0348
X5.162Y-3.0898
X5.168Y-3.46
X5.168Y-3.496
X5.215Y-3.291
X5.217Y-3.0348
X5.217Y-3.0898
X5.257Y-3.0348
X5.257Y-3.0898
X5.263Y-3.308
X5.263Y-3.529
X5.264Y-3.461
X5.284Y-3.222
X5.296Y-3.641
X5.3Y-3.724
X5.307Y-3.383
X5.337Y-3.434
X5.341Y-3.309
X5.348Y-3.382
X5.366Y-3.779
X5.3795Y-3.3813
X5.4Y-3.169
X5.4027Y-3.4294
X5.458Y-3.171
X5.555Y-3.691
X5.556Y-3.183
X5.556Y-3.756
X5.556Y-3.824
X5.557Y-3.379
X5.557Y-3.615
X5.558Y-3.3368
X5.558Y-3.5728
X5.5886Y-3.0602
X5.5886Y-3.2571
X5.5886Y-3.4933
X5.62Y-3.14
X5.62Y-3.182
X5.62Y-3.757
X5.621Y-3.336
X5.621Y-3.378
X5.621Y-3.572
X5.621Y-3.614
X5.621Y-3.824
X5.7364Y-3.4677
X5.7364Y-3.5227
X5.7364Y-3.6627
X5.7364Y-3.7177
X5.7385Y-3.0346
X5.7385Y-3.0896
X5.7385Y-3.2346
X5.7385Y-3.2846
X5.7601Y-3.16
X5.7601Y-3.5931
X5.771Y-3.0346
X5.771Y-3.0896
X5.7714Y-3.4677
X5.7714Y-3.5227
X5.7835Y-3.2346
X5.7835Y-3.2846
X5.7864Y-3.6627
X5.7864Y-3.7177
X5.8508Y-3.6992
X5.8754Y-3.4038
X5.9054Y-3.4568
X5.9054Y-3.5708
X5.9204Y-3.6858
X5.9514Y-3.4048
X5.9514Y-3.3659
X5.9635Y-3.0346
X5.9635Y-3.0896
X5.9694Y-3.4598
X5.9694Y-3.4958
X6.0164Y-3.2908
X6.0185Y-3.0346
X6.0185Y-3.0896
X6.0585Y-3.0346
X6.0585Y-3.0896
X6.0644Y-3.3078
X6.0644Y-3.5288
X6.0654Y-3.4608
X6.0854Y-3.2218
X6.0974Y-3.6408
X6.1014Y-3.7238
X6.1084Y-3.3828
X6.1384Y-3.4338
X6.145Y-3.309
X6.1494Y-3.3818
X6.1674Y-3.7788
X6.1809Y-3.381
X6.2014Y-3.1688
X6.2031Y-3.434
X6.2594Y-3.1708
X6.3564Y-3.6908
X6.3574Y-3.1828
X6.3574Y-3.7558
X6.3574Y-3.8238
X6.3584Y-3.3788
X6.3584Y-3.6148
X6.3594Y-3.3365
X6.39Y-3.06
X6.39Y-3.2569
X6.39Y-3.4931
X6.4214Y-3.1398
X6.4214Y-3.1818
X6.4214Y-3.7568
X6.4224Y-3.3358
X6.4224Y-3.3778
X6.4224Y-3.5718
X6.4224Y-3.6138
X6.4224Y-3.8238
X6.5354Y-3.4687
X6.5354Y-3.5237
X6.5354Y-3.6637
X6.5354Y-3.7187
X6.5375Y-3.0356
X6.5375Y-3.0906
X6.5375Y-3.2356
X6.5375Y-3.2856
X6.5591Y-3.161
X6.5591Y-3.5941
X6.57Y-3.036
X6.57Y-3.091
X6.5704Y-3.4687
X6.5704Y-3.5237
X6.5825Y-3.2356
X6.5825Y-3.2856
X6.5854Y-3.6637
X6.5854Y-3.7187
X6.6498Y-3.7002
X6.6744Y-3.4048
X6.7044Y-3.4578
X6.7044Y-3.5718
X6.7194Y-3.6868
X6.7504Y-3.4058
X6.7504Y-3.3669
X6.7625Y-3.0356
X6.7625Y-3.0906
X6.7684Y-3.4608
X6.7684Y-3.4968
X6.8154Y-3.2918
X6.8175Y-3.0356
X6.8175Y-3.0906
X6.8575Y-3.0356
X6.8575Y-3.0906
X6.8634Y-3.3088
X6.8634Y-3.5298
X6.8644Y-3.4618
X6.8844Y-3.2228
X6.8964Y-3.6418
X6.9004Y-3.7248
X6.9074Y-3.3838
X6.9374Y-3.4348
X6.941Y-3.31
X6.9484Y-3.3828
X6.9664Y-3.7798
X6.9799Y-3.382
X7.0004Y-3.1698
X7.0026Y-3.4304
X7.0584Y-3.1718
X7.1554Y-3.6918
X7.1564Y-3.1838
X7.1564Y-3.7568
X7.1564Y-3.8248
X7.1574Y-3.3798
X7.1574Y-3.6158
X7.1584Y-3.3375
X7.189Y-3.061
X7.189Y-3.2579
X7.189Y-3.4941
X7.2204Y-3.1408
X7.2204Y-3.1828
X7.2204Y-3.7578
X7.2214Y-3.3368
X7.2214Y-3.3788
X7.2214Y-3.5728
X7.2214Y-3.6148
X7.2214Y-3.8248
T2
X5.125Y-3.93
X5.225Y-3.93
X5.325Y-3.93
X5.425Y-3.93
X5.921Y-3.93
X6.021Y-3.93
X6.121Y-3.93
X6.221Y-3.93
X6.72Y-3.931
X6.82Y-3.931
X6.92Y-3.931
X7.02Y-3.931
T0
M30
