%TF.GenerationSoftware,KiCad,Pcbnew,7.0.5*%
%TF.CreationDate,2024-05-30T09:30:06-05:00*%
%TF.ProjectId,wrist_ems_12_electrodes,77726973-745f-4656-9d73-5f31325f656c,rev?*%
%TF.SameCoordinates,Original*%
%TF.FileFunction,Legend,Top*%
%TF.FilePolarity,Positive*%
%FSLAX46Y46*%
G04 Gerber Fmt 4.6, Leading zero omitted, Abs format (unit mm)*
G04 Created by KiCad (PCBNEW 7.0.5) date 2024-05-30 09:30:06*
%MOMM*%
%LPD*%
G01*
G04 APERTURE LIST*
G04 Aperture macros list*
%AMRoundRect*
0 Rectangle with rounded corners*
0 $1 Rounding radius*
0 $2 $3 $4 $5 $6 $7 $8 $9 X,Y pos of 4 corners*
0 Add a 4 corners polygon primitive as box body*
4,1,4,$2,$3,$4,$5,$6,$7,$8,$9,$2,$3,0*
0 Add four circle primitives for the rounded corners*
1,1,$1+$1,$2,$3*
1,1,$1+$1,$4,$5*
1,1,$1+$1,$6,$7*
1,1,$1+$1,$8,$9*
0 Add four rect primitives between the rounded corners*
20,1,$1+$1,$2,$3,$4,$5,0*
20,1,$1+$1,$4,$5,$6,$7,0*
20,1,$1+$1,$6,$7,$8,$9,0*
20,1,$1+$1,$8,$9,$2,$3,0*%
G04 Aperture macros list end*
%ADD10C,0.150000*%
%ADD11C,0.254000*%
%ADD12C,0.153000*%
%ADD13C,0.120000*%
%ADD14C,0.200000*%
%ADD15C,0.100000*%
%ADD16RoundRect,0.135000X0.135000X0.185000X-0.135000X0.185000X-0.135000X-0.185000X0.135000X-0.185000X0*%
%ADD17R,1.100000X0.550000*%
%ADD18R,1.000000X0.500000*%
%ADD19RoundRect,0.135000X-0.135000X-0.185000X0.135000X-0.185000X0.135000X0.185000X-0.135000X0.185000X0*%
%ADD20RoundRect,0.135000X-0.185000X0.135000X-0.185000X-0.135000X0.185000X-0.135000X0.185000X0.135000X0*%
%ADD21R,0.600000X1.000000*%
%ADD22R,0.340000X0.700000*%
%ADD23RoundRect,0.150000X-0.512500X-0.150000X0.512500X-0.150000X0.512500X0.150000X-0.512500X0.150000X0*%
%ADD24RoundRect,0.250000X-0.325000X-0.650000X0.325000X-0.650000X0.325000X0.650000X-0.325000X0.650000X0*%
%ADD25RoundRect,0.135000X0.185000X-0.135000X0.185000X0.135000X-0.185000X0.135000X-0.185000X-0.135000X0*%
%ADD26R,1.000000X0.400000*%
%ADD27R,1.300000X2.000000*%
%ADD28RoundRect,0.075000X0.650000X0.075000X-0.650000X0.075000X-0.650000X-0.075000X0.650000X-0.075000X0*%
%ADD29R,1.680000X1.880000*%
%ADD30RoundRect,0.150000X0.512500X0.150000X-0.512500X0.150000X-0.512500X-0.150000X0.512500X-0.150000X0*%
%ADD31RoundRect,0.250000X0.325000X0.650000X-0.325000X0.650000X-0.325000X-0.650000X0.325000X-0.650000X0*%
%ADD32R,1.700000X1.700000*%
%ADD33O,1.700000X1.700000*%
%ADD34RoundRect,0.200000X0.200000X0.275000X-0.200000X0.275000X-0.200000X-0.275000X0.200000X-0.275000X0*%
%ADD35R,0.550000X1.000000*%
%ADD36R,0.850000X1.200000*%
%ADD37RoundRect,0.250000X0.650000X-0.325000X0.650000X0.325000X-0.650000X0.325000X-0.650000X-0.325000X0*%
%ADD38R,0.650000X1.526000*%
%ADD39RoundRect,0.140000X-0.140000X-0.170000X0.140000X-0.170000X0.140000X0.170000X-0.140000X0.170000X0*%
%ADD40RoundRect,0.140000X0.170000X-0.140000X0.170000X0.140000X-0.170000X0.140000X-0.170000X-0.140000X0*%
%ADD41R,0.450000X1.475000*%
%ADD42RoundRect,0.140000X0.140000X0.170000X-0.140000X0.170000X-0.140000X-0.170000X0.140000X-0.170000X0*%
%ADD43RoundRect,0.225000X0.250000X-0.225000X0.250000X0.225000X-0.250000X0.225000X-0.250000X-0.225000X0*%
%ADD44RoundRect,0.250000X0.850000X-0.375000X0.850000X0.375000X-0.850000X0.375000X-0.850000X-0.375000X0*%
%ADD45RoundRect,0.150000X0.587500X0.150000X-0.587500X0.150000X-0.587500X-0.150000X0.587500X-0.150000X0*%
%ADD46R,1.300000X0.600000*%
%ADD47RoundRect,0.225000X-0.250000X0.225000X-0.250000X-0.225000X0.250000X-0.225000X0.250000X0.225000X0*%
G04 APERTURE END LIST*
D10*
X128800388Y-100606219D02*
X128228960Y-100606219D01*
X128514674Y-100606219D02*
X128514674Y-99606219D01*
X128514674Y-99606219D02*
X128419436Y-99749076D01*
X128419436Y-99749076D02*
X128324198Y-99844314D01*
X128324198Y-99844314D02*
X128228960Y-99891933D01*
X169313388Y-100631619D02*
X168741960Y-100631619D01*
X169027674Y-100631619D02*
X169027674Y-99631619D01*
X169027674Y-99631619D02*
X168932436Y-99774476D01*
X168932436Y-99774476D02*
X168837198Y-99869714D01*
X168837198Y-99869714D02*
X168741960Y-99917333D01*
X149018788Y-100606219D02*
X148447360Y-100606219D01*
X148733074Y-100606219D02*
X148733074Y-99606219D01*
X148733074Y-99606219D02*
X148637836Y-99749076D01*
X148637836Y-99749076D02*
X148542598Y-99844314D01*
X148542598Y-99844314D02*
X148447360Y-99891933D01*
%TO.C,R42*%
X112463342Y-101726219D02*
X112130009Y-101250028D01*
X111891914Y-101726219D02*
X111891914Y-100726219D01*
X111891914Y-100726219D02*
X112272866Y-100726219D01*
X112272866Y-100726219D02*
X112368104Y-100773838D01*
X112368104Y-100773838D02*
X112415723Y-100821457D01*
X112415723Y-100821457D02*
X112463342Y-100916695D01*
X112463342Y-100916695D02*
X112463342Y-101059552D01*
X112463342Y-101059552D02*
X112415723Y-101154790D01*
X112415723Y-101154790D02*
X112368104Y-101202409D01*
X112368104Y-101202409D02*
X112272866Y-101250028D01*
X112272866Y-101250028D02*
X111891914Y-101250028D01*
X113320485Y-101059552D02*
X113320485Y-101726219D01*
X113082390Y-100678600D02*
X112844295Y-101392885D01*
X112844295Y-101392885D02*
X113463342Y-101392885D01*
X113796676Y-100821457D02*
X113844295Y-100773838D01*
X113844295Y-100773838D02*
X113939533Y-100726219D01*
X113939533Y-100726219D02*
X114177628Y-100726219D01*
X114177628Y-100726219D02*
X114272866Y-100773838D01*
X114272866Y-100773838D02*
X114320485Y-100821457D01*
X114320485Y-100821457D02*
X114368104Y-100916695D01*
X114368104Y-100916695D02*
X114368104Y-101011933D01*
X114368104Y-101011933D02*
X114320485Y-101154790D01*
X114320485Y-101154790D02*
X113749057Y-101726219D01*
X113749057Y-101726219D02*
X114368104Y-101726219D01*
D11*
%TO.C,Q6*%
X86391447Y-99526670D02*
X86270495Y-99466194D01*
X86270495Y-99466194D02*
X86149542Y-99345242D01*
X86149542Y-99345242D02*
X85968114Y-99163813D01*
X85968114Y-99163813D02*
X85847161Y-99103337D01*
X85847161Y-99103337D02*
X85726209Y-99103337D01*
X85786685Y-99405718D02*
X85665733Y-99345242D01*
X85665733Y-99345242D02*
X85544780Y-99224289D01*
X85544780Y-99224289D02*
X85484304Y-98982384D01*
X85484304Y-98982384D02*
X85484304Y-98559051D01*
X85484304Y-98559051D02*
X85544780Y-98317146D01*
X85544780Y-98317146D02*
X85665733Y-98196194D01*
X85665733Y-98196194D02*
X85786685Y-98135718D01*
X85786685Y-98135718D02*
X86028590Y-98135718D01*
X86028590Y-98135718D02*
X86149542Y-98196194D01*
X86149542Y-98196194D02*
X86270495Y-98317146D01*
X86270495Y-98317146D02*
X86330971Y-98559051D01*
X86330971Y-98559051D02*
X86330971Y-98982384D01*
X86330971Y-98982384D02*
X86270495Y-99224289D01*
X86270495Y-99224289D02*
X86149542Y-99345242D01*
X86149542Y-99345242D02*
X86028590Y-99405718D01*
X86028590Y-99405718D02*
X85786685Y-99405718D01*
X87419542Y-98135718D02*
X87177637Y-98135718D01*
X87177637Y-98135718D02*
X87056685Y-98196194D01*
X87056685Y-98196194D02*
X86996209Y-98256670D01*
X86996209Y-98256670D02*
X86875256Y-98438099D01*
X86875256Y-98438099D02*
X86814780Y-98680003D01*
X86814780Y-98680003D02*
X86814780Y-99163813D01*
X86814780Y-99163813D02*
X86875256Y-99284765D01*
X86875256Y-99284765D02*
X86935733Y-99345242D01*
X86935733Y-99345242D02*
X87056685Y-99405718D01*
X87056685Y-99405718D02*
X87298590Y-99405718D01*
X87298590Y-99405718D02*
X87419542Y-99345242D01*
X87419542Y-99345242D02*
X87480018Y-99284765D01*
X87480018Y-99284765D02*
X87540495Y-99163813D01*
X87540495Y-99163813D02*
X87540495Y-98861432D01*
X87540495Y-98861432D02*
X87480018Y-98740480D01*
X87480018Y-98740480D02*
X87419542Y-98680003D01*
X87419542Y-98680003D02*
X87298590Y-98619527D01*
X87298590Y-98619527D02*
X87056685Y-98619527D01*
X87056685Y-98619527D02*
X86935733Y-98680003D01*
X86935733Y-98680003D02*
X86875256Y-98740480D01*
X86875256Y-98740480D02*
X86814780Y-98861432D01*
D10*
%TO.C,D2*%
X80811905Y-96004819D02*
X80811905Y-95004819D01*
X80811905Y-95004819D02*
X81050000Y-95004819D01*
X81050000Y-95004819D02*
X81192857Y-95052438D01*
X81192857Y-95052438D02*
X81288095Y-95147676D01*
X81288095Y-95147676D02*
X81335714Y-95242914D01*
X81335714Y-95242914D02*
X81383333Y-95433390D01*
X81383333Y-95433390D02*
X81383333Y-95576247D01*
X81383333Y-95576247D02*
X81335714Y-95766723D01*
X81335714Y-95766723D02*
X81288095Y-95861961D01*
X81288095Y-95861961D02*
X81192857Y-95957200D01*
X81192857Y-95957200D02*
X81050000Y-96004819D01*
X81050000Y-96004819D02*
X80811905Y-96004819D01*
X81764286Y-95100057D02*
X81811905Y-95052438D01*
X81811905Y-95052438D02*
X81907143Y-95004819D01*
X81907143Y-95004819D02*
X82145238Y-95004819D01*
X82145238Y-95004819D02*
X82240476Y-95052438D01*
X82240476Y-95052438D02*
X82288095Y-95100057D01*
X82288095Y-95100057D02*
X82335714Y-95195295D01*
X82335714Y-95195295D02*
X82335714Y-95290533D01*
X82335714Y-95290533D02*
X82288095Y-95433390D01*
X82288095Y-95433390D02*
X81716667Y-96004819D01*
X81716667Y-96004819D02*
X82335714Y-96004819D01*
X83388220Y-94580180D02*
X83388220Y-95580180D01*
X83292982Y-94961133D02*
X83007268Y-94580180D01*
X83007268Y-95246847D02*
X83388220Y-94865895D01*
%TO.C,R46*%
X89196942Y-101445019D02*
X88863609Y-100968828D01*
X88625514Y-101445019D02*
X88625514Y-100445019D01*
X88625514Y-100445019D02*
X89006466Y-100445019D01*
X89006466Y-100445019D02*
X89101704Y-100492638D01*
X89101704Y-100492638D02*
X89149323Y-100540257D01*
X89149323Y-100540257D02*
X89196942Y-100635495D01*
X89196942Y-100635495D02*
X89196942Y-100778352D01*
X89196942Y-100778352D02*
X89149323Y-100873590D01*
X89149323Y-100873590D02*
X89101704Y-100921209D01*
X89101704Y-100921209D02*
X89006466Y-100968828D01*
X89006466Y-100968828D02*
X88625514Y-100968828D01*
X90054085Y-100778352D02*
X90054085Y-101445019D01*
X89815990Y-100397400D02*
X89577895Y-101111685D01*
X89577895Y-101111685D02*
X90196942Y-101111685D01*
X91006466Y-100445019D02*
X90815990Y-100445019D01*
X90815990Y-100445019D02*
X90720752Y-100492638D01*
X90720752Y-100492638D02*
X90673133Y-100540257D01*
X90673133Y-100540257D02*
X90577895Y-100683114D01*
X90577895Y-100683114D02*
X90530276Y-100873590D01*
X90530276Y-100873590D02*
X90530276Y-101254542D01*
X90530276Y-101254542D02*
X90577895Y-101349780D01*
X90577895Y-101349780D02*
X90625514Y-101397400D01*
X90625514Y-101397400D02*
X90720752Y-101445019D01*
X90720752Y-101445019D02*
X90911228Y-101445019D01*
X90911228Y-101445019D02*
X91006466Y-101397400D01*
X91006466Y-101397400D02*
X91054085Y-101349780D01*
X91054085Y-101349780D02*
X91101704Y-101254542D01*
X91101704Y-101254542D02*
X91101704Y-101016447D01*
X91101704Y-101016447D02*
X91054085Y-100921209D01*
X91054085Y-100921209D02*
X91006466Y-100873590D01*
X91006466Y-100873590D02*
X90911228Y-100825971D01*
X90911228Y-100825971D02*
X90720752Y-100825971D01*
X90720752Y-100825971D02*
X90625514Y-100873590D01*
X90625514Y-100873590D02*
X90577895Y-100921209D01*
X90577895Y-100921209D02*
X90530276Y-101016447D01*
%TO.C,R31*%
X91382319Y-93092857D02*
X90906128Y-93426190D01*
X91382319Y-93664285D02*
X90382319Y-93664285D01*
X90382319Y-93664285D02*
X90382319Y-93283333D01*
X90382319Y-93283333D02*
X90429938Y-93188095D01*
X90429938Y-93188095D02*
X90477557Y-93140476D01*
X90477557Y-93140476D02*
X90572795Y-93092857D01*
X90572795Y-93092857D02*
X90715652Y-93092857D01*
X90715652Y-93092857D02*
X90810890Y-93140476D01*
X90810890Y-93140476D02*
X90858509Y-93188095D01*
X90858509Y-93188095D02*
X90906128Y-93283333D01*
X90906128Y-93283333D02*
X90906128Y-93664285D01*
X90382319Y-92759523D02*
X90382319Y-92140476D01*
X90382319Y-92140476D02*
X90763271Y-92473809D01*
X90763271Y-92473809D02*
X90763271Y-92330952D01*
X90763271Y-92330952D02*
X90810890Y-92235714D01*
X90810890Y-92235714D02*
X90858509Y-92188095D01*
X90858509Y-92188095D02*
X90953747Y-92140476D01*
X90953747Y-92140476D02*
X91191842Y-92140476D01*
X91191842Y-92140476D02*
X91287080Y-92188095D01*
X91287080Y-92188095D02*
X91334700Y-92235714D01*
X91334700Y-92235714D02*
X91382319Y-92330952D01*
X91382319Y-92330952D02*
X91382319Y-92616666D01*
X91382319Y-92616666D02*
X91334700Y-92711904D01*
X91334700Y-92711904D02*
X91287080Y-92759523D01*
X91382319Y-91188095D02*
X91382319Y-91759523D01*
X91382319Y-91473809D02*
X90382319Y-91473809D01*
X90382319Y-91473809D02*
X90525176Y-91569047D01*
X90525176Y-91569047D02*
X90620414Y-91664285D01*
X90620414Y-91664285D02*
X90668033Y-91759523D01*
%TO.C,R21*%
X170267319Y-90730357D02*
X169791128Y-91063690D01*
X170267319Y-91301785D02*
X169267319Y-91301785D01*
X169267319Y-91301785D02*
X169267319Y-90920833D01*
X169267319Y-90920833D02*
X169314938Y-90825595D01*
X169314938Y-90825595D02*
X169362557Y-90777976D01*
X169362557Y-90777976D02*
X169457795Y-90730357D01*
X169457795Y-90730357D02*
X169600652Y-90730357D01*
X169600652Y-90730357D02*
X169695890Y-90777976D01*
X169695890Y-90777976D02*
X169743509Y-90825595D01*
X169743509Y-90825595D02*
X169791128Y-90920833D01*
X169791128Y-90920833D02*
X169791128Y-91301785D01*
X169362557Y-90349404D02*
X169314938Y-90301785D01*
X169314938Y-90301785D02*
X169267319Y-90206547D01*
X169267319Y-90206547D02*
X169267319Y-89968452D01*
X169267319Y-89968452D02*
X169314938Y-89873214D01*
X169314938Y-89873214D02*
X169362557Y-89825595D01*
X169362557Y-89825595D02*
X169457795Y-89777976D01*
X169457795Y-89777976D02*
X169553033Y-89777976D01*
X169553033Y-89777976D02*
X169695890Y-89825595D01*
X169695890Y-89825595D02*
X170267319Y-90397023D01*
X170267319Y-90397023D02*
X170267319Y-89777976D01*
X170267319Y-88825595D02*
X170267319Y-89397023D01*
X170267319Y-89111309D02*
X169267319Y-89111309D01*
X169267319Y-89111309D02*
X169410176Y-89206547D01*
X169410176Y-89206547D02*
X169505414Y-89301785D01*
X169505414Y-89301785D02*
X169553033Y-89397023D01*
D12*
%TO.C,Q5*%
X114306361Y-95799901D02*
X114211123Y-95752282D01*
X114211123Y-95752282D02*
X114115885Y-95657044D01*
X114115885Y-95657044D02*
X113973028Y-95514186D01*
X113973028Y-95514186D02*
X113877790Y-95466567D01*
X113877790Y-95466567D02*
X113782552Y-95466567D01*
X113830171Y-95704663D02*
X113734933Y-95657044D01*
X113734933Y-95657044D02*
X113639695Y-95561805D01*
X113639695Y-95561805D02*
X113592076Y-95371329D01*
X113592076Y-95371329D02*
X113592076Y-95037996D01*
X113592076Y-95037996D02*
X113639695Y-94847520D01*
X113639695Y-94847520D02*
X113734933Y-94752282D01*
X113734933Y-94752282D02*
X113830171Y-94704663D01*
X113830171Y-94704663D02*
X114020647Y-94704663D01*
X114020647Y-94704663D02*
X114115885Y-94752282D01*
X114115885Y-94752282D02*
X114211123Y-94847520D01*
X114211123Y-94847520D02*
X114258742Y-95037996D01*
X114258742Y-95037996D02*
X114258742Y-95371329D01*
X114258742Y-95371329D02*
X114211123Y-95561805D01*
X114211123Y-95561805D02*
X114115885Y-95657044D01*
X114115885Y-95657044D02*
X114020647Y-95704663D01*
X114020647Y-95704663D02*
X113830171Y-95704663D01*
X115163504Y-94704663D02*
X114687314Y-94704663D01*
X114687314Y-94704663D02*
X114639695Y-95180853D01*
X114639695Y-95180853D02*
X114687314Y-95133234D01*
X114687314Y-95133234D02*
X114782552Y-95085615D01*
X114782552Y-95085615D02*
X115020647Y-95085615D01*
X115020647Y-95085615D02*
X115115885Y-95133234D01*
X115115885Y-95133234D02*
X115163504Y-95180853D01*
X115163504Y-95180853D02*
X115211123Y-95276091D01*
X115211123Y-95276091D02*
X115211123Y-95514186D01*
X115211123Y-95514186D02*
X115163504Y-95609424D01*
X115163504Y-95609424D02*
X115115885Y-95657044D01*
X115115885Y-95657044D02*
X115020647Y-95704663D01*
X115020647Y-95704663D02*
X114782552Y-95704663D01*
X114782552Y-95704663D02*
X114687314Y-95657044D01*
X114687314Y-95657044D02*
X114639695Y-95609424D01*
D10*
%TO.C,R26*%
X178592319Y-90717857D02*
X178116128Y-91051190D01*
X178592319Y-91289285D02*
X177592319Y-91289285D01*
X177592319Y-91289285D02*
X177592319Y-90908333D01*
X177592319Y-90908333D02*
X177639938Y-90813095D01*
X177639938Y-90813095D02*
X177687557Y-90765476D01*
X177687557Y-90765476D02*
X177782795Y-90717857D01*
X177782795Y-90717857D02*
X177925652Y-90717857D01*
X177925652Y-90717857D02*
X178020890Y-90765476D01*
X178020890Y-90765476D02*
X178068509Y-90813095D01*
X178068509Y-90813095D02*
X178116128Y-90908333D01*
X178116128Y-90908333D02*
X178116128Y-91289285D01*
X177687557Y-90336904D02*
X177639938Y-90289285D01*
X177639938Y-90289285D02*
X177592319Y-90194047D01*
X177592319Y-90194047D02*
X177592319Y-89955952D01*
X177592319Y-89955952D02*
X177639938Y-89860714D01*
X177639938Y-89860714D02*
X177687557Y-89813095D01*
X177687557Y-89813095D02*
X177782795Y-89765476D01*
X177782795Y-89765476D02*
X177878033Y-89765476D01*
X177878033Y-89765476D02*
X178020890Y-89813095D01*
X178020890Y-89813095D02*
X178592319Y-90384523D01*
X178592319Y-90384523D02*
X178592319Y-89765476D01*
X177592319Y-88908333D02*
X177592319Y-89098809D01*
X177592319Y-89098809D02*
X177639938Y-89194047D01*
X177639938Y-89194047D02*
X177687557Y-89241666D01*
X177687557Y-89241666D02*
X177830414Y-89336904D01*
X177830414Y-89336904D02*
X178020890Y-89384523D01*
X178020890Y-89384523D02*
X178401842Y-89384523D01*
X178401842Y-89384523D02*
X178497080Y-89336904D01*
X178497080Y-89336904D02*
X178544700Y-89289285D01*
X178544700Y-89289285D02*
X178592319Y-89194047D01*
X178592319Y-89194047D02*
X178592319Y-89003571D01*
X178592319Y-89003571D02*
X178544700Y-88908333D01*
X178544700Y-88908333D02*
X178497080Y-88860714D01*
X178497080Y-88860714D02*
X178401842Y-88813095D01*
X178401842Y-88813095D02*
X178163747Y-88813095D01*
X178163747Y-88813095D02*
X178068509Y-88860714D01*
X178068509Y-88860714D02*
X178020890Y-88908333D01*
X178020890Y-88908333D02*
X177973271Y-89003571D01*
X177973271Y-89003571D02*
X177973271Y-89194047D01*
X177973271Y-89194047D02*
X178020890Y-89289285D01*
X178020890Y-89289285D02*
X178068509Y-89336904D01*
X178068509Y-89336904D02*
X178163747Y-89384523D01*
%TO.C,R39*%
X112818942Y-82674619D02*
X112485609Y-82198428D01*
X112247514Y-82674619D02*
X112247514Y-81674619D01*
X112247514Y-81674619D02*
X112628466Y-81674619D01*
X112628466Y-81674619D02*
X112723704Y-81722238D01*
X112723704Y-81722238D02*
X112771323Y-81769857D01*
X112771323Y-81769857D02*
X112818942Y-81865095D01*
X112818942Y-81865095D02*
X112818942Y-82007952D01*
X112818942Y-82007952D02*
X112771323Y-82103190D01*
X112771323Y-82103190D02*
X112723704Y-82150809D01*
X112723704Y-82150809D02*
X112628466Y-82198428D01*
X112628466Y-82198428D02*
X112247514Y-82198428D01*
X113152276Y-81674619D02*
X113771323Y-81674619D01*
X113771323Y-81674619D02*
X113437990Y-82055571D01*
X113437990Y-82055571D02*
X113580847Y-82055571D01*
X113580847Y-82055571D02*
X113676085Y-82103190D01*
X113676085Y-82103190D02*
X113723704Y-82150809D01*
X113723704Y-82150809D02*
X113771323Y-82246047D01*
X113771323Y-82246047D02*
X113771323Y-82484142D01*
X113771323Y-82484142D02*
X113723704Y-82579380D01*
X113723704Y-82579380D02*
X113676085Y-82627000D01*
X113676085Y-82627000D02*
X113580847Y-82674619D01*
X113580847Y-82674619D02*
X113295133Y-82674619D01*
X113295133Y-82674619D02*
X113199895Y-82627000D01*
X113199895Y-82627000D02*
X113152276Y-82579380D01*
X114247514Y-82674619D02*
X114437990Y-82674619D01*
X114437990Y-82674619D02*
X114533228Y-82627000D01*
X114533228Y-82627000D02*
X114580847Y-82579380D01*
X114580847Y-82579380D02*
X114676085Y-82436523D01*
X114676085Y-82436523D02*
X114723704Y-82246047D01*
X114723704Y-82246047D02*
X114723704Y-81865095D01*
X114723704Y-81865095D02*
X114676085Y-81769857D01*
X114676085Y-81769857D02*
X114628466Y-81722238D01*
X114628466Y-81722238D02*
X114533228Y-81674619D01*
X114533228Y-81674619D02*
X114342752Y-81674619D01*
X114342752Y-81674619D02*
X114247514Y-81722238D01*
X114247514Y-81722238D02*
X114199895Y-81769857D01*
X114199895Y-81769857D02*
X114152276Y-81865095D01*
X114152276Y-81865095D02*
X114152276Y-82103190D01*
X114152276Y-82103190D02*
X114199895Y-82198428D01*
X114199895Y-82198428D02*
X114247514Y-82246047D01*
X114247514Y-82246047D02*
X114342752Y-82293666D01*
X114342752Y-82293666D02*
X114533228Y-82293666D01*
X114533228Y-82293666D02*
X114628466Y-82246047D01*
X114628466Y-82246047D02*
X114676085Y-82198428D01*
X114676085Y-82198428D02*
X114723704Y-82103190D01*
%TO.C,U8*%
X94525595Y-100089619D02*
X94525595Y-100899142D01*
X94525595Y-100899142D02*
X94573214Y-100994380D01*
X94573214Y-100994380D02*
X94620833Y-101042000D01*
X94620833Y-101042000D02*
X94716071Y-101089619D01*
X94716071Y-101089619D02*
X94906547Y-101089619D01*
X94906547Y-101089619D02*
X95001785Y-101042000D01*
X95001785Y-101042000D02*
X95049404Y-100994380D01*
X95049404Y-100994380D02*
X95097023Y-100899142D01*
X95097023Y-100899142D02*
X95097023Y-100089619D01*
X95716071Y-100518190D02*
X95620833Y-100470571D01*
X95620833Y-100470571D02*
X95573214Y-100422952D01*
X95573214Y-100422952D02*
X95525595Y-100327714D01*
X95525595Y-100327714D02*
X95525595Y-100280095D01*
X95525595Y-100280095D02*
X95573214Y-100184857D01*
X95573214Y-100184857D02*
X95620833Y-100137238D01*
X95620833Y-100137238D02*
X95716071Y-100089619D01*
X95716071Y-100089619D02*
X95906547Y-100089619D01*
X95906547Y-100089619D02*
X96001785Y-100137238D01*
X96001785Y-100137238D02*
X96049404Y-100184857D01*
X96049404Y-100184857D02*
X96097023Y-100280095D01*
X96097023Y-100280095D02*
X96097023Y-100327714D01*
X96097023Y-100327714D02*
X96049404Y-100422952D01*
X96049404Y-100422952D02*
X96001785Y-100470571D01*
X96001785Y-100470571D02*
X95906547Y-100518190D01*
X95906547Y-100518190D02*
X95716071Y-100518190D01*
X95716071Y-100518190D02*
X95620833Y-100565809D01*
X95620833Y-100565809D02*
X95573214Y-100613428D01*
X95573214Y-100613428D02*
X95525595Y-100708666D01*
X95525595Y-100708666D02*
X95525595Y-100899142D01*
X95525595Y-100899142D02*
X95573214Y-100994380D01*
X95573214Y-100994380D02*
X95620833Y-101042000D01*
X95620833Y-101042000D02*
X95716071Y-101089619D01*
X95716071Y-101089619D02*
X95906547Y-101089619D01*
X95906547Y-101089619D02*
X96001785Y-101042000D01*
X96001785Y-101042000D02*
X96049404Y-100994380D01*
X96049404Y-100994380D02*
X96097023Y-100899142D01*
X96097023Y-100899142D02*
X96097023Y-100708666D01*
X96097023Y-100708666D02*
X96049404Y-100613428D01*
X96049404Y-100613428D02*
X96001785Y-100565809D01*
X96001785Y-100565809D02*
X95906547Y-100518190D01*
%TO.C,U1*%
X96109295Y-92164119D02*
X96109295Y-92973642D01*
X96109295Y-92973642D02*
X96156914Y-93068880D01*
X96156914Y-93068880D02*
X96204533Y-93116500D01*
X96204533Y-93116500D02*
X96299771Y-93164119D01*
X96299771Y-93164119D02*
X96490247Y-93164119D01*
X96490247Y-93164119D02*
X96585485Y-93116500D01*
X96585485Y-93116500D02*
X96633104Y-93068880D01*
X96633104Y-93068880D02*
X96680723Y-92973642D01*
X96680723Y-92973642D02*
X96680723Y-92164119D01*
X97680723Y-93164119D02*
X97109295Y-93164119D01*
X97395009Y-93164119D02*
X97395009Y-92164119D01*
X97395009Y-92164119D02*
X97299771Y-92306976D01*
X97299771Y-92306976D02*
X97204533Y-92402214D01*
X97204533Y-92402214D02*
X97109295Y-92449833D01*
%TO.C,C12*%
X94849580Y-78317857D02*
X94897200Y-78365476D01*
X94897200Y-78365476D02*
X94944819Y-78508333D01*
X94944819Y-78508333D02*
X94944819Y-78603571D01*
X94944819Y-78603571D02*
X94897200Y-78746428D01*
X94897200Y-78746428D02*
X94801961Y-78841666D01*
X94801961Y-78841666D02*
X94706723Y-78889285D01*
X94706723Y-78889285D02*
X94516247Y-78936904D01*
X94516247Y-78936904D02*
X94373390Y-78936904D01*
X94373390Y-78936904D02*
X94182914Y-78889285D01*
X94182914Y-78889285D02*
X94087676Y-78841666D01*
X94087676Y-78841666D02*
X93992438Y-78746428D01*
X93992438Y-78746428D02*
X93944819Y-78603571D01*
X93944819Y-78603571D02*
X93944819Y-78508333D01*
X93944819Y-78508333D02*
X93992438Y-78365476D01*
X93992438Y-78365476D02*
X94040057Y-78317857D01*
X94944819Y-77365476D02*
X94944819Y-77936904D01*
X94944819Y-77651190D02*
X93944819Y-77651190D01*
X93944819Y-77651190D02*
X94087676Y-77746428D01*
X94087676Y-77746428D02*
X94182914Y-77841666D01*
X94182914Y-77841666D02*
X94230533Y-77936904D01*
X94040057Y-76984523D02*
X93992438Y-76936904D01*
X93992438Y-76936904D02*
X93944819Y-76841666D01*
X93944819Y-76841666D02*
X93944819Y-76603571D01*
X93944819Y-76603571D02*
X93992438Y-76508333D01*
X93992438Y-76508333D02*
X94040057Y-76460714D01*
X94040057Y-76460714D02*
X94135295Y-76413095D01*
X94135295Y-76413095D02*
X94230533Y-76413095D01*
X94230533Y-76413095D02*
X94373390Y-76460714D01*
X94373390Y-76460714D02*
X94944819Y-77032142D01*
X94944819Y-77032142D02*
X94944819Y-76413095D01*
%TO.C,R2*%
X92204819Y-88941666D02*
X91728628Y-89274999D01*
X92204819Y-89513094D02*
X91204819Y-89513094D01*
X91204819Y-89513094D02*
X91204819Y-89132142D01*
X91204819Y-89132142D02*
X91252438Y-89036904D01*
X91252438Y-89036904D02*
X91300057Y-88989285D01*
X91300057Y-88989285D02*
X91395295Y-88941666D01*
X91395295Y-88941666D02*
X91538152Y-88941666D01*
X91538152Y-88941666D02*
X91633390Y-88989285D01*
X91633390Y-88989285D02*
X91681009Y-89036904D01*
X91681009Y-89036904D02*
X91728628Y-89132142D01*
X91728628Y-89132142D02*
X91728628Y-89513094D01*
X91300057Y-88560713D02*
X91252438Y-88513094D01*
X91252438Y-88513094D02*
X91204819Y-88417856D01*
X91204819Y-88417856D02*
X91204819Y-88179761D01*
X91204819Y-88179761D02*
X91252438Y-88084523D01*
X91252438Y-88084523D02*
X91300057Y-88036904D01*
X91300057Y-88036904D02*
X91395295Y-87989285D01*
X91395295Y-87989285D02*
X91490533Y-87989285D01*
X91490533Y-87989285D02*
X91633390Y-88036904D01*
X91633390Y-88036904D02*
X92204819Y-88608332D01*
X92204819Y-88608332D02*
X92204819Y-87989285D01*
%TO.C,R44*%
X106542319Y-92405357D02*
X106066128Y-92738690D01*
X106542319Y-92976785D02*
X105542319Y-92976785D01*
X105542319Y-92976785D02*
X105542319Y-92595833D01*
X105542319Y-92595833D02*
X105589938Y-92500595D01*
X105589938Y-92500595D02*
X105637557Y-92452976D01*
X105637557Y-92452976D02*
X105732795Y-92405357D01*
X105732795Y-92405357D02*
X105875652Y-92405357D01*
X105875652Y-92405357D02*
X105970890Y-92452976D01*
X105970890Y-92452976D02*
X106018509Y-92500595D01*
X106018509Y-92500595D02*
X106066128Y-92595833D01*
X106066128Y-92595833D02*
X106066128Y-92976785D01*
X105875652Y-91548214D02*
X106542319Y-91548214D01*
X105494700Y-91786309D02*
X106208985Y-92024404D01*
X106208985Y-92024404D02*
X106208985Y-91405357D01*
X105875652Y-90595833D02*
X106542319Y-90595833D01*
X105494700Y-90833928D02*
X106208985Y-91072023D01*
X106208985Y-91072023D02*
X106208985Y-90452976D01*
%TO.C,R23*%
X170504819Y-95055357D02*
X170028628Y-95388690D01*
X170504819Y-95626785D02*
X169504819Y-95626785D01*
X169504819Y-95626785D02*
X169504819Y-95245833D01*
X169504819Y-95245833D02*
X169552438Y-95150595D01*
X169552438Y-95150595D02*
X169600057Y-95102976D01*
X169600057Y-95102976D02*
X169695295Y-95055357D01*
X169695295Y-95055357D02*
X169838152Y-95055357D01*
X169838152Y-95055357D02*
X169933390Y-95102976D01*
X169933390Y-95102976D02*
X169981009Y-95150595D01*
X169981009Y-95150595D02*
X170028628Y-95245833D01*
X170028628Y-95245833D02*
X170028628Y-95626785D01*
X169600057Y-94674404D02*
X169552438Y-94626785D01*
X169552438Y-94626785D02*
X169504819Y-94531547D01*
X169504819Y-94531547D02*
X169504819Y-94293452D01*
X169504819Y-94293452D02*
X169552438Y-94198214D01*
X169552438Y-94198214D02*
X169600057Y-94150595D01*
X169600057Y-94150595D02*
X169695295Y-94102976D01*
X169695295Y-94102976D02*
X169790533Y-94102976D01*
X169790533Y-94102976D02*
X169933390Y-94150595D01*
X169933390Y-94150595D02*
X170504819Y-94722023D01*
X170504819Y-94722023D02*
X170504819Y-94102976D01*
X169504819Y-93769642D02*
X169504819Y-93150595D01*
X169504819Y-93150595D02*
X169885771Y-93483928D01*
X169885771Y-93483928D02*
X169885771Y-93341071D01*
X169885771Y-93341071D02*
X169933390Y-93245833D01*
X169933390Y-93245833D02*
X169981009Y-93198214D01*
X169981009Y-93198214D02*
X170076247Y-93150595D01*
X170076247Y-93150595D02*
X170314342Y-93150595D01*
X170314342Y-93150595D02*
X170409580Y-93198214D01*
X170409580Y-93198214D02*
X170457200Y-93245833D01*
X170457200Y-93245833D02*
X170504819Y-93341071D01*
X170504819Y-93341071D02*
X170504819Y-93626785D01*
X170504819Y-93626785D02*
X170457200Y-93722023D01*
X170457200Y-93722023D02*
X170409580Y-93769642D01*
%TO.C,J6*%
X151555819Y-83831933D02*
X152270104Y-83831933D01*
X152270104Y-83831933D02*
X152412961Y-83879552D01*
X152412961Y-83879552D02*
X152508200Y-83974790D01*
X152508200Y-83974790D02*
X152555819Y-84117647D01*
X152555819Y-84117647D02*
X152555819Y-84212885D01*
X151555819Y-82927171D02*
X151555819Y-83117647D01*
X151555819Y-83117647D02*
X151603438Y-83212885D01*
X151603438Y-83212885D02*
X151651057Y-83260504D01*
X151651057Y-83260504D02*
X151793914Y-83355742D01*
X151793914Y-83355742D02*
X151984390Y-83403361D01*
X151984390Y-83403361D02*
X152365342Y-83403361D01*
X152365342Y-83403361D02*
X152460580Y-83355742D01*
X152460580Y-83355742D02*
X152508200Y-83308123D01*
X152508200Y-83308123D02*
X152555819Y-83212885D01*
X152555819Y-83212885D02*
X152555819Y-83022409D01*
X152555819Y-83022409D02*
X152508200Y-82927171D01*
X152508200Y-82927171D02*
X152460580Y-82879552D01*
X152460580Y-82879552D02*
X152365342Y-82831933D01*
X152365342Y-82831933D02*
X152127247Y-82831933D01*
X152127247Y-82831933D02*
X152032009Y-82879552D01*
X152032009Y-82879552D02*
X151984390Y-82927171D01*
X151984390Y-82927171D02*
X151936771Y-83022409D01*
X151936771Y-83022409D02*
X151936771Y-83212885D01*
X151936771Y-83212885D02*
X151984390Y-83308123D01*
X151984390Y-83308123D02*
X152032009Y-83355742D01*
X152032009Y-83355742D02*
X152127247Y-83403361D01*
%TO.C,U6*%
X87706295Y-85586219D02*
X87706295Y-86395742D01*
X87706295Y-86395742D02*
X87753914Y-86490980D01*
X87753914Y-86490980D02*
X87801533Y-86538600D01*
X87801533Y-86538600D02*
X87896771Y-86586219D01*
X87896771Y-86586219D02*
X88087247Y-86586219D01*
X88087247Y-86586219D02*
X88182485Y-86538600D01*
X88182485Y-86538600D02*
X88230104Y-86490980D01*
X88230104Y-86490980D02*
X88277723Y-86395742D01*
X88277723Y-86395742D02*
X88277723Y-85586219D01*
X89182485Y-85586219D02*
X88992009Y-85586219D01*
X88992009Y-85586219D02*
X88896771Y-85633838D01*
X88896771Y-85633838D02*
X88849152Y-85681457D01*
X88849152Y-85681457D02*
X88753914Y-85824314D01*
X88753914Y-85824314D02*
X88706295Y-86014790D01*
X88706295Y-86014790D02*
X88706295Y-86395742D01*
X88706295Y-86395742D02*
X88753914Y-86490980D01*
X88753914Y-86490980D02*
X88801533Y-86538600D01*
X88801533Y-86538600D02*
X88896771Y-86586219D01*
X88896771Y-86586219D02*
X89087247Y-86586219D01*
X89087247Y-86586219D02*
X89182485Y-86538600D01*
X89182485Y-86538600D02*
X89230104Y-86490980D01*
X89230104Y-86490980D02*
X89277723Y-86395742D01*
X89277723Y-86395742D02*
X89277723Y-86157647D01*
X89277723Y-86157647D02*
X89230104Y-86062409D01*
X89230104Y-86062409D02*
X89182485Y-86014790D01*
X89182485Y-86014790D02*
X89087247Y-85967171D01*
X89087247Y-85967171D02*
X88896771Y-85967171D01*
X88896771Y-85967171D02*
X88801533Y-86014790D01*
X88801533Y-86014790D02*
X88753914Y-86062409D01*
X88753914Y-86062409D02*
X88706295Y-86157647D01*
%TO.C,U9*%
X87137219Y-96004404D02*
X87946742Y-96004404D01*
X87946742Y-96004404D02*
X88041980Y-95956785D01*
X88041980Y-95956785D02*
X88089600Y-95909166D01*
X88089600Y-95909166D02*
X88137219Y-95813928D01*
X88137219Y-95813928D02*
X88137219Y-95623452D01*
X88137219Y-95623452D02*
X88089600Y-95528214D01*
X88089600Y-95528214D02*
X88041980Y-95480595D01*
X88041980Y-95480595D02*
X87946742Y-95432976D01*
X87946742Y-95432976D02*
X87137219Y-95432976D01*
X88137219Y-94909166D02*
X88137219Y-94718690D01*
X88137219Y-94718690D02*
X88089600Y-94623452D01*
X88089600Y-94623452D02*
X88041980Y-94575833D01*
X88041980Y-94575833D02*
X87899123Y-94480595D01*
X87899123Y-94480595D02*
X87708647Y-94432976D01*
X87708647Y-94432976D02*
X87327695Y-94432976D01*
X87327695Y-94432976D02*
X87232457Y-94480595D01*
X87232457Y-94480595D02*
X87184838Y-94528214D01*
X87184838Y-94528214D02*
X87137219Y-94623452D01*
X87137219Y-94623452D02*
X87137219Y-94813928D01*
X87137219Y-94813928D02*
X87184838Y-94909166D01*
X87184838Y-94909166D02*
X87232457Y-94956785D01*
X87232457Y-94956785D02*
X87327695Y-95004404D01*
X87327695Y-95004404D02*
X87565790Y-95004404D01*
X87565790Y-95004404D02*
X87661028Y-94956785D01*
X87661028Y-94956785D02*
X87708647Y-94909166D01*
X87708647Y-94909166D02*
X87756266Y-94813928D01*
X87756266Y-94813928D02*
X87756266Y-94623452D01*
X87756266Y-94623452D02*
X87708647Y-94528214D01*
X87708647Y-94528214D02*
X87661028Y-94480595D01*
X87661028Y-94480595D02*
X87565790Y-94432976D01*
%TO.C,R41*%
X120482142Y-101267319D02*
X120148809Y-100791128D01*
X119910714Y-101267319D02*
X119910714Y-100267319D01*
X119910714Y-100267319D02*
X120291666Y-100267319D01*
X120291666Y-100267319D02*
X120386904Y-100314938D01*
X120386904Y-100314938D02*
X120434523Y-100362557D01*
X120434523Y-100362557D02*
X120482142Y-100457795D01*
X120482142Y-100457795D02*
X120482142Y-100600652D01*
X120482142Y-100600652D02*
X120434523Y-100695890D01*
X120434523Y-100695890D02*
X120386904Y-100743509D01*
X120386904Y-100743509D02*
X120291666Y-100791128D01*
X120291666Y-100791128D02*
X119910714Y-100791128D01*
X121339285Y-100600652D02*
X121339285Y-101267319D01*
X121101190Y-100219700D02*
X120863095Y-100933985D01*
X120863095Y-100933985D02*
X121482142Y-100933985D01*
X122386904Y-101267319D02*
X121815476Y-101267319D01*
X122101190Y-101267319D02*
X122101190Y-100267319D01*
X122101190Y-100267319D02*
X122005952Y-100410176D01*
X122005952Y-100410176D02*
X121910714Y-100505414D01*
X121910714Y-100505414D02*
X121815476Y-100553033D01*
%TO.C,J4*%
X115349219Y-83831933D02*
X116063504Y-83831933D01*
X116063504Y-83831933D02*
X116206361Y-83879552D01*
X116206361Y-83879552D02*
X116301600Y-83974790D01*
X116301600Y-83974790D02*
X116349219Y-84117647D01*
X116349219Y-84117647D02*
X116349219Y-84212885D01*
X115682552Y-82927171D02*
X116349219Y-82927171D01*
X115301600Y-83165266D02*
X116015885Y-83403361D01*
X116015885Y-83403361D02*
X116015885Y-82784314D01*
%TO.C,J13*%
X176309219Y-84333523D02*
X177023504Y-84333523D01*
X177023504Y-84333523D02*
X177166361Y-84381142D01*
X177166361Y-84381142D02*
X177261600Y-84476380D01*
X177261600Y-84476380D02*
X177309219Y-84619237D01*
X177309219Y-84619237D02*
X177309219Y-84714475D01*
X177309219Y-83333523D02*
X177309219Y-83904951D01*
X177309219Y-83619237D02*
X176309219Y-83619237D01*
X176309219Y-83619237D02*
X176452076Y-83714475D01*
X176452076Y-83714475D02*
X176547314Y-83809713D01*
X176547314Y-83809713D02*
X176594933Y-83904951D01*
X176309219Y-83000189D02*
X176309219Y-82381142D01*
X176309219Y-82381142D02*
X176690171Y-82714475D01*
X176690171Y-82714475D02*
X176690171Y-82571618D01*
X176690171Y-82571618D02*
X176737790Y-82476380D01*
X176737790Y-82476380D02*
X176785409Y-82428761D01*
X176785409Y-82428761D02*
X176880647Y-82381142D01*
X176880647Y-82381142D02*
X177118742Y-82381142D01*
X177118742Y-82381142D02*
X177213980Y-82428761D01*
X177213980Y-82428761D02*
X177261600Y-82476380D01*
X177261600Y-82476380D02*
X177309219Y-82571618D01*
X177309219Y-82571618D02*
X177309219Y-82857332D01*
X177309219Y-82857332D02*
X177261600Y-82952570D01*
X177261600Y-82952570D02*
X177213980Y-83000189D01*
%TO.C,C4*%
X80009580Y-90854166D02*
X80057200Y-90901785D01*
X80057200Y-90901785D02*
X80104819Y-91044642D01*
X80104819Y-91044642D02*
X80104819Y-91139880D01*
X80104819Y-91139880D02*
X80057200Y-91282737D01*
X80057200Y-91282737D02*
X79961961Y-91377975D01*
X79961961Y-91377975D02*
X79866723Y-91425594D01*
X79866723Y-91425594D02*
X79676247Y-91473213D01*
X79676247Y-91473213D02*
X79533390Y-91473213D01*
X79533390Y-91473213D02*
X79342914Y-91425594D01*
X79342914Y-91425594D02*
X79247676Y-91377975D01*
X79247676Y-91377975D02*
X79152438Y-91282737D01*
X79152438Y-91282737D02*
X79104819Y-91139880D01*
X79104819Y-91139880D02*
X79104819Y-91044642D01*
X79104819Y-91044642D02*
X79152438Y-90901785D01*
X79152438Y-90901785D02*
X79200057Y-90854166D01*
X79438152Y-89997023D02*
X80104819Y-89997023D01*
X79057200Y-90235118D02*
X79771485Y-90473213D01*
X79771485Y-90473213D02*
X79771485Y-89854166D01*
%TO.C,R29*%
X85544842Y-93824119D02*
X85211509Y-93347928D01*
X84973414Y-93824119D02*
X84973414Y-92824119D01*
X84973414Y-92824119D02*
X85354366Y-92824119D01*
X85354366Y-92824119D02*
X85449604Y-92871738D01*
X85449604Y-92871738D02*
X85497223Y-92919357D01*
X85497223Y-92919357D02*
X85544842Y-93014595D01*
X85544842Y-93014595D02*
X85544842Y-93157452D01*
X85544842Y-93157452D02*
X85497223Y-93252690D01*
X85497223Y-93252690D02*
X85449604Y-93300309D01*
X85449604Y-93300309D02*
X85354366Y-93347928D01*
X85354366Y-93347928D02*
X84973414Y-93347928D01*
X85925795Y-92919357D02*
X85973414Y-92871738D01*
X85973414Y-92871738D02*
X86068652Y-92824119D01*
X86068652Y-92824119D02*
X86306747Y-92824119D01*
X86306747Y-92824119D02*
X86401985Y-92871738D01*
X86401985Y-92871738D02*
X86449604Y-92919357D01*
X86449604Y-92919357D02*
X86497223Y-93014595D01*
X86497223Y-93014595D02*
X86497223Y-93109833D01*
X86497223Y-93109833D02*
X86449604Y-93252690D01*
X86449604Y-93252690D02*
X85878176Y-93824119D01*
X85878176Y-93824119D02*
X86497223Y-93824119D01*
X86973414Y-93824119D02*
X87163890Y-93824119D01*
X87163890Y-93824119D02*
X87259128Y-93776500D01*
X87259128Y-93776500D02*
X87306747Y-93728880D01*
X87306747Y-93728880D02*
X87401985Y-93586023D01*
X87401985Y-93586023D02*
X87449604Y-93395547D01*
X87449604Y-93395547D02*
X87449604Y-93014595D01*
X87449604Y-93014595D02*
X87401985Y-92919357D01*
X87401985Y-92919357D02*
X87354366Y-92871738D01*
X87354366Y-92871738D02*
X87259128Y-92824119D01*
X87259128Y-92824119D02*
X87068652Y-92824119D01*
X87068652Y-92824119D02*
X86973414Y-92871738D01*
X86973414Y-92871738D02*
X86925795Y-92919357D01*
X86925795Y-92919357D02*
X86878176Y-93014595D01*
X86878176Y-93014595D02*
X86878176Y-93252690D01*
X86878176Y-93252690D02*
X86925795Y-93347928D01*
X86925795Y-93347928D02*
X86973414Y-93395547D01*
X86973414Y-93395547D02*
X87068652Y-93443166D01*
X87068652Y-93443166D02*
X87259128Y-93443166D01*
X87259128Y-93443166D02*
X87354366Y-93395547D01*
X87354366Y-93395547D02*
X87401985Y-93347928D01*
X87401985Y-93347928D02*
X87449604Y-93252690D01*
%TO.C,R28*%
X92544642Y-84192319D02*
X92211309Y-83716128D01*
X91973214Y-84192319D02*
X91973214Y-83192319D01*
X91973214Y-83192319D02*
X92354166Y-83192319D01*
X92354166Y-83192319D02*
X92449404Y-83239938D01*
X92449404Y-83239938D02*
X92497023Y-83287557D01*
X92497023Y-83287557D02*
X92544642Y-83382795D01*
X92544642Y-83382795D02*
X92544642Y-83525652D01*
X92544642Y-83525652D02*
X92497023Y-83620890D01*
X92497023Y-83620890D02*
X92449404Y-83668509D01*
X92449404Y-83668509D02*
X92354166Y-83716128D01*
X92354166Y-83716128D02*
X91973214Y-83716128D01*
X92925595Y-83287557D02*
X92973214Y-83239938D01*
X92973214Y-83239938D02*
X93068452Y-83192319D01*
X93068452Y-83192319D02*
X93306547Y-83192319D01*
X93306547Y-83192319D02*
X93401785Y-83239938D01*
X93401785Y-83239938D02*
X93449404Y-83287557D01*
X93449404Y-83287557D02*
X93497023Y-83382795D01*
X93497023Y-83382795D02*
X93497023Y-83478033D01*
X93497023Y-83478033D02*
X93449404Y-83620890D01*
X93449404Y-83620890D02*
X92877976Y-84192319D01*
X92877976Y-84192319D02*
X93497023Y-84192319D01*
X94068452Y-83620890D02*
X93973214Y-83573271D01*
X93973214Y-83573271D02*
X93925595Y-83525652D01*
X93925595Y-83525652D02*
X93877976Y-83430414D01*
X93877976Y-83430414D02*
X93877976Y-83382795D01*
X93877976Y-83382795D02*
X93925595Y-83287557D01*
X93925595Y-83287557D02*
X93973214Y-83239938D01*
X93973214Y-83239938D02*
X94068452Y-83192319D01*
X94068452Y-83192319D02*
X94258928Y-83192319D01*
X94258928Y-83192319D02*
X94354166Y-83239938D01*
X94354166Y-83239938D02*
X94401785Y-83287557D01*
X94401785Y-83287557D02*
X94449404Y-83382795D01*
X94449404Y-83382795D02*
X94449404Y-83430414D01*
X94449404Y-83430414D02*
X94401785Y-83525652D01*
X94401785Y-83525652D02*
X94354166Y-83573271D01*
X94354166Y-83573271D02*
X94258928Y-83620890D01*
X94258928Y-83620890D02*
X94068452Y-83620890D01*
X94068452Y-83620890D02*
X93973214Y-83668509D01*
X93973214Y-83668509D02*
X93925595Y-83716128D01*
X93925595Y-83716128D02*
X93877976Y-83811366D01*
X93877976Y-83811366D02*
X93877976Y-84001842D01*
X93877976Y-84001842D02*
X93925595Y-84097080D01*
X93925595Y-84097080D02*
X93973214Y-84144700D01*
X93973214Y-84144700D02*
X94068452Y-84192319D01*
X94068452Y-84192319D02*
X94258928Y-84192319D01*
X94258928Y-84192319D02*
X94354166Y-84144700D01*
X94354166Y-84144700D02*
X94401785Y-84097080D01*
X94401785Y-84097080D02*
X94449404Y-84001842D01*
X94449404Y-84001842D02*
X94449404Y-83811366D01*
X94449404Y-83811366D02*
X94401785Y-83716128D01*
X94401785Y-83716128D02*
X94354166Y-83668509D01*
X94354166Y-83668509D02*
X94258928Y-83620890D01*
%TO.C,R17*%
X158417319Y-95042857D02*
X157941128Y-95376190D01*
X158417319Y-95614285D02*
X157417319Y-95614285D01*
X157417319Y-95614285D02*
X157417319Y-95233333D01*
X157417319Y-95233333D02*
X157464938Y-95138095D01*
X157464938Y-95138095D02*
X157512557Y-95090476D01*
X157512557Y-95090476D02*
X157607795Y-95042857D01*
X157607795Y-95042857D02*
X157750652Y-95042857D01*
X157750652Y-95042857D02*
X157845890Y-95090476D01*
X157845890Y-95090476D02*
X157893509Y-95138095D01*
X157893509Y-95138095D02*
X157941128Y-95233333D01*
X157941128Y-95233333D02*
X157941128Y-95614285D01*
X158417319Y-94090476D02*
X158417319Y-94661904D01*
X158417319Y-94376190D02*
X157417319Y-94376190D01*
X157417319Y-94376190D02*
X157560176Y-94471428D01*
X157560176Y-94471428D02*
X157655414Y-94566666D01*
X157655414Y-94566666D02*
X157703033Y-94661904D01*
X157417319Y-93757142D02*
X157417319Y-93090476D01*
X157417319Y-93090476D02*
X158417319Y-93519047D01*
%TO.C,J10*%
X180622676Y-100267419D02*
X180622676Y-100981704D01*
X180622676Y-100981704D02*
X180575057Y-101124561D01*
X180575057Y-101124561D02*
X180479819Y-101219800D01*
X180479819Y-101219800D02*
X180336962Y-101267419D01*
X180336962Y-101267419D02*
X180241724Y-101267419D01*
X181622676Y-101267419D02*
X181051248Y-101267419D01*
X181336962Y-101267419D02*
X181336962Y-100267419D01*
X181336962Y-100267419D02*
X181241724Y-100410276D01*
X181241724Y-100410276D02*
X181146486Y-100505514D01*
X181146486Y-100505514D02*
X181051248Y-100553133D01*
X182241724Y-100267419D02*
X182336962Y-100267419D01*
X182336962Y-100267419D02*
X182432200Y-100315038D01*
X182432200Y-100315038D02*
X182479819Y-100362657D01*
X182479819Y-100362657D02*
X182527438Y-100457895D01*
X182527438Y-100457895D02*
X182575057Y-100648371D01*
X182575057Y-100648371D02*
X182575057Y-100886466D01*
X182575057Y-100886466D02*
X182527438Y-101076942D01*
X182527438Y-101076942D02*
X182479819Y-101172180D01*
X182479819Y-101172180D02*
X182432200Y-101219800D01*
X182432200Y-101219800D02*
X182336962Y-101267419D01*
X182336962Y-101267419D02*
X182241724Y-101267419D01*
X182241724Y-101267419D02*
X182146486Y-101219800D01*
X182146486Y-101219800D02*
X182098867Y-101172180D01*
X182098867Y-101172180D02*
X182051248Y-101076942D01*
X182051248Y-101076942D02*
X182003629Y-100886466D01*
X182003629Y-100886466D02*
X182003629Y-100648371D01*
X182003629Y-100648371D02*
X182051248Y-100457895D01*
X182051248Y-100457895D02*
X182098867Y-100362657D01*
X182098867Y-100362657D02*
X182146486Y-100315038D01*
X182146486Y-100315038D02*
X182241724Y-100267419D01*
%TO.C,R33*%
X84853542Y-80398719D02*
X84520209Y-79922528D01*
X84282114Y-80398719D02*
X84282114Y-79398719D01*
X84282114Y-79398719D02*
X84663066Y-79398719D01*
X84663066Y-79398719D02*
X84758304Y-79446338D01*
X84758304Y-79446338D02*
X84805923Y-79493957D01*
X84805923Y-79493957D02*
X84853542Y-79589195D01*
X84853542Y-79589195D02*
X84853542Y-79732052D01*
X84853542Y-79732052D02*
X84805923Y-79827290D01*
X84805923Y-79827290D02*
X84758304Y-79874909D01*
X84758304Y-79874909D02*
X84663066Y-79922528D01*
X84663066Y-79922528D02*
X84282114Y-79922528D01*
X85186876Y-79398719D02*
X85805923Y-79398719D01*
X85805923Y-79398719D02*
X85472590Y-79779671D01*
X85472590Y-79779671D02*
X85615447Y-79779671D01*
X85615447Y-79779671D02*
X85710685Y-79827290D01*
X85710685Y-79827290D02*
X85758304Y-79874909D01*
X85758304Y-79874909D02*
X85805923Y-79970147D01*
X85805923Y-79970147D02*
X85805923Y-80208242D01*
X85805923Y-80208242D02*
X85758304Y-80303480D01*
X85758304Y-80303480D02*
X85710685Y-80351100D01*
X85710685Y-80351100D02*
X85615447Y-80398719D01*
X85615447Y-80398719D02*
X85329733Y-80398719D01*
X85329733Y-80398719D02*
X85234495Y-80351100D01*
X85234495Y-80351100D02*
X85186876Y-80303480D01*
X86139257Y-79398719D02*
X86758304Y-79398719D01*
X86758304Y-79398719D02*
X86424971Y-79779671D01*
X86424971Y-79779671D02*
X86567828Y-79779671D01*
X86567828Y-79779671D02*
X86663066Y-79827290D01*
X86663066Y-79827290D02*
X86710685Y-79874909D01*
X86710685Y-79874909D02*
X86758304Y-79970147D01*
X86758304Y-79970147D02*
X86758304Y-80208242D01*
X86758304Y-80208242D02*
X86710685Y-80303480D01*
X86710685Y-80303480D02*
X86663066Y-80351100D01*
X86663066Y-80351100D02*
X86567828Y-80398719D01*
X86567828Y-80398719D02*
X86282114Y-80398719D01*
X86282114Y-80398719D02*
X86186876Y-80351100D01*
X86186876Y-80351100D02*
X86139257Y-80303480D01*
%TO.C,T1*%
X80451419Y-79985904D02*
X80451419Y-79414476D01*
X81451419Y-79700190D02*
X80451419Y-79700190D01*
X81451419Y-78557333D02*
X81451419Y-79128761D01*
X81451419Y-78843047D02*
X80451419Y-78843047D01*
X80451419Y-78843047D02*
X80594276Y-78938285D01*
X80594276Y-78938285D02*
X80689514Y-79033523D01*
X80689514Y-79033523D02*
X80737133Y-79128761D01*
%TO.C,R24*%
X180054819Y-95092857D02*
X179578628Y-95426190D01*
X180054819Y-95664285D02*
X179054819Y-95664285D01*
X179054819Y-95664285D02*
X179054819Y-95283333D01*
X179054819Y-95283333D02*
X179102438Y-95188095D01*
X179102438Y-95188095D02*
X179150057Y-95140476D01*
X179150057Y-95140476D02*
X179245295Y-95092857D01*
X179245295Y-95092857D02*
X179388152Y-95092857D01*
X179388152Y-95092857D02*
X179483390Y-95140476D01*
X179483390Y-95140476D02*
X179531009Y-95188095D01*
X179531009Y-95188095D02*
X179578628Y-95283333D01*
X179578628Y-95283333D02*
X179578628Y-95664285D01*
X179150057Y-94711904D02*
X179102438Y-94664285D01*
X179102438Y-94664285D02*
X179054819Y-94569047D01*
X179054819Y-94569047D02*
X179054819Y-94330952D01*
X179054819Y-94330952D02*
X179102438Y-94235714D01*
X179102438Y-94235714D02*
X179150057Y-94188095D01*
X179150057Y-94188095D02*
X179245295Y-94140476D01*
X179245295Y-94140476D02*
X179340533Y-94140476D01*
X179340533Y-94140476D02*
X179483390Y-94188095D01*
X179483390Y-94188095D02*
X180054819Y-94759523D01*
X180054819Y-94759523D02*
X180054819Y-94140476D01*
X179388152Y-93283333D02*
X180054819Y-93283333D01*
X179007200Y-93521428D02*
X179721485Y-93759523D01*
X179721485Y-93759523D02*
X179721485Y-93140476D01*
%TO.C,R7*%
X129754819Y-94891666D02*
X129278628Y-95224999D01*
X129754819Y-95463094D02*
X128754819Y-95463094D01*
X128754819Y-95463094D02*
X128754819Y-95082142D01*
X128754819Y-95082142D02*
X128802438Y-94986904D01*
X128802438Y-94986904D02*
X128850057Y-94939285D01*
X128850057Y-94939285D02*
X128945295Y-94891666D01*
X128945295Y-94891666D02*
X129088152Y-94891666D01*
X129088152Y-94891666D02*
X129183390Y-94939285D01*
X129183390Y-94939285D02*
X129231009Y-94986904D01*
X129231009Y-94986904D02*
X129278628Y-95082142D01*
X129278628Y-95082142D02*
X129278628Y-95463094D01*
X128754819Y-94558332D02*
X128754819Y-93891666D01*
X128754819Y-93891666D02*
X129754819Y-94320237D01*
%TO.C,R13*%
X150017319Y-90692857D02*
X149541128Y-91026190D01*
X150017319Y-91264285D02*
X149017319Y-91264285D01*
X149017319Y-91264285D02*
X149017319Y-90883333D01*
X149017319Y-90883333D02*
X149064938Y-90788095D01*
X149064938Y-90788095D02*
X149112557Y-90740476D01*
X149112557Y-90740476D02*
X149207795Y-90692857D01*
X149207795Y-90692857D02*
X149350652Y-90692857D01*
X149350652Y-90692857D02*
X149445890Y-90740476D01*
X149445890Y-90740476D02*
X149493509Y-90788095D01*
X149493509Y-90788095D02*
X149541128Y-90883333D01*
X149541128Y-90883333D02*
X149541128Y-91264285D01*
X150017319Y-89740476D02*
X150017319Y-90311904D01*
X150017319Y-90026190D02*
X149017319Y-90026190D01*
X149017319Y-90026190D02*
X149160176Y-90121428D01*
X149160176Y-90121428D02*
X149255414Y-90216666D01*
X149255414Y-90216666D02*
X149303033Y-90311904D01*
X149017319Y-89407142D02*
X149017319Y-88788095D01*
X149017319Y-88788095D02*
X149398271Y-89121428D01*
X149398271Y-89121428D02*
X149398271Y-88978571D01*
X149398271Y-88978571D02*
X149445890Y-88883333D01*
X149445890Y-88883333D02*
X149493509Y-88835714D01*
X149493509Y-88835714D02*
X149588747Y-88788095D01*
X149588747Y-88788095D02*
X149826842Y-88788095D01*
X149826842Y-88788095D02*
X149922080Y-88835714D01*
X149922080Y-88835714D02*
X149969700Y-88883333D01*
X149969700Y-88883333D02*
X150017319Y-88978571D01*
X150017319Y-88978571D02*
X150017319Y-89264285D01*
X150017319Y-89264285D02*
X149969700Y-89359523D01*
X149969700Y-89359523D02*
X149922080Y-89407142D01*
%TO.C,D1*%
X85449405Y-78457319D02*
X85449405Y-77457319D01*
X85449405Y-77457319D02*
X85687500Y-77457319D01*
X85687500Y-77457319D02*
X85830357Y-77504938D01*
X85830357Y-77504938D02*
X85925595Y-77600176D01*
X85925595Y-77600176D02*
X85973214Y-77695414D01*
X85973214Y-77695414D02*
X86020833Y-77885890D01*
X86020833Y-77885890D02*
X86020833Y-78028747D01*
X86020833Y-78028747D02*
X85973214Y-78219223D01*
X85973214Y-78219223D02*
X85925595Y-78314461D01*
X85925595Y-78314461D02*
X85830357Y-78409700D01*
X85830357Y-78409700D02*
X85687500Y-78457319D01*
X85687500Y-78457319D02*
X85449405Y-78457319D01*
X86973214Y-78457319D02*
X86401786Y-78457319D01*
X86687500Y-78457319D02*
X86687500Y-77457319D01*
X86687500Y-77457319D02*
X86592262Y-77600176D01*
X86592262Y-77600176D02*
X86497024Y-77695414D01*
X86497024Y-77695414D02*
X86401786Y-77743033D01*
X88863220Y-76492680D02*
X88863220Y-77492680D01*
X88767982Y-76873633D02*
X88482268Y-76492680D01*
X88482268Y-77159347D02*
X88863220Y-76778395D01*
%TO.C,C18*%
X91723642Y-94517380D02*
X91676023Y-94565000D01*
X91676023Y-94565000D02*
X91533166Y-94612619D01*
X91533166Y-94612619D02*
X91437928Y-94612619D01*
X91437928Y-94612619D02*
X91295071Y-94565000D01*
X91295071Y-94565000D02*
X91199833Y-94469761D01*
X91199833Y-94469761D02*
X91152214Y-94374523D01*
X91152214Y-94374523D02*
X91104595Y-94184047D01*
X91104595Y-94184047D02*
X91104595Y-94041190D01*
X91104595Y-94041190D02*
X91152214Y-93850714D01*
X91152214Y-93850714D02*
X91199833Y-93755476D01*
X91199833Y-93755476D02*
X91295071Y-93660238D01*
X91295071Y-93660238D02*
X91437928Y-93612619D01*
X91437928Y-93612619D02*
X91533166Y-93612619D01*
X91533166Y-93612619D02*
X91676023Y-93660238D01*
X91676023Y-93660238D02*
X91723642Y-93707857D01*
X92676023Y-94612619D02*
X92104595Y-94612619D01*
X92390309Y-94612619D02*
X92390309Y-93612619D01*
X92390309Y-93612619D02*
X92295071Y-93755476D01*
X92295071Y-93755476D02*
X92199833Y-93850714D01*
X92199833Y-93850714D02*
X92104595Y-93898333D01*
X93247452Y-94041190D02*
X93152214Y-93993571D01*
X93152214Y-93993571D02*
X93104595Y-93945952D01*
X93104595Y-93945952D02*
X93056976Y-93850714D01*
X93056976Y-93850714D02*
X93056976Y-93803095D01*
X93056976Y-93803095D02*
X93104595Y-93707857D01*
X93104595Y-93707857D02*
X93152214Y-93660238D01*
X93152214Y-93660238D02*
X93247452Y-93612619D01*
X93247452Y-93612619D02*
X93437928Y-93612619D01*
X93437928Y-93612619D02*
X93533166Y-93660238D01*
X93533166Y-93660238D02*
X93580785Y-93707857D01*
X93580785Y-93707857D02*
X93628404Y-93803095D01*
X93628404Y-93803095D02*
X93628404Y-93850714D01*
X93628404Y-93850714D02*
X93580785Y-93945952D01*
X93580785Y-93945952D02*
X93533166Y-93993571D01*
X93533166Y-93993571D02*
X93437928Y-94041190D01*
X93437928Y-94041190D02*
X93247452Y-94041190D01*
X93247452Y-94041190D02*
X93152214Y-94088809D01*
X93152214Y-94088809D02*
X93104595Y-94136428D01*
X93104595Y-94136428D02*
X93056976Y-94231666D01*
X93056976Y-94231666D02*
X93056976Y-94422142D01*
X93056976Y-94422142D02*
X93104595Y-94517380D01*
X93104595Y-94517380D02*
X93152214Y-94565000D01*
X93152214Y-94565000D02*
X93247452Y-94612619D01*
X93247452Y-94612619D02*
X93437928Y-94612619D01*
X93437928Y-94612619D02*
X93533166Y-94565000D01*
X93533166Y-94565000D02*
X93580785Y-94517380D01*
X93580785Y-94517380D02*
X93628404Y-94422142D01*
X93628404Y-94422142D02*
X93628404Y-94231666D01*
X93628404Y-94231666D02*
X93580785Y-94136428D01*
X93580785Y-94136428D02*
X93533166Y-94088809D01*
X93533166Y-94088809D02*
X93437928Y-94041190D01*
%TO.C,J11*%
X135954419Y-84248523D02*
X136668704Y-84248523D01*
X136668704Y-84248523D02*
X136811561Y-84296142D01*
X136811561Y-84296142D02*
X136906800Y-84391380D01*
X136906800Y-84391380D02*
X136954419Y-84534237D01*
X136954419Y-84534237D02*
X136954419Y-84629475D01*
X136954419Y-83248523D02*
X136954419Y-83819951D01*
X136954419Y-83534237D02*
X135954419Y-83534237D01*
X135954419Y-83534237D02*
X136097276Y-83629475D01*
X136097276Y-83629475D02*
X136192514Y-83724713D01*
X136192514Y-83724713D02*
X136240133Y-83819951D01*
X136954419Y-82296142D02*
X136954419Y-82867570D01*
X136954419Y-82581856D02*
X135954419Y-82581856D01*
X135954419Y-82581856D02*
X136097276Y-82677094D01*
X136097276Y-82677094D02*
X136192514Y-82772332D01*
X136192514Y-82772332D02*
X136240133Y-82867570D01*
%TO.C,R40*%
X115357142Y-99779819D02*
X115023809Y-99303628D01*
X114785714Y-99779819D02*
X114785714Y-98779819D01*
X114785714Y-98779819D02*
X115166666Y-98779819D01*
X115166666Y-98779819D02*
X115261904Y-98827438D01*
X115261904Y-98827438D02*
X115309523Y-98875057D01*
X115309523Y-98875057D02*
X115357142Y-98970295D01*
X115357142Y-98970295D02*
X115357142Y-99113152D01*
X115357142Y-99113152D02*
X115309523Y-99208390D01*
X115309523Y-99208390D02*
X115261904Y-99256009D01*
X115261904Y-99256009D02*
X115166666Y-99303628D01*
X115166666Y-99303628D02*
X114785714Y-99303628D01*
X116214285Y-99113152D02*
X116214285Y-99779819D01*
X115976190Y-98732200D02*
X115738095Y-99446485D01*
X115738095Y-99446485D02*
X116357142Y-99446485D01*
X116928571Y-98779819D02*
X117023809Y-98779819D01*
X117023809Y-98779819D02*
X117119047Y-98827438D01*
X117119047Y-98827438D02*
X117166666Y-98875057D01*
X117166666Y-98875057D02*
X117214285Y-98970295D01*
X117214285Y-98970295D02*
X117261904Y-99160771D01*
X117261904Y-99160771D02*
X117261904Y-99398866D01*
X117261904Y-99398866D02*
X117214285Y-99589342D01*
X117214285Y-99589342D02*
X117166666Y-99684580D01*
X117166666Y-99684580D02*
X117119047Y-99732200D01*
X117119047Y-99732200D02*
X117023809Y-99779819D01*
X117023809Y-99779819D02*
X116928571Y-99779819D01*
X116928571Y-99779819D02*
X116833333Y-99732200D01*
X116833333Y-99732200D02*
X116785714Y-99684580D01*
X116785714Y-99684580D02*
X116738095Y-99589342D01*
X116738095Y-99589342D02*
X116690476Y-99398866D01*
X116690476Y-99398866D02*
X116690476Y-99160771D01*
X116690476Y-99160771D02*
X116738095Y-98970295D01*
X116738095Y-98970295D02*
X116785714Y-98875057D01*
X116785714Y-98875057D02*
X116833333Y-98827438D01*
X116833333Y-98827438D02*
X116928571Y-98779819D01*
%TO.C,R51*%
X94392319Y-96842857D02*
X93916128Y-97176190D01*
X94392319Y-97414285D02*
X93392319Y-97414285D01*
X93392319Y-97414285D02*
X93392319Y-97033333D01*
X93392319Y-97033333D02*
X93439938Y-96938095D01*
X93439938Y-96938095D02*
X93487557Y-96890476D01*
X93487557Y-96890476D02*
X93582795Y-96842857D01*
X93582795Y-96842857D02*
X93725652Y-96842857D01*
X93725652Y-96842857D02*
X93820890Y-96890476D01*
X93820890Y-96890476D02*
X93868509Y-96938095D01*
X93868509Y-96938095D02*
X93916128Y-97033333D01*
X93916128Y-97033333D02*
X93916128Y-97414285D01*
X93392319Y-95938095D02*
X93392319Y-96414285D01*
X93392319Y-96414285D02*
X93868509Y-96461904D01*
X93868509Y-96461904D02*
X93820890Y-96414285D01*
X93820890Y-96414285D02*
X93773271Y-96319047D01*
X93773271Y-96319047D02*
X93773271Y-96080952D01*
X93773271Y-96080952D02*
X93820890Y-95985714D01*
X93820890Y-95985714D02*
X93868509Y-95938095D01*
X93868509Y-95938095D02*
X93963747Y-95890476D01*
X93963747Y-95890476D02*
X94201842Y-95890476D01*
X94201842Y-95890476D02*
X94297080Y-95938095D01*
X94297080Y-95938095D02*
X94344700Y-95985714D01*
X94344700Y-95985714D02*
X94392319Y-96080952D01*
X94392319Y-96080952D02*
X94392319Y-96319047D01*
X94392319Y-96319047D02*
X94344700Y-96414285D01*
X94344700Y-96414285D02*
X94297080Y-96461904D01*
X94392319Y-94938095D02*
X94392319Y-95509523D01*
X94392319Y-95223809D02*
X93392319Y-95223809D01*
X93392319Y-95223809D02*
X93535176Y-95319047D01*
X93535176Y-95319047D02*
X93630414Y-95414285D01*
X93630414Y-95414285D02*
X93678033Y-95509523D01*
%TO.C,R50*%
X97869642Y-97254819D02*
X97536309Y-96778628D01*
X97298214Y-97254819D02*
X97298214Y-96254819D01*
X97298214Y-96254819D02*
X97679166Y-96254819D01*
X97679166Y-96254819D02*
X97774404Y-96302438D01*
X97774404Y-96302438D02*
X97822023Y-96350057D01*
X97822023Y-96350057D02*
X97869642Y-96445295D01*
X97869642Y-96445295D02*
X97869642Y-96588152D01*
X97869642Y-96588152D02*
X97822023Y-96683390D01*
X97822023Y-96683390D02*
X97774404Y-96731009D01*
X97774404Y-96731009D02*
X97679166Y-96778628D01*
X97679166Y-96778628D02*
X97298214Y-96778628D01*
X98774404Y-96254819D02*
X98298214Y-96254819D01*
X98298214Y-96254819D02*
X98250595Y-96731009D01*
X98250595Y-96731009D02*
X98298214Y-96683390D01*
X98298214Y-96683390D02*
X98393452Y-96635771D01*
X98393452Y-96635771D02*
X98631547Y-96635771D01*
X98631547Y-96635771D02*
X98726785Y-96683390D01*
X98726785Y-96683390D02*
X98774404Y-96731009D01*
X98774404Y-96731009D02*
X98822023Y-96826247D01*
X98822023Y-96826247D02*
X98822023Y-97064342D01*
X98822023Y-97064342D02*
X98774404Y-97159580D01*
X98774404Y-97159580D02*
X98726785Y-97207200D01*
X98726785Y-97207200D02*
X98631547Y-97254819D01*
X98631547Y-97254819D02*
X98393452Y-97254819D01*
X98393452Y-97254819D02*
X98298214Y-97207200D01*
X98298214Y-97207200D02*
X98250595Y-97159580D01*
X99441071Y-96254819D02*
X99536309Y-96254819D01*
X99536309Y-96254819D02*
X99631547Y-96302438D01*
X99631547Y-96302438D02*
X99679166Y-96350057D01*
X99679166Y-96350057D02*
X99726785Y-96445295D01*
X99726785Y-96445295D02*
X99774404Y-96635771D01*
X99774404Y-96635771D02*
X99774404Y-96873866D01*
X99774404Y-96873866D02*
X99726785Y-97064342D01*
X99726785Y-97064342D02*
X99679166Y-97159580D01*
X99679166Y-97159580D02*
X99631547Y-97207200D01*
X99631547Y-97207200D02*
X99536309Y-97254819D01*
X99536309Y-97254819D02*
X99441071Y-97254819D01*
X99441071Y-97254819D02*
X99345833Y-97207200D01*
X99345833Y-97207200D02*
X99298214Y-97159580D01*
X99298214Y-97159580D02*
X99250595Y-97064342D01*
X99250595Y-97064342D02*
X99202976Y-96873866D01*
X99202976Y-96873866D02*
X99202976Y-96635771D01*
X99202976Y-96635771D02*
X99250595Y-96445295D01*
X99250595Y-96445295D02*
X99298214Y-96350057D01*
X99298214Y-96350057D02*
X99345833Y-96302438D01*
X99345833Y-96302438D02*
X99441071Y-96254819D01*
%TO.C,C3*%
X90597080Y-90179166D02*
X90644700Y-90226785D01*
X90644700Y-90226785D02*
X90692319Y-90369642D01*
X90692319Y-90369642D02*
X90692319Y-90464880D01*
X90692319Y-90464880D02*
X90644700Y-90607737D01*
X90644700Y-90607737D02*
X90549461Y-90702975D01*
X90549461Y-90702975D02*
X90454223Y-90750594D01*
X90454223Y-90750594D02*
X90263747Y-90798213D01*
X90263747Y-90798213D02*
X90120890Y-90798213D01*
X90120890Y-90798213D02*
X89930414Y-90750594D01*
X89930414Y-90750594D02*
X89835176Y-90702975D01*
X89835176Y-90702975D02*
X89739938Y-90607737D01*
X89739938Y-90607737D02*
X89692319Y-90464880D01*
X89692319Y-90464880D02*
X89692319Y-90369642D01*
X89692319Y-90369642D02*
X89739938Y-90226785D01*
X89739938Y-90226785D02*
X89787557Y-90179166D01*
X89692319Y-89845832D02*
X89692319Y-89226785D01*
X89692319Y-89226785D02*
X90073271Y-89560118D01*
X90073271Y-89560118D02*
X90073271Y-89417261D01*
X90073271Y-89417261D02*
X90120890Y-89322023D01*
X90120890Y-89322023D02*
X90168509Y-89274404D01*
X90168509Y-89274404D02*
X90263747Y-89226785D01*
X90263747Y-89226785D02*
X90501842Y-89226785D01*
X90501842Y-89226785D02*
X90597080Y-89274404D01*
X90597080Y-89274404D02*
X90644700Y-89322023D01*
X90644700Y-89322023D02*
X90692319Y-89417261D01*
X90692319Y-89417261D02*
X90692319Y-89702975D01*
X90692319Y-89702975D02*
X90644700Y-89798213D01*
X90644700Y-89798213D02*
X90597080Y-89845832D01*
%TO.C,C2*%
X79922080Y-88541666D02*
X79969700Y-88589285D01*
X79969700Y-88589285D02*
X80017319Y-88732142D01*
X80017319Y-88732142D02*
X80017319Y-88827380D01*
X80017319Y-88827380D02*
X79969700Y-88970237D01*
X79969700Y-88970237D02*
X79874461Y-89065475D01*
X79874461Y-89065475D02*
X79779223Y-89113094D01*
X79779223Y-89113094D02*
X79588747Y-89160713D01*
X79588747Y-89160713D02*
X79445890Y-89160713D01*
X79445890Y-89160713D02*
X79255414Y-89113094D01*
X79255414Y-89113094D02*
X79160176Y-89065475D01*
X79160176Y-89065475D02*
X79064938Y-88970237D01*
X79064938Y-88970237D02*
X79017319Y-88827380D01*
X79017319Y-88827380D02*
X79017319Y-88732142D01*
X79017319Y-88732142D02*
X79064938Y-88589285D01*
X79064938Y-88589285D02*
X79112557Y-88541666D01*
X79112557Y-88160713D02*
X79064938Y-88113094D01*
X79064938Y-88113094D02*
X79017319Y-88017856D01*
X79017319Y-88017856D02*
X79017319Y-87779761D01*
X79017319Y-87779761D02*
X79064938Y-87684523D01*
X79064938Y-87684523D02*
X79112557Y-87636904D01*
X79112557Y-87636904D02*
X79207795Y-87589285D01*
X79207795Y-87589285D02*
X79303033Y-87589285D01*
X79303033Y-87589285D02*
X79445890Y-87636904D01*
X79445890Y-87636904D02*
X80017319Y-88208332D01*
X80017319Y-88208332D02*
X80017319Y-87589285D01*
%TO.C,R20*%
X171754819Y-90680357D02*
X171278628Y-91013690D01*
X171754819Y-91251785D02*
X170754819Y-91251785D01*
X170754819Y-91251785D02*
X170754819Y-90870833D01*
X170754819Y-90870833D02*
X170802438Y-90775595D01*
X170802438Y-90775595D02*
X170850057Y-90727976D01*
X170850057Y-90727976D02*
X170945295Y-90680357D01*
X170945295Y-90680357D02*
X171088152Y-90680357D01*
X171088152Y-90680357D02*
X171183390Y-90727976D01*
X171183390Y-90727976D02*
X171231009Y-90775595D01*
X171231009Y-90775595D02*
X171278628Y-90870833D01*
X171278628Y-90870833D02*
X171278628Y-91251785D01*
X170850057Y-90299404D02*
X170802438Y-90251785D01*
X170802438Y-90251785D02*
X170754819Y-90156547D01*
X170754819Y-90156547D02*
X170754819Y-89918452D01*
X170754819Y-89918452D02*
X170802438Y-89823214D01*
X170802438Y-89823214D02*
X170850057Y-89775595D01*
X170850057Y-89775595D02*
X170945295Y-89727976D01*
X170945295Y-89727976D02*
X171040533Y-89727976D01*
X171040533Y-89727976D02*
X171183390Y-89775595D01*
X171183390Y-89775595D02*
X171754819Y-90347023D01*
X171754819Y-90347023D02*
X171754819Y-89727976D01*
X170754819Y-89108928D02*
X170754819Y-89013690D01*
X170754819Y-89013690D02*
X170802438Y-88918452D01*
X170802438Y-88918452D02*
X170850057Y-88870833D01*
X170850057Y-88870833D02*
X170945295Y-88823214D01*
X170945295Y-88823214D02*
X171135771Y-88775595D01*
X171135771Y-88775595D02*
X171373866Y-88775595D01*
X171373866Y-88775595D02*
X171564342Y-88823214D01*
X171564342Y-88823214D02*
X171659580Y-88870833D01*
X171659580Y-88870833D02*
X171707200Y-88918452D01*
X171707200Y-88918452D02*
X171754819Y-89013690D01*
X171754819Y-89013690D02*
X171754819Y-89108928D01*
X171754819Y-89108928D02*
X171707200Y-89204166D01*
X171707200Y-89204166D02*
X171659580Y-89251785D01*
X171659580Y-89251785D02*
X171564342Y-89299404D01*
X171564342Y-89299404D02*
X171373866Y-89347023D01*
X171373866Y-89347023D02*
X171135771Y-89347023D01*
X171135771Y-89347023D02*
X170945295Y-89299404D01*
X170945295Y-89299404D02*
X170850057Y-89251785D01*
X170850057Y-89251785D02*
X170802438Y-89204166D01*
X170802438Y-89204166D02*
X170754819Y-89108928D01*
D12*
%TO.C,IC25*%
X117242619Y-95656663D02*
X117242619Y-94656663D01*
X118290237Y-95561424D02*
X118242618Y-95609044D01*
X118242618Y-95609044D02*
X118099761Y-95656663D01*
X118099761Y-95656663D02*
X118004523Y-95656663D01*
X118004523Y-95656663D02*
X117861666Y-95609044D01*
X117861666Y-95609044D02*
X117766428Y-95513805D01*
X117766428Y-95513805D02*
X117718809Y-95418567D01*
X117718809Y-95418567D02*
X117671190Y-95228091D01*
X117671190Y-95228091D02*
X117671190Y-95085234D01*
X117671190Y-95085234D02*
X117718809Y-94894758D01*
X117718809Y-94894758D02*
X117766428Y-94799520D01*
X117766428Y-94799520D02*
X117861666Y-94704282D01*
X117861666Y-94704282D02*
X118004523Y-94656663D01*
X118004523Y-94656663D02*
X118099761Y-94656663D01*
X118099761Y-94656663D02*
X118242618Y-94704282D01*
X118242618Y-94704282D02*
X118290237Y-94751901D01*
X118671190Y-94751901D02*
X118718809Y-94704282D01*
X118718809Y-94704282D02*
X118814047Y-94656663D01*
X118814047Y-94656663D02*
X119052142Y-94656663D01*
X119052142Y-94656663D02*
X119147380Y-94704282D01*
X119147380Y-94704282D02*
X119194999Y-94751901D01*
X119194999Y-94751901D02*
X119242618Y-94847139D01*
X119242618Y-94847139D02*
X119242618Y-94942377D01*
X119242618Y-94942377D02*
X119194999Y-95085234D01*
X119194999Y-95085234D02*
X118623571Y-95656663D01*
X118623571Y-95656663D02*
X119242618Y-95656663D01*
X120147380Y-94656663D02*
X119671190Y-94656663D01*
X119671190Y-94656663D02*
X119623571Y-95132853D01*
X119623571Y-95132853D02*
X119671190Y-95085234D01*
X119671190Y-95085234D02*
X119766428Y-95037615D01*
X119766428Y-95037615D02*
X120004523Y-95037615D01*
X120004523Y-95037615D02*
X120099761Y-95085234D01*
X120099761Y-95085234D02*
X120147380Y-95132853D01*
X120147380Y-95132853D02*
X120194999Y-95228091D01*
X120194999Y-95228091D02*
X120194999Y-95466186D01*
X120194999Y-95466186D02*
X120147380Y-95561424D01*
X120147380Y-95561424D02*
X120099761Y-95609044D01*
X120099761Y-95609044D02*
X120004523Y-95656663D01*
X120004523Y-95656663D02*
X119766428Y-95656663D01*
X119766428Y-95656663D02*
X119671190Y-95609044D01*
X119671190Y-95609044D02*
X119623571Y-95561424D01*
D10*
%TO.C,C10*%
X82564342Y-82339580D02*
X82516723Y-82387200D01*
X82516723Y-82387200D02*
X82373866Y-82434819D01*
X82373866Y-82434819D02*
X82278628Y-82434819D01*
X82278628Y-82434819D02*
X82135771Y-82387200D01*
X82135771Y-82387200D02*
X82040533Y-82291961D01*
X82040533Y-82291961D02*
X81992914Y-82196723D01*
X81992914Y-82196723D02*
X81945295Y-82006247D01*
X81945295Y-82006247D02*
X81945295Y-81863390D01*
X81945295Y-81863390D02*
X81992914Y-81672914D01*
X81992914Y-81672914D02*
X82040533Y-81577676D01*
X82040533Y-81577676D02*
X82135771Y-81482438D01*
X82135771Y-81482438D02*
X82278628Y-81434819D01*
X82278628Y-81434819D02*
X82373866Y-81434819D01*
X82373866Y-81434819D02*
X82516723Y-81482438D01*
X82516723Y-81482438D02*
X82564342Y-81530057D01*
X83516723Y-82434819D02*
X82945295Y-82434819D01*
X83231009Y-82434819D02*
X83231009Y-81434819D01*
X83231009Y-81434819D02*
X83135771Y-81577676D01*
X83135771Y-81577676D02*
X83040533Y-81672914D01*
X83040533Y-81672914D02*
X82945295Y-81720533D01*
X84135771Y-81434819D02*
X84231009Y-81434819D01*
X84231009Y-81434819D02*
X84326247Y-81482438D01*
X84326247Y-81482438D02*
X84373866Y-81530057D01*
X84373866Y-81530057D02*
X84421485Y-81625295D01*
X84421485Y-81625295D02*
X84469104Y-81815771D01*
X84469104Y-81815771D02*
X84469104Y-82053866D01*
X84469104Y-82053866D02*
X84421485Y-82244342D01*
X84421485Y-82244342D02*
X84373866Y-82339580D01*
X84373866Y-82339580D02*
X84326247Y-82387200D01*
X84326247Y-82387200D02*
X84231009Y-82434819D01*
X84231009Y-82434819D02*
X84135771Y-82434819D01*
X84135771Y-82434819D02*
X84040533Y-82387200D01*
X84040533Y-82387200D02*
X83992914Y-82339580D01*
X83992914Y-82339580D02*
X83945295Y-82244342D01*
X83945295Y-82244342D02*
X83897676Y-82053866D01*
X83897676Y-82053866D02*
X83897676Y-81815771D01*
X83897676Y-81815771D02*
X83945295Y-81625295D01*
X83945295Y-81625295D02*
X83992914Y-81530057D01*
X83992914Y-81530057D02*
X84040533Y-81482438D01*
X84040533Y-81482438D02*
X84135771Y-81434819D01*
%TO.C,C13*%
X111357580Y-84005657D02*
X111405200Y-84053276D01*
X111405200Y-84053276D02*
X111452819Y-84196133D01*
X111452819Y-84196133D02*
X111452819Y-84291371D01*
X111452819Y-84291371D02*
X111405200Y-84434228D01*
X111405200Y-84434228D02*
X111309961Y-84529466D01*
X111309961Y-84529466D02*
X111214723Y-84577085D01*
X111214723Y-84577085D02*
X111024247Y-84624704D01*
X111024247Y-84624704D02*
X110881390Y-84624704D01*
X110881390Y-84624704D02*
X110690914Y-84577085D01*
X110690914Y-84577085D02*
X110595676Y-84529466D01*
X110595676Y-84529466D02*
X110500438Y-84434228D01*
X110500438Y-84434228D02*
X110452819Y-84291371D01*
X110452819Y-84291371D02*
X110452819Y-84196133D01*
X110452819Y-84196133D02*
X110500438Y-84053276D01*
X110500438Y-84053276D02*
X110548057Y-84005657D01*
X111452819Y-83053276D02*
X111452819Y-83624704D01*
X111452819Y-83338990D02*
X110452819Y-83338990D01*
X110452819Y-83338990D02*
X110595676Y-83434228D01*
X110595676Y-83434228D02*
X110690914Y-83529466D01*
X110690914Y-83529466D02*
X110738533Y-83624704D01*
X110452819Y-82719942D02*
X110452819Y-82100895D01*
X110452819Y-82100895D02*
X110833771Y-82434228D01*
X110833771Y-82434228D02*
X110833771Y-82291371D01*
X110833771Y-82291371D02*
X110881390Y-82196133D01*
X110881390Y-82196133D02*
X110929009Y-82148514D01*
X110929009Y-82148514D02*
X111024247Y-82100895D01*
X111024247Y-82100895D02*
X111262342Y-82100895D01*
X111262342Y-82100895D02*
X111357580Y-82148514D01*
X111357580Y-82148514D02*
X111405200Y-82196133D01*
X111405200Y-82196133D02*
X111452819Y-82291371D01*
X111452819Y-82291371D02*
X111452819Y-82577085D01*
X111452819Y-82577085D02*
X111405200Y-82672323D01*
X111405200Y-82672323D02*
X111357580Y-82719942D01*
%TO.C,U5*%
X174102119Y-94532704D02*
X174911642Y-94532704D01*
X174911642Y-94532704D02*
X175006880Y-94485085D01*
X175006880Y-94485085D02*
X175054500Y-94437466D01*
X175054500Y-94437466D02*
X175102119Y-94342228D01*
X175102119Y-94342228D02*
X175102119Y-94151752D01*
X175102119Y-94151752D02*
X175054500Y-94056514D01*
X175054500Y-94056514D02*
X175006880Y-94008895D01*
X175006880Y-94008895D02*
X174911642Y-93961276D01*
X174911642Y-93961276D02*
X174102119Y-93961276D01*
X174102119Y-93008895D02*
X174102119Y-93485085D01*
X174102119Y-93485085D02*
X174578309Y-93532704D01*
X174578309Y-93532704D02*
X174530690Y-93485085D01*
X174530690Y-93485085D02*
X174483071Y-93389847D01*
X174483071Y-93389847D02*
X174483071Y-93151752D01*
X174483071Y-93151752D02*
X174530690Y-93056514D01*
X174530690Y-93056514D02*
X174578309Y-93008895D01*
X174578309Y-93008895D02*
X174673547Y-92961276D01*
X174673547Y-92961276D02*
X174911642Y-92961276D01*
X174911642Y-92961276D02*
X175006880Y-93008895D01*
X175006880Y-93008895D02*
X175054500Y-93056514D01*
X175054500Y-93056514D02*
X175102119Y-93151752D01*
X175102119Y-93151752D02*
X175102119Y-93389847D01*
X175102119Y-93389847D02*
X175054500Y-93485085D01*
X175054500Y-93485085D02*
X175006880Y-93532704D01*
%TO.C,R4*%
X131029819Y-90466666D02*
X130553628Y-90799999D01*
X131029819Y-91038094D02*
X130029819Y-91038094D01*
X130029819Y-91038094D02*
X130029819Y-90657142D01*
X130029819Y-90657142D02*
X130077438Y-90561904D01*
X130077438Y-90561904D02*
X130125057Y-90514285D01*
X130125057Y-90514285D02*
X130220295Y-90466666D01*
X130220295Y-90466666D02*
X130363152Y-90466666D01*
X130363152Y-90466666D02*
X130458390Y-90514285D01*
X130458390Y-90514285D02*
X130506009Y-90561904D01*
X130506009Y-90561904D02*
X130553628Y-90657142D01*
X130553628Y-90657142D02*
X130553628Y-91038094D01*
X130363152Y-89609523D02*
X131029819Y-89609523D01*
X129982200Y-89847618D02*
X130696485Y-90085713D01*
X130696485Y-90085713D02*
X130696485Y-89466666D01*
%TO.C,J3*%
X108314819Y-83833333D02*
X109029104Y-83833333D01*
X109029104Y-83833333D02*
X109171961Y-83880952D01*
X109171961Y-83880952D02*
X109267200Y-83976190D01*
X109267200Y-83976190D02*
X109314819Y-84119047D01*
X109314819Y-84119047D02*
X109314819Y-84214285D01*
X108314819Y-83452380D02*
X108314819Y-82833333D01*
X108314819Y-82833333D02*
X108695771Y-83166666D01*
X108695771Y-83166666D02*
X108695771Y-83023809D01*
X108695771Y-83023809D02*
X108743390Y-82928571D01*
X108743390Y-82928571D02*
X108791009Y-82880952D01*
X108791009Y-82880952D02*
X108886247Y-82833333D01*
X108886247Y-82833333D02*
X109124342Y-82833333D01*
X109124342Y-82833333D02*
X109219580Y-82880952D01*
X109219580Y-82880952D02*
X109267200Y-82928571D01*
X109267200Y-82928571D02*
X109314819Y-83023809D01*
X109314819Y-83023809D02*
X109314819Y-83309523D01*
X109314819Y-83309523D02*
X109267200Y-83404761D01*
X109267200Y-83404761D02*
X109219580Y-83452380D01*
D12*
%TO.C,Q4*%
X107803961Y-100651301D02*
X107708723Y-100603682D01*
X107708723Y-100603682D02*
X107613485Y-100508444D01*
X107613485Y-100508444D02*
X107470628Y-100365586D01*
X107470628Y-100365586D02*
X107375390Y-100317967D01*
X107375390Y-100317967D02*
X107280152Y-100317967D01*
X107327771Y-100556063D02*
X107232533Y-100508444D01*
X107232533Y-100508444D02*
X107137295Y-100413205D01*
X107137295Y-100413205D02*
X107089676Y-100222729D01*
X107089676Y-100222729D02*
X107089676Y-99889396D01*
X107089676Y-99889396D02*
X107137295Y-99698920D01*
X107137295Y-99698920D02*
X107232533Y-99603682D01*
X107232533Y-99603682D02*
X107327771Y-99556063D01*
X107327771Y-99556063D02*
X107518247Y-99556063D01*
X107518247Y-99556063D02*
X107613485Y-99603682D01*
X107613485Y-99603682D02*
X107708723Y-99698920D01*
X107708723Y-99698920D02*
X107756342Y-99889396D01*
X107756342Y-99889396D02*
X107756342Y-100222729D01*
X107756342Y-100222729D02*
X107708723Y-100413205D01*
X107708723Y-100413205D02*
X107613485Y-100508444D01*
X107613485Y-100508444D02*
X107518247Y-100556063D01*
X107518247Y-100556063D02*
X107327771Y-100556063D01*
X108613485Y-99889396D02*
X108613485Y-100556063D01*
X108375390Y-99508444D02*
X108137295Y-100222729D01*
X108137295Y-100222729D02*
X108756342Y-100222729D01*
D10*
%TO.C,R8*%
X139354819Y-94916666D02*
X138878628Y-95249999D01*
X139354819Y-95488094D02*
X138354819Y-95488094D01*
X138354819Y-95488094D02*
X138354819Y-95107142D01*
X138354819Y-95107142D02*
X138402438Y-95011904D01*
X138402438Y-95011904D02*
X138450057Y-94964285D01*
X138450057Y-94964285D02*
X138545295Y-94916666D01*
X138545295Y-94916666D02*
X138688152Y-94916666D01*
X138688152Y-94916666D02*
X138783390Y-94964285D01*
X138783390Y-94964285D02*
X138831009Y-95011904D01*
X138831009Y-95011904D02*
X138878628Y-95107142D01*
X138878628Y-95107142D02*
X138878628Y-95488094D01*
X138783390Y-94345237D02*
X138735771Y-94440475D01*
X138735771Y-94440475D02*
X138688152Y-94488094D01*
X138688152Y-94488094D02*
X138592914Y-94535713D01*
X138592914Y-94535713D02*
X138545295Y-94535713D01*
X138545295Y-94535713D02*
X138450057Y-94488094D01*
X138450057Y-94488094D02*
X138402438Y-94440475D01*
X138402438Y-94440475D02*
X138354819Y-94345237D01*
X138354819Y-94345237D02*
X138354819Y-94154761D01*
X138354819Y-94154761D02*
X138402438Y-94059523D01*
X138402438Y-94059523D02*
X138450057Y-94011904D01*
X138450057Y-94011904D02*
X138545295Y-93964285D01*
X138545295Y-93964285D02*
X138592914Y-93964285D01*
X138592914Y-93964285D02*
X138688152Y-94011904D01*
X138688152Y-94011904D02*
X138735771Y-94059523D01*
X138735771Y-94059523D02*
X138783390Y-94154761D01*
X138783390Y-94154761D02*
X138783390Y-94345237D01*
X138783390Y-94345237D02*
X138831009Y-94440475D01*
X138831009Y-94440475D02*
X138878628Y-94488094D01*
X138878628Y-94488094D02*
X138973866Y-94535713D01*
X138973866Y-94535713D02*
X139164342Y-94535713D01*
X139164342Y-94535713D02*
X139259580Y-94488094D01*
X139259580Y-94488094D02*
X139307200Y-94440475D01*
X139307200Y-94440475D02*
X139354819Y-94345237D01*
X139354819Y-94345237D02*
X139354819Y-94154761D01*
X139354819Y-94154761D02*
X139307200Y-94059523D01*
X139307200Y-94059523D02*
X139259580Y-94011904D01*
X139259580Y-94011904D02*
X139164342Y-93964285D01*
X139164342Y-93964285D02*
X138973866Y-93964285D01*
X138973866Y-93964285D02*
X138878628Y-94011904D01*
X138878628Y-94011904D02*
X138831009Y-94059523D01*
X138831009Y-94059523D02*
X138783390Y-94154761D01*
%TO.C,J8*%
X140585866Y-100242019D02*
X140585866Y-100956304D01*
X140585866Y-100956304D02*
X140538247Y-101099161D01*
X140538247Y-101099161D02*
X140443009Y-101194400D01*
X140443009Y-101194400D02*
X140300152Y-101242019D01*
X140300152Y-101242019D02*
X140204914Y-101242019D01*
X141204914Y-100670590D02*
X141109676Y-100622971D01*
X141109676Y-100622971D02*
X141062057Y-100575352D01*
X141062057Y-100575352D02*
X141014438Y-100480114D01*
X141014438Y-100480114D02*
X141014438Y-100432495D01*
X141014438Y-100432495D02*
X141062057Y-100337257D01*
X141062057Y-100337257D02*
X141109676Y-100289638D01*
X141109676Y-100289638D02*
X141204914Y-100242019D01*
X141204914Y-100242019D02*
X141395390Y-100242019D01*
X141395390Y-100242019D02*
X141490628Y-100289638D01*
X141490628Y-100289638D02*
X141538247Y-100337257D01*
X141538247Y-100337257D02*
X141585866Y-100432495D01*
X141585866Y-100432495D02*
X141585866Y-100480114D01*
X141585866Y-100480114D02*
X141538247Y-100575352D01*
X141538247Y-100575352D02*
X141490628Y-100622971D01*
X141490628Y-100622971D02*
X141395390Y-100670590D01*
X141395390Y-100670590D02*
X141204914Y-100670590D01*
X141204914Y-100670590D02*
X141109676Y-100718209D01*
X141109676Y-100718209D02*
X141062057Y-100765828D01*
X141062057Y-100765828D02*
X141014438Y-100861066D01*
X141014438Y-100861066D02*
X141014438Y-101051542D01*
X141014438Y-101051542D02*
X141062057Y-101146780D01*
X141062057Y-101146780D02*
X141109676Y-101194400D01*
X141109676Y-101194400D02*
X141204914Y-101242019D01*
X141204914Y-101242019D02*
X141395390Y-101242019D01*
X141395390Y-101242019D02*
X141490628Y-101194400D01*
X141490628Y-101194400D02*
X141538247Y-101146780D01*
X141538247Y-101146780D02*
X141585866Y-101051542D01*
X141585866Y-101051542D02*
X141585866Y-100861066D01*
X141585866Y-100861066D02*
X141538247Y-100765828D01*
X141538247Y-100765828D02*
X141490628Y-100718209D01*
X141490628Y-100718209D02*
X141395390Y-100670590D01*
%TO.C,U4*%
X153807519Y-94507304D02*
X154617042Y-94507304D01*
X154617042Y-94507304D02*
X154712280Y-94459685D01*
X154712280Y-94459685D02*
X154759900Y-94412066D01*
X154759900Y-94412066D02*
X154807519Y-94316828D01*
X154807519Y-94316828D02*
X154807519Y-94126352D01*
X154807519Y-94126352D02*
X154759900Y-94031114D01*
X154759900Y-94031114D02*
X154712280Y-93983495D01*
X154712280Y-93983495D02*
X154617042Y-93935876D01*
X154617042Y-93935876D02*
X153807519Y-93935876D01*
X154140852Y-93031114D02*
X154807519Y-93031114D01*
X153759900Y-93269209D02*
X154474185Y-93507304D01*
X154474185Y-93507304D02*
X154474185Y-92888257D01*
%TO.C,R30*%
X85548342Y-91991419D02*
X85215009Y-91515228D01*
X84976914Y-91991419D02*
X84976914Y-90991419D01*
X84976914Y-90991419D02*
X85357866Y-90991419D01*
X85357866Y-90991419D02*
X85453104Y-91039038D01*
X85453104Y-91039038D02*
X85500723Y-91086657D01*
X85500723Y-91086657D02*
X85548342Y-91181895D01*
X85548342Y-91181895D02*
X85548342Y-91324752D01*
X85548342Y-91324752D02*
X85500723Y-91419990D01*
X85500723Y-91419990D02*
X85453104Y-91467609D01*
X85453104Y-91467609D02*
X85357866Y-91515228D01*
X85357866Y-91515228D02*
X84976914Y-91515228D01*
X85881676Y-90991419D02*
X86500723Y-90991419D01*
X86500723Y-90991419D02*
X86167390Y-91372371D01*
X86167390Y-91372371D02*
X86310247Y-91372371D01*
X86310247Y-91372371D02*
X86405485Y-91419990D01*
X86405485Y-91419990D02*
X86453104Y-91467609D01*
X86453104Y-91467609D02*
X86500723Y-91562847D01*
X86500723Y-91562847D02*
X86500723Y-91800942D01*
X86500723Y-91800942D02*
X86453104Y-91896180D01*
X86453104Y-91896180D02*
X86405485Y-91943800D01*
X86405485Y-91943800D02*
X86310247Y-91991419D01*
X86310247Y-91991419D02*
X86024533Y-91991419D01*
X86024533Y-91991419D02*
X85929295Y-91943800D01*
X85929295Y-91943800D02*
X85881676Y-91896180D01*
X87119771Y-90991419D02*
X87215009Y-90991419D01*
X87215009Y-90991419D02*
X87310247Y-91039038D01*
X87310247Y-91039038D02*
X87357866Y-91086657D01*
X87357866Y-91086657D02*
X87405485Y-91181895D01*
X87405485Y-91181895D02*
X87453104Y-91372371D01*
X87453104Y-91372371D02*
X87453104Y-91610466D01*
X87453104Y-91610466D02*
X87405485Y-91800942D01*
X87405485Y-91800942D02*
X87357866Y-91896180D01*
X87357866Y-91896180D02*
X87310247Y-91943800D01*
X87310247Y-91943800D02*
X87215009Y-91991419D01*
X87215009Y-91991419D02*
X87119771Y-91991419D01*
X87119771Y-91991419D02*
X87024533Y-91943800D01*
X87024533Y-91943800D02*
X86976914Y-91896180D01*
X86976914Y-91896180D02*
X86929295Y-91800942D01*
X86929295Y-91800942D02*
X86881676Y-91610466D01*
X86881676Y-91610466D02*
X86881676Y-91372371D01*
X86881676Y-91372371D02*
X86929295Y-91181895D01*
X86929295Y-91181895D02*
X86976914Y-91086657D01*
X86976914Y-91086657D02*
X87024533Y-91039038D01*
X87024533Y-91039038D02*
X87119771Y-90991419D01*
%TO.C,R27*%
X180004819Y-90680357D02*
X179528628Y-91013690D01*
X180004819Y-91251785D02*
X179004819Y-91251785D01*
X179004819Y-91251785D02*
X179004819Y-90870833D01*
X179004819Y-90870833D02*
X179052438Y-90775595D01*
X179052438Y-90775595D02*
X179100057Y-90727976D01*
X179100057Y-90727976D02*
X179195295Y-90680357D01*
X179195295Y-90680357D02*
X179338152Y-90680357D01*
X179338152Y-90680357D02*
X179433390Y-90727976D01*
X179433390Y-90727976D02*
X179481009Y-90775595D01*
X179481009Y-90775595D02*
X179528628Y-90870833D01*
X179528628Y-90870833D02*
X179528628Y-91251785D01*
X179100057Y-90299404D02*
X179052438Y-90251785D01*
X179052438Y-90251785D02*
X179004819Y-90156547D01*
X179004819Y-90156547D02*
X179004819Y-89918452D01*
X179004819Y-89918452D02*
X179052438Y-89823214D01*
X179052438Y-89823214D02*
X179100057Y-89775595D01*
X179100057Y-89775595D02*
X179195295Y-89727976D01*
X179195295Y-89727976D02*
X179290533Y-89727976D01*
X179290533Y-89727976D02*
X179433390Y-89775595D01*
X179433390Y-89775595D02*
X180004819Y-90347023D01*
X180004819Y-90347023D02*
X180004819Y-89727976D01*
X179004819Y-89394642D02*
X179004819Y-88727976D01*
X179004819Y-88727976D02*
X180004819Y-89156547D01*
%TO.C,C6*%
X88733533Y-93953880D02*
X88685914Y-94001500D01*
X88685914Y-94001500D02*
X88543057Y-94049119D01*
X88543057Y-94049119D02*
X88447819Y-94049119D01*
X88447819Y-94049119D02*
X88304962Y-94001500D01*
X88304962Y-94001500D02*
X88209724Y-93906261D01*
X88209724Y-93906261D02*
X88162105Y-93811023D01*
X88162105Y-93811023D02*
X88114486Y-93620547D01*
X88114486Y-93620547D02*
X88114486Y-93477690D01*
X88114486Y-93477690D02*
X88162105Y-93287214D01*
X88162105Y-93287214D02*
X88209724Y-93191976D01*
X88209724Y-93191976D02*
X88304962Y-93096738D01*
X88304962Y-93096738D02*
X88447819Y-93049119D01*
X88447819Y-93049119D02*
X88543057Y-93049119D01*
X88543057Y-93049119D02*
X88685914Y-93096738D01*
X88685914Y-93096738D02*
X88733533Y-93144357D01*
X89590676Y-93049119D02*
X89400200Y-93049119D01*
X89400200Y-93049119D02*
X89304962Y-93096738D01*
X89304962Y-93096738D02*
X89257343Y-93144357D01*
X89257343Y-93144357D02*
X89162105Y-93287214D01*
X89162105Y-93287214D02*
X89114486Y-93477690D01*
X89114486Y-93477690D02*
X89114486Y-93858642D01*
X89114486Y-93858642D02*
X89162105Y-93953880D01*
X89162105Y-93953880D02*
X89209724Y-94001500D01*
X89209724Y-94001500D02*
X89304962Y-94049119D01*
X89304962Y-94049119D02*
X89495438Y-94049119D01*
X89495438Y-94049119D02*
X89590676Y-94001500D01*
X89590676Y-94001500D02*
X89638295Y-93953880D01*
X89638295Y-93953880D02*
X89685914Y-93858642D01*
X89685914Y-93858642D02*
X89685914Y-93620547D01*
X89685914Y-93620547D02*
X89638295Y-93525309D01*
X89638295Y-93525309D02*
X89590676Y-93477690D01*
X89590676Y-93477690D02*
X89495438Y-93430071D01*
X89495438Y-93430071D02*
X89304962Y-93430071D01*
X89304962Y-93430071D02*
X89209724Y-93477690D01*
X89209724Y-93477690D02*
X89162105Y-93525309D01*
X89162105Y-93525309D02*
X89114486Y-93620547D01*
%TO.C,R14*%
X151454819Y-95055357D02*
X150978628Y-95388690D01*
X151454819Y-95626785D02*
X150454819Y-95626785D01*
X150454819Y-95626785D02*
X150454819Y-95245833D01*
X150454819Y-95245833D02*
X150502438Y-95150595D01*
X150502438Y-95150595D02*
X150550057Y-95102976D01*
X150550057Y-95102976D02*
X150645295Y-95055357D01*
X150645295Y-95055357D02*
X150788152Y-95055357D01*
X150788152Y-95055357D02*
X150883390Y-95102976D01*
X150883390Y-95102976D02*
X150931009Y-95150595D01*
X150931009Y-95150595D02*
X150978628Y-95245833D01*
X150978628Y-95245833D02*
X150978628Y-95626785D01*
X151454819Y-94102976D02*
X151454819Y-94674404D01*
X151454819Y-94388690D02*
X150454819Y-94388690D01*
X150454819Y-94388690D02*
X150597676Y-94483928D01*
X150597676Y-94483928D02*
X150692914Y-94579166D01*
X150692914Y-94579166D02*
X150740533Y-94674404D01*
X150788152Y-93245833D02*
X151454819Y-93245833D01*
X150407200Y-93483928D02*
X151121485Y-93722023D01*
X151121485Y-93722023D02*
X151121485Y-93102976D01*
%TO.C,R32*%
X85386942Y-83130819D02*
X85053609Y-82654628D01*
X84815514Y-83130819D02*
X84815514Y-82130819D01*
X84815514Y-82130819D02*
X85196466Y-82130819D01*
X85196466Y-82130819D02*
X85291704Y-82178438D01*
X85291704Y-82178438D02*
X85339323Y-82226057D01*
X85339323Y-82226057D02*
X85386942Y-82321295D01*
X85386942Y-82321295D02*
X85386942Y-82464152D01*
X85386942Y-82464152D02*
X85339323Y-82559390D01*
X85339323Y-82559390D02*
X85291704Y-82607009D01*
X85291704Y-82607009D02*
X85196466Y-82654628D01*
X85196466Y-82654628D02*
X84815514Y-82654628D01*
X85720276Y-82130819D02*
X86339323Y-82130819D01*
X86339323Y-82130819D02*
X86005990Y-82511771D01*
X86005990Y-82511771D02*
X86148847Y-82511771D01*
X86148847Y-82511771D02*
X86244085Y-82559390D01*
X86244085Y-82559390D02*
X86291704Y-82607009D01*
X86291704Y-82607009D02*
X86339323Y-82702247D01*
X86339323Y-82702247D02*
X86339323Y-82940342D01*
X86339323Y-82940342D02*
X86291704Y-83035580D01*
X86291704Y-83035580D02*
X86244085Y-83083200D01*
X86244085Y-83083200D02*
X86148847Y-83130819D01*
X86148847Y-83130819D02*
X85863133Y-83130819D01*
X85863133Y-83130819D02*
X85767895Y-83083200D01*
X85767895Y-83083200D02*
X85720276Y-83035580D01*
X86720276Y-82226057D02*
X86767895Y-82178438D01*
X86767895Y-82178438D02*
X86863133Y-82130819D01*
X86863133Y-82130819D02*
X87101228Y-82130819D01*
X87101228Y-82130819D02*
X87196466Y-82178438D01*
X87196466Y-82178438D02*
X87244085Y-82226057D01*
X87244085Y-82226057D02*
X87291704Y-82321295D01*
X87291704Y-82321295D02*
X87291704Y-82416533D01*
X87291704Y-82416533D02*
X87244085Y-82559390D01*
X87244085Y-82559390D02*
X86672657Y-83130819D01*
X86672657Y-83130819D02*
X87291704Y-83130819D01*
%TO.C,R43*%
X107792319Y-92255357D02*
X107316128Y-92588690D01*
X107792319Y-92826785D02*
X106792319Y-92826785D01*
X106792319Y-92826785D02*
X106792319Y-92445833D01*
X106792319Y-92445833D02*
X106839938Y-92350595D01*
X106839938Y-92350595D02*
X106887557Y-92302976D01*
X106887557Y-92302976D02*
X106982795Y-92255357D01*
X106982795Y-92255357D02*
X107125652Y-92255357D01*
X107125652Y-92255357D02*
X107220890Y-92302976D01*
X107220890Y-92302976D02*
X107268509Y-92350595D01*
X107268509Y-92350595D02*
X107316128Y-92445833D01*
X107316128Y-92445833D02*
X107316128Y-92826785D01*
X107125652Y-91398214D02*
X107792319Y-91398214D01*
X106744700Y-91636309D02*
X107458985Y-91874404D01*
X107458985Y-91874404D02*
X107458985Y-91255357D01*
X106792319Y-90969642D02*
X106792319Y-90350595D01*
X106792319Y-90350595D02*
X107173271Y-90683928D01*
X107173271Y-90683928D02*
X107173271Y-90541071D01*
X107173271Y-90541071D02*
X107220890Y-90445833D01*
X107220890Y-90445833D02*
X107268509Y-90398214D01*
X107268509Y-90398214D02*
X107363747Y-90350595D01*
X107363747Y-90350595D02*
X107601842Y-90350595D01*
X107601842Y-90350595D02*
X107697080Y-90398214D01*
X107697080Y-90398214D02*
X107744700Y-90445833D01*
X107744700Y-90445833D02*
X107792319Y-90541071D01*
X107792319Y-90541071D02*
X107792319Y-90826785D01*
X107792319Y-90826785D02*
X107744700Y-90922023D01*
X107744700Y-90922023D02*
X107697080Y-90969642D01*
%TO.C,C14*%
X98999880Y-99880657D02*
X99047500Y-99928276D01*
X99047500Y-99928276D02*
X99095119Y-100071133D01*
X99095119Y-100071133D02*
X99095119Y-100166371D01*
X99095119Y-100166371D02*
X99047500Y-100309228D01*
X99047500Y-100309228D02*
X98952261Y-100404466D01*
X98952261Y-100404466D02*
X98857023Y-100452085D01*
X98857023Y-100452085D02*
X98666547Y-100499704D01*
X98666547Y-100499704D02*
X98523690Y-100499704D01*
X98523690Y-100499704D02*
X98333214Y-100452085D01*
X98333214Y-100452085D02*
X98237976Y-100404466D01*
X98237976Y-100404466D02*
X98142738Y-100309228D01*
X98142738Y-100309228D02*
X98095119Y-100166371D01*
X98095119Y-100166371D02*
X98095119Y-100071133D01*
X98095119Y-100071133D02*
X98142738Y-99928276D01*
X98142738Y-99928276D02*
X98190357Y-99880657D01*
X99095119Y-98928276D02*
X99095119Y-99499704D01*
X99095119Y-99213990D02*
X98095119Y-99213990D01*
X98095119Y-99213990D02*
X98237976Y-99309228D01*
X98237976Y-99309228D02*
X98333214Y-99404466D01*
X98333214Y-99404466D02*
X98380833Y-99499704D01*
X98428452Y-98071133D02*
X99095119Y-98071133D01*
X98047500Y-98309228D02*
X98761785Y-98547323D01*
X98761785Y-98547323D02*
X98761785Y-97928276D01*
%TO.C,L1*%
X79683333Y-101367319D02*
X79207143Y-101367319D01*
X79207143Y-101367319D02*
X79207143Y-100367319D01*
X80540476Y-101367319D02*
X79969048Y-101367319D01*
X80254762Y-101367319D02*
X80254762Y-100367319D01*
X80254762Y-100367319D02*
X80159524Y-100510176D01*
X80159524Y-100510176D02*
X80064286Y-100605414D01*
X80064286Y-100605414D02*
X79969048Y-100653033D01*
%TO.C,J7*%
X171850419Y-83825933D02*
X172564704Y-83825933D01*
X172564704Y-83825933D02*
X172707561Y-83873552D01*
X172707561Y-83873552D02*
X172802800Y-83968790D01*
X172802800Y-83968790D02*
X172850419Y-84111647D01*
X172850419Y-84111647D02*
X172850419Y-84206885D01*
X171850419Y-83444980D02*
X171850419Y-82778314D01*
X171850419Y-82778314D02*
X172850419Y-83206885D01*
%TO.C,R25*%
X178629819Y-95055357D02*
X178153628Y-95388690D01*
X178629819Y-95626785D02*
X177629819Y-95626785D01*
X177629819Y-95626785D02*
X177629819Y-95245833D01*
X177629819Y-95245833D02*
X177677438Y-95150595D01*
X177677438Y-95150595D02*
X177725057Y-95102976D01*
X177725057Y-95102976D02*
X177820295Y-95055357D01*
X177820295Y-95055357D02*
X177963152Y-95055357D01*
X177963152Y-95055357D02*
X178058390Y-95102976D01*
X178058390Y-95102976D02*
X178106009Y-95150595D01*
X178106009Y-95150595D02*
X178153628Y-95245833D01*
X178153628Y-95245833D02*
X178153628Y-95626785D01*
X177725057Y-94674404D02*
X177677438Y-94626785D01*
X177677438Y-94626785D02*
X177629819Y-94531547D01*
X177629819Y-94531547D02*
X177629819Y-94293452D01*
X177629819Y-94293452D02*
X177677438Y-94198214D01*
X177677438Y-94198214D02*
X177725057Y-94150595D01*
X177725057Y-94150595D02*
X177820295Y-94102976D01*
X177820295Y-94102976D02*
X177915533Y-94102976D01*
X177915533Y-94102976D02*
X178058390Y-94150595D01*
X178058390Y-94150595D02*
X178629819Y-94722023D01*
X178629819Y-94722023D02*
X178629819Y-94102976D01*
X177629819Y-93198214D02*
X177629819Y-93674404D01*
X177629819Y-93674404D02*
X178106009Y-93722023D01*
X178106009Y-93722023D02*
X178058390Y-93674404D01*
X178058390Y-93674404D02*
X178010771Y-93579166D01*
X178010771Y-93579166D02*
X178010771Y-93341071D01*
X178010771Y-93341071D02*
X178058390Y-93245833D01*
X178058390Y-93245833D02*
X178106009Y-93198214D01*
X178106009Y-93198214D02*
X178201247Y-93150595D01*
X178201247Y-93150595D02*
X178439342Y-93150595D01*
X178439342Y-93150595D02*
X178534580Y-93198214D01*
X178534580Y-93198214D02*
X178582200Y-93245833D01*
X178582200Y-93245833D02*
X178629819Y-93341071D01*
X178629819Y-93341071D02*
X178629819Y-93579166D01*
X178629819Y-93579166D02*
X178582200Y-93674404D01*
X178582200Y-93674404D02*
X178534580Y-93722023D01*
%TO.C,R12*%
X151404819Y-90692857D02*
X150928628Y-91026190D01*
X151404819Y-91264285D02*
X150404819Y-91264285D01*
X150404819Y-91264285D02*
X150404819Y-90883333D01*
X150404819Y-90883333D02*
X150452438Y-90788095D01*
X150452438Y-90788095D02*
X150500057Y-90740476D01*
X150500057Y-90740476D02*
X150595295Y-90692857D01*
X150595295Y-90692857D02*
X150738152Y-90692857D01*
X150738152Y-90692857D02*
X150833390Y-90740476D01*
X150833390Y-90740476D02*
X150881009Y-90788095D01*
X150881009Y-90788095D02*
X150928628Y-90883333D01*
X150928628Y-90883333D02*
X150928628Y-91264285D01*
X151404819Y-89740476D02*
X151404819Y-90311904D01*
X151404819Y-90026190D02*
X150404819Y-90026190D01*
X150404819Y-90026190D02*
X150547676Y-90121428D01*
X150547676Y-90121428D02*
X150642914Y-90216666D01*
X150642914Y-90216666D02*
X150690533Y-90311904D01*
X150500057Y-89359523D02*
X150452438Y-89311904D01*
X150452438Y-89311904D02*
X150404819Y-89216666D01*
X150404819Y-89216666D02*
X150404819Y-88978571D01*
X150404819Y-88978571D02*
X150452438Y-88883333D01*
X150452438Y-88883333D02*
X150500057Y-88835714D01*
X150500057Y-88835714D02*
X150595295Y-88788095D01*
X150595295Y-88788095D02*
X150690533Y-88788095D01*
X150690533Y-88788095D02*
X150833390Y-88835714D01*
X150833390Y-88835714D02*
X151404819Y-89407142D01*
X151404819Y-89407142D02*
X151404819Y-88788095D01*
%TO.C,R35*%
X89294642Y-82204819D02*
X88961309Y-81728628D01*
X88723214Y-82204819D02*
X88723214Y-81204819D01*
X88723214Y-81204819D02*
X89104166Y-81204819D01*
X89104166Y-81204819D02*
X89199404Y-81252438D01*
X89199404Y-81252438D02*
X89247023Y-81300057D01*
X89247023Y-81300057D02*
X89294642Y-81395295D01*
X89294642Y-81395295D02*
X89294642Y-81538152D01*
X89294642Y-81538152D02*
X89247023Y-81633390D01*
X89247023Y-81633390D02*
X89199404Y-81681009D01*
X89199404Y-81681009D02*
X89104166Y-81728628D01*
X89104166Y-81728628D02*
X88723214Y-81728628D01*
X89627976Y-81204819D02*
X90247023Y-81204819D01*
X90247023Y-81204819D02*
X89913690Y-81585771D01*
X89913690Y-81585771D02*
X90056547Y-81585771D01*
X90056547Y-81585771D02*
X90151785Y-81633390D01*
X90151785Y-81633390D02*
X90199404Y-81681009D01*
X90199404Y-81681009D02*
X90247023Y-81776247D01*
X90247023Y-81776247D02*
X90247023Y-82014342D01*
X90247023Y-82014342D02*
X90199404Y-82109580D01*
X90199404Y-82109580D02*
X90151785Y-82157200D01*
X90151785Y-82157200D02*
X90056547Y-82204819D01*
X90056547Y-82204819D02*
X89770833Y-82204819D01*
X89770833Y-82204819D02*
X89675595Y-82157200D01*
X89675595Y-82157200D02*
X89627976Y-82109580D01*
X91151785Y-81204819D02*
X90675595Y-81204819D01*
X90675595Y-81204819D02*
X90627976Y-81681009D01*
X90627976Y-81681009D02*
X90675595Y-81633390D01*
X90675595Y-81633390D02*
X90770833Y-81585771D01*
X90770833Y-81585771D02*
X91008928Y-81585771D01*
X91008928Y-81585771D02*
X91104166Y-81633390D01*
X91104166Y-81633390D02*
X91151785Y-81681009D01*
X91151785Y-81681009D02*
X91199404Y-81776247D01*
X91199404Y-81776247D02*
X91199404Y-82014342D01*
X91199404Y-82014342D02*
X91151785Y-82109580D01*
X91151785Y-82109580D02*
X91104166Y-82157200D01*
X91104166Y-82157200D02*
X91008928Y-82204819D01*
X91008928Y-82204819D02*
X90770833Y-82204819D01*
X90770833Y-82204819D02*
X90675595Y-82157200D01*
X90675595Y-82157200D02*
X90627976Y-82109580D01*
%TO.C,R34*%
X79769642Y-82579819D02*
X79436309Y-82103628D01*
X79198214Y-82579819D02*
X79198214Y-81579819D01*
X79198214Y-81579819D02*
X79579166Y-81579819D01*
X79579166Y-81579819D02*
X79674404Y-81627438D01*
X79674404Y-81627438D02*
X79722023Y-81675057D01*
X79722023Y-81675057D02*
X79769642Y-81770295D01*
X79769642Y-81770295D02*
X79769642Y-81913152D01*
X79769642Y-81913152D02*
X79722023Y-82008390D01*
X79722023Y-82008390D02*
X79674404Y-82056009D01*
X79674404Y-82056009D02*
X79579166Y-82103628D01*
X79579166Y-82103628D02*
X79198214Y-82103628D01*
X80102976Y-81579819D02*
X80722023Y-81579819D01*
X80722023Y-81579819D02*
X80388690Y-81960771D01*
X80388690Y-81960771D02*
X80531547Y-81960771D01*
X80531547Y-81960771D02*
X80626785Y-82008390D01*
X80626785Y-82008390D02*
X80674404Y-82056009D01*
X80674404Y-82056009D02*
X80722023Y-82151247D01*
X80722023Y-82151247D02*
X80722023Y-82389342D01*
X80722023Y-82389342D02*
X80674404Y-82484580D01*
X80674404Y-82484580D02*
X80626785Y-82532200D01*
X80626785Y-82532200D02*
X80531547Y-82579819D01*
X80531547Y-82579819D02*
X80245833Y-82579819D01*
X80245833Y-82579819D02*
X80150595Y-82532200D01*
X80150595Y-82532200D02*
X80102976Y-82484580D01*
X81579166Y-81913152D02*
X81579166Y-82579819D01*
X81341071Y-81532200D02*
X81102976Y-82246485D01*
X81102976Y-82246485D02*
X81722023Y-82246485D01*
%TO.C,J2*%
X96954819Y-84083333D02*
X97669104Y-84083333D01*
X97669104Y-84083333D02*
X97811961Y-84130952D01*
X97811961Y-84130952D02*
X97907200Y-84226190D01*
X97907200Y-84226190D02*
X97954819Y-84369047D01*
X97954819Y-84369047D02*
X97954819Y-84464285D01*
X97050057Y-83654761D02*
X97002438Y-83607142D01*
X97002438Y-83607142D02*
X96954819Y-83511904D01*
X96954819Y-83511904D02*
X96954819Y-83273809D01*
X96954819Y-83273809D02*
X97002438Y-83178571D01*
X97002438Y-83178571D02*
X97050057Y-83130952D01*
X97050057Y-83130952D02*
X97145295Y-83083333D01*
X97145295Y-83083333D02*
X97240533Y-83083333D01*
X97240533Y-83083333D02*
X97383390Y-83130952D01*
X97383390Y-83130952D02*
X97954819Y-83702380D01*
X97954819Y-83702380D02*
X97954819Y-83083333D01*
%TO.C,Q3*%
X112105461Y-92320257D02*
X112010223Y-92272638D01*
X112010223Y-92272638D02*
X111914985Y-92177400D01*
X111914985Y-92177400D02*
X111772128Y-92034542D01*
X111772128Y-92034542D02*
X111676890Y-91986923D01*
X111676890Y-91986923D02*
X111581652Y-91986923D01*
X111629271Y-92225019D02*
X111534033Y-92177400D01*
X111534033Y-92177400D02*
X111438795Y-92082161D01*
X111438795Y-92082161D02*
X111391176Y-91891685D01*
X111391176Y-91891685D02*
X111391176Y-91558352D01*
X111391176Y-91558352D02*
X111438795Y-91367876D01*
X111438795Y-91367876D02*
X111534033Y-91272638D01*
X111534033Y-91272638D02*
X111629271Y-91225019D01*
X111629271Y-91225019D02*
X111819747Y-91225019D01*
X111819747Y-91225019D02*
X111914985Y-91272638D01*
X111914985Y-91272638D02*
X112010223Y-91367876D01*
X112010223Y-91367876D02*
X112057842Y-91558352D01*
X112057842Y-91558352D02*
X112057842Y-91891685D01*
X112057842Y-91891685D02*
X112010223Y-92082161D01*
X112010223Y-92082161D02*
X111914985Y-92177400D01*
X111914985Y-92177400D02*
X111819747Y-92225019D01*
X111819747Y-92225019D02*
X111629271Y-92225019D01*
X112391176Y-91225019D02*
X113010223Y-91225019D01*
X113010223Y-91225019D02*
X112676890Y-91605971D01*
X112676890Y-91605971D02*
X112819747Y-91605971D01*
X112819747Y-91605971D02*
X112914985Y-91653590D01*
X112914985Y-91653590D02*
X112962604Y-91701209D01*
X112962604Y-91701209D02*
X113010223Y-91796447D01*
X113010223Y-91796447D02*
X113010223Y-92034542D01*
X113010223Y-92034542D02*
X112962604Y-92129780D01*
X112962604Y-92129780D02*
X112914985Y-92177400D01*
X112914985Y-92177400D02*
X112819747Y-92225019D01*
X112819747Y-92225019D02*
X112534033Y-92225019D01*
X112534033Y-92225019D02*
X112438795Y-92177400D01*
X112438795Y-92177400D02*
X112391176Y-92129780D01*
%TO.C,C1*%
X98766333Y-93038980D02*
X98718714Y-93086600D01*
X98718714Y-93086600D02*
X98575857Y-93134219D01*
X98575857Y-93134219D02*
X98480619Y-93134219D01*
X98480619Y-93134219D02*
X98337762Y-93086600D01*
X98337762Y-93086600D02*
X98242524Y-92991361D01*
X98242524Y-92991361D02*
X98194905Y-92896123D01*
X98194905Y-92896123D02*
X98147286Y-92705647D01*
X98147286Y-92705647D02*
X98147286Y-92562790D01*
X98147286Y-92562790D02*
X98194905Y-92372314D01*
X98194905Y-92372314D02*
X98242524Y-92277076D01*
X98242524Y-92277076D02*
X98337762Y-92181838D01*
X98337762Y-92181838D02*
X98480619Y-92134219D01*
X98480619Y-92134219D02*
X98575857Y-92134219D01*
X98575857Y-92134219D02*
X98718714Y-92181838D01*
X98718714Y-92181838D02*
X98766333Y-92229457D01*
X99718714Y-93134219D02*
X99147286Y-93134219D01*
X99433000Y-93134219D02*
X99433000Y-92134219D01*
X99433000Y-92134219D02*
X99337762Y-92277076D01*
X99337762Y-92277076D02*
X99242524Y-92372314D01*
X99242524Y-92372314D02*
X99147286Y-92419933D01*
D12*
%TO.C,Q2*%
X110547161Y-94326701D02*
X110451923Y-94279082D01*
X110451923Y-94279082D02*
X110356685Y-94183844D01*
X110356685Y-94183844D02*
X110213828Y-94040986D01*
X110213828Y-94040986D02*
X110118590Y-93993367D01*
X110118590Y-93993367D02*
X110023352Y-93993367D01*
X110070971Y-94231463D02*
X109975733Y-94183844D01*
X109975733Y-94183844D02*
X109880495Y-94088605D01*
X109880495Y-94088605D02*
X109832876Y-93898129D01*
X109832876Y-93898129D02*
X109832876Y-93564796D01*
X109832876Y-93564796D02*
X109880495Y-93374320D01*
X109880495Y-93374320D02*
X109975733Y-93279082D01*
X109975733Y-93279082D02*
X110070971Y-93231463D01*
X110070971Y-93231463D02*
X110261447Y-93231463D01*
X110261447Y-93231463D02*
X110356685Y-93279082D01*
X110356685Y-93279082D02*
X110451923Y-93374320D01*
X110451923Y-93374320D02*
X110499542Y-93564796D01*
X110499542Y-93564796D02*
X110499542Y-93898129D01*
X110499542Y-93898129D02*
X110451923Y-94088605D01*
X110451923Y-94088605D02*
X110356685Y-94183844D01*
X110356685Y-94183844D02*
X110261447Y-94231463D01*
X110261447Y-94231463D02*
X110070971Y-94231463D01*
X110880495Y-93326701D02*
X110928114Y-93279082D01*
X110928114Y-93279082D02*
X111023352Y-93231463D01*
X111023352Y-93231463D02*
X111261447Y-93231463D01*
X111261447Y-93231463D02*
X111356685Y-93279082D01*
X111356685Y-93279082D02*
X111404304Y-93326701D01*
X111404304Y-93326701D02*
X111451923Y-93421939D01*
X111451923Y-93421939D02*
X111451923Y-93517177D01*
X111451923Y-93517177D02*
X111404304Y-93660034D01*
X111404304Y-93660034D02*
X110832876Y-94231463D01*
X110832876Y-94231463D02*
X111451923Y-94231463D01*
D10*
%TO.C,R37*%
X112564942Y-86357619D02*
X112231609Y-85881428D01*
X111993514Y-86357619D02*
X111993514Y-85357619D01*
X111993514Y-85357619D02*
X112374466Y-85357619D01*
X112374466Y-85357619D02*
X112469704Y-85405238D01*
X112469704Y-85405238D02*
X112517323Y-85452857D01*
X112517323Y-85452857D02*
X112564942Y-85548095D01*
X112564942Y-85548095D02*
X112564942Y-85690952D01*
X112564942Y-85690952D02*
X112517323Y-85786190D01*
X112517323Y-85786190D02*
X112469704Y-85833809D01*
X112469704Y-85833809D02*
X112374466Y-85881428D01*
X112374466Y-85881428D02*
X111993514Y-85881428D01*
X112898276Y-85357619D02*
X113517323Y-85357619D01*
X113517323Y-85357619D02*
X113183990Y-85738571D01*
X113183990Y-85738571D02*
X113326847Y-85738571D01*
X113326847Y-85738571D02*
X113422085Y-85786190D01*
X113422085Y-85786190D02*
X113469704Y-85833809D01*
X113469704Y-85833809D02*
X113517323Y-85929047D01*
X113517323Y-85929047D02*
X113517323Y-86167142D01*
X113517323Y-86167142D02*
X113469704Y-86262380D01*
X113469704Y-86262380D02*
X113422085Y-86310000D01*
X113422085Y-86310000D02*
X113326847Y-86357619D01*
X113326847Y-86357619D02*
X113041133Y-86357619D01*
X113041133Y-86357619D02*
X112945895Y-86310000D01*
X112945895Y-86310000D02*
X112898276Y-86262380D01*
X113850657Y-85357619D02*
X114517323Y-85357619D01*
X114517323Y-85357619D02*
X114088752Y-86357619D01*
%TO.C,R36*%
X89294642Y-83279819D02*
X88961309Y-82803628D01*
X88723214Y-83279819D02*
X88723214Y-82279819D01*
X88723214Y-82279819D02*
X89104166Y-82279819D01*
X89104166Y-82279819D02*
X89199404Y-82327438D01*
X89199404Y-82327438D02*
X89247023Y-82375057D01*
X89247023Y-82375057D02*
X89294642Y-82470295D01*
X89294642Y-82470295D02*
X89294642Y-82613152D01*
X89294642Y-82613152D02*
X89247023Y-82708390D01*
X89247023Y-82708390D02*
X89199404Y-82756009D01*
X89199404Y-82756009D02*
X89104166Y-82803628D01*
X89104166Y-82803628D02*
X88723214Y-82803628D01*
X89627976Y-82279819D02*
X90247023Y-82279819D01*
X90247023Y-82279819D02*
X89913690Y-82660771D01*
X89913690Y-82660771D02*
X90056547Y-82660771D01*
X90056547Y-82660771D02*
X90151785Y-82708390D01*
X90151785Y-82708390D02*
X90199404Y-82756009D01*
X90199404Y-82756009D02*
X90247023Y-82851247D01*
X90247023Y-82851247D02*
X90247023Y-83089342D01*
X90247023Y-83089342D02*
X90199404Y-83184580D01*
X90199404Y-83184580D02*
X90151785Y-83232200D01*
X90151785Y-83232200D02*
X90056547Y-83279819D01*
X90056547Y-83279819D02*
X89770833Y-83279819D01*
X89770833Y-83279819D02*
X89675595Y-83232200D01*
X89675595Y-83232200D02*
X89627976Y-83184580D01*
X91104166Y-82279819D02*
X90913690Y-82279819D01*
X90913690Y-82279819D02*
X90818452Y-82327438D01*
X90818452Y-82327438D02*
X90770833Y-82375057D01*
X90770833Y-82375057D02*
X90675595Y-82517914D01*
X90675595Y-82517914D02*
X90627976Y-82708390D01*
X90627976Y-82708390D02*
X90627976Y-83089342D01*
X90627976Y-83089342D02*
X90675595Y-83184580D01*
X90675595Y-83184580D02*
X90723214Y-83232200D01*
X90723214Y-83232200D02*
X90818452Y-83279819D01*
X90818452Y-83279819D02*
X91008928Y-83279819D01*
X91008928Y-83279819D02*
X91104166Y-83232200D01*
X91104166Y-83232200D02*
X91151785Y-83184580D01*
X91151785Y-83184580D02*
X91199404Y-83089342D01*
X91199404Y-83089342D02*
X91199404Y-82851247D01*
X91199404Y-82851247D02*
X91151785Y-82756009D01*
X91151785Y-82756009D02*
X91104166Y-82708390D01*
X91104166Y-82708390D02*
X91008928Y-82660771D01*
X91008928Y-82660771D02*
X90818452Y-82660771D01*
X90818452Y-82660771D02*
X90723214Y-82708390D01*
X90723214Y-82708390D02*
X90675595Y-82756009D01*
X90675595Y-82756009D02*
X90627976Y-82851247D01*
%TO.C,C17*%
X79972080Y-93555357D02*
X80019700Y-93602976D01*
X80019700Y-93602976D02*
X80067319Y-93745833D01*
X80067319Y-93745833D02*
X80067319Y-93841071D01*
X80067319Y-93841071D02*
X80019700Y-93983928D01*
X80019700Y-93983928D02*
X79924461Y-94079166D01*
X79924461Y-94079166D02*
X79829223Y-94126785D01*
X79829223Y-94126785D02*
X79638747Y-94174404D01*
X79638747Y-94174404D02*
X79495890Y-94174404D01*
X79495890Y-94174404D02*
X79305414Y-94126785D01*
X79305414Y-94126785D02*
X79210176Y-94079166D01*
X79210176Y-94079166D02*
X79114938Y-93983928D01*
X79114938Y-93983928D02*
X79067319Y-93841071D01*
X79067319Y-93841071D02*
X79067319Y-93745833D01*
X79067319Y-93745833D02*
X79114938Y-93602976D01*
X79114938Y-93602976D02*
X79162557Y-93555357D01*
X80067319Y-92602976D02*
X80067319Y-93174404D01*
X80067319Y-92888690D02*
X79067319Y-92888690D01*
X79067319Y-92888690D02*
X79210176Y-92983928D01*
X79210176Y-92983928D02*
X79305414Y-93079166D01*
X79305414Y-93079166D02*
X79353033Y-93174404D01*
X79067319Y-92269642D02*
X79067319Y-91602976D01*
X79067319Y-91602976D02*
X80067319Y-92031547D01*
%TO.C,J12*%
X156014619Y-84308123D02*
X156728904Y-84308123D01*
X156728904Y-84308123D02*
X156871761Y-84355742D01*
X156871761Y-84355742D02*
X156967000Y-84450980D01*
X156967000Y-84450980D02*
X157014619Y-84593837D01*
X157014619Y-84593837D02*
X157014619Y-84689075D01*
X157014619Y-83308123D02*
X157014619Y-83879551D01*
X157014619Y-83593837D02*
X156014619Y-83593837D01*
X156014619Y-83593837D02*
X156157476Y-83689075D01*
X156157476Y-83689075D02*
X156252714Y-83784313D01*
X156252714Y-83784313D02*
X156300333Y-83879551D01*
X156109857Y-82927170D02*
X156062238Y-82879551D01*
X156062238Y-82879551D02*
X156014619Y-82784313D01*
X156014619Y-82784313D02*
X156014619Y-82546218D01*
X156014619Y-82546218D02*
X156062238Y-82450980D01*
X156062238Y-82450980D02*
X156109857Y-82403361D01*
X156109857Y-82403361D02*
X156205095Y-82355742D01*
X156205095Y-82355742D02*
X156300333Y-82355742D01*
X156300333Y-82355742D02*
X156443190Y-82403361D01*
X156443190Y-82403361D02*
X157014619Y-82974789D01*
X157014619Y-82974789D02*
X157014619Y-82355742D01*
%TO.C,R9*%
X137967319Y-94879166D02*
X137491128Y-95212499D01*
X137967319Y-95450594D02*
X136967319Y-95450594D01*
X136967319Y-95450594D02*
X136967319Y-95069642D01*
X136967319Y-95069642D02*
X137014938Y-94974404D01*
X137014938Y-94974404D02*
X137062557Y-94926785D01*
X137062557Y-94926785D02*
X137157795Y-94879166D01*
X137157795Y-94879166D02*
X137300652Y-94879166D01*
X137300652Y-94879166D02*
X137395890Y-94926785D01*
X137395890Y-94926785D02*
X137443509Y-94974404D01*
X137443509Y-94974404D02*
X137491128Y-95069642D01*
X137491128Y-95069642D02*
X137491128Y-95450594D01*
X137967319Y-94402975D02*
X137967319Y-94212499D01*
X137967319Y-94212499D02*
X137919700Y-94117261D01*
X137919700Y-94117261D02*
X137872080Y-94069642D01*
X137872080Y-94069642D02*
X137729223Y-93974404D01*
X137729223Y-93974404D02*
X137538747Y-93926785D01*
X137538747Y-93926785D02*
X137157795Y-93926785D01*
X137157795Y-93926785D02*
X137062557Y-93974404D01*
X137062557Y-93974404D02*
X137014938Y-94022023D01*
X137014938Y-94022023D02*
X136967319Y-94117261D01*
X136967319Y-94117261D02*
X136967319Y-94307737D01*
X136967319Y-94307737D02*
X137014938Y-94402975D01*
X137014938Y-94402975D02*
X137062557Y-94450594D01*
X137062557Y-94450594D02*
X137157795Y-94498213D01*
X137157795Y-94498213D02*
X137395890Y-94498213D01*
X137395890Y-94498213D02*
X137491128Y-94450594D01*
X137491128Y-94450594D02*
X137538747Y-94402975D01*
X137538747Y-94402975D02*
X137586366Y-94307737D01*
X137586366Y-94307737D02*
X137586366Y-94117261D01*
X137586366Y-94117261D02*
X137538747Y-94022023D01*
X137538747Y-94022023D02*
X137491128Y-93974404D01*
X137491128Y-93974404D02*
X137395890Y-93926785D01*
%TO.C,R16*%
X159679819Y-95042857D02*
X159203628Y-95376190D01*
X159679819Y-95614285D02*
X158679819Y-95614285D01*
X158679819Y-95614285D02*
X158679819Y-95233333D01*
X158679819Y-95233333D02*
X158727438Y-95138095D01*
X158727438Y-95138095D02*
X158775057Y-95090476D01*
X158775057Y-95090476D02*
X158870295Y-95042857D01*
X158870295Y-95042857D02*
X159013152Y-95042857D01*
X159013152Y-95042857D02*
X159108390Y-95090476D01*
X159108390Y-95090476D02*
X159156009Y-95138095D01*
X159156009Y-95138095D02*
X159203628Y-95233333D01*
X159203628Y-95233333D02*
X159203628Y-95614285D01*
X159679819Y-94090476D02*
X159679819Y-94661904D01*
X159679819Y-94376190D02*
X158679819Y-94376190D01*
X158679819Y-94376190D02*
X158822676Y-94471428D01*
X158822676Y-94471428D02*
X158917914Y-94566666D01*
X158917914Y-94566666D02*
X158965533Y-94661904D01*
X158679819Y-93233333D02*
X158679819Y-93423809D01*
X158679819Y-93423809D02*
X158727438Y-93519047D01*
X158727438Y-93519047D02*
X158775057Y-93566666D01*
X158775057Y-93566666D02*
X158917914Y-93661904D01*
X158917914Y-93661904D02*
X159108390Y-93709523D01*
X159108390Y-93709523D02*
X159489342Y-93709523D01*
X159489342Y-93709523D02*
X159584580Y-93661904D01*
X159584580Y-93661904D02*
X159632200Y-93614285D01*
X159632200Y-93614285D02*
X159679819Y-93519047D01*
X159679819Y-93519047D02*
X159679819Y-93328571D01*
X159679819Y-93328571D02*
X159632200Y-93233333D01*
X159632200Y-93233333D02*
X159584580Y-93185714D01*
X159584580Y-93185714D02*
X159489342Y-93138095D01*
X159489342Y-93138095D02*
X159251247Y-93138095D01*
X159251247Y-93138095D02*
X159156009Y-93185714D01*
X159156009Y-93185714D02*
X159108390Y-93233333D01*
X159108390Y-93233333D02*
X159060771Y-93328571D01*
X159060771Y-93328571D02*
X159060771Y-93519047D01*
X159060771Y-93519047D02*
X159108390Y-93614285D01*
X159108390Y-93614285D02*
X159156009Y-93661904D01*
X159156009Y-93661904D02*
X159251247Y-93709523D01*
%TO.C,R11*%
X139354819Y-90442857D02*
X138878628Y-90776190D01*
X139354819Y-91014285D02*
X138354819Y-91014285D01*
X138354819Y-91014285D02*
X138354819Y-90633333D01*
X138354819Y-90633333D02*
X138402438Y-90538095D01*
X138402438Y-90538095D02*
X138450057Y-90490476D01*
X138450057Y-90490476D02*
X138545295Y-90442857D01*
X138545295Y-90442857D02*
X138688152Y-90442857D01*
X138688152Y-90442857D02*
X138783390Y-90490476D01*
X138783390Y-90490476D02*
X138831009Y-90538095D01*
X138831009Y-90538095D02*
X138878628Y-90633333D01*
X138878628Y-90633333D02*
X138878628Y-91014285D01*
X139354819Y-89490476D02*
X139354819Y-90061904D01*
X139354819Y-89776190D02*
X138354819Y-89776190D01*
X138354819Y-89776190D02*
X138497676Y-89871428D01*
X138497676Y-89871428D02*
X138592914Y-89966666D01*
X138592914Y-89966666D02*
X138640533Y-90061904D01*
X139354819Y-88538095D02*
X139354819Y-89109523D01*
X139354819Y-88823809D02*
X138354819Y-88823809D01*
X138354819Y-88823809D02*
X138497676Y-88919047D01*
X138497676Y-88919047D02*
X138592914Y-89014285D01*
X138592914Y-89014285D02*
X138640533Y-89109523D01*
%TO.C,J5*%
X131433219Y-83721533D02*
X132147504Y-83721533D01*
X132147504Y-83721533D02*
X132290361Y-83769152D01*
X132290361Y-83769152D02*
X132385600Y-83864390D01*
X132385600Y-83864390D02*
X132433219Y-84007247D01*
X132433219Y-84007247D02*
X132433219Y-84102485D01*
X131433219Y-82769152D02*
X131433219Y-83245342D01*
X131433219Y-83245342D02*
X131909409Y-83292961D01*
X131909409Y-83292961D02*
X131861790Y-83245342D01*
X131861790Y-83245342D02*
X131814171Y-83150104D01*
X131814171Y-83150104D02*
X131814171Y-82912009D01*
X131814171Y-82912009D02*
X131861790Y-82816771D01*
X131861790Y-82816771D02*
X131909409Y-82769152D01*
X131909409Y-82769152D02*
X132004647Y-82721533D01*
X132004647Y-82721533D02*
X132242742Y-82721533D01*
X132242742Y-82721533D02*
X132337980Y-82769152D01*
X132337980Y-82769152D02*
X132385600Y-82816771D01*
X132385600Y-82816771D02*
X132433219Y-82912009D01*
X132433219Y-82912009D02*
X132433219Y-83150104D01*
X132433219Y-83150104D02*
X132385600Y-83245342D01*
X132385600Y-83245342D02*
X132337980Y-83292961D01*
%TO.C,R48*%
X83244642Y-97567319D02*
X82911309Y-97091128D01*
X82673214Y-97567319D02*
X82673214Y-96567319D01*
X82673214Y-96567319D02*
X83054166Y-96567319D01*
X83054166Y-96567319D02*
X83149404Y-96614938D01*
X83149404Y-96614938D02*
X83197023Y-96662557D01*
X83197023Y-96662557D02*
X83244642Y-96757795D01*
X83244642Y-96757795D02*
X83244642Y-96900652D01*
X83244642Y-96900652D02*
X83197023Y-96995890D01*
X83197023Y-96995890D02*
X83149404Y-97043509D01*
X83149404Y-97043509D02*
X83054166Y-97091128D01*
X83054166Y-97091128D02*
X82673214Y-97091128D01*
X84101785Y-96900652D02*
X84101785Y-97567319D01*
X83863690Y-96519700D02*
X83625595Y-97233985D01*
X83625595Y-97233985D02*
X84244642Y-97233985D01*
X84768452Y-96995890D02*
X84673214Y-96948271D01*
X84673214Y-96948271D02*
X84625595Y-96900652D01*
X84625595Y-96900652D02*
X84577976Y-96805414D01*
X84577976Y-96805414D02*
X84577976Y-96757795D01*
X84577976Y-96757795D02*
X84625595Y-96662557D01*
X84625595Y-96662557D02*
X84673214Y-96614938D01*
X84673214Y-96614938D02*
X84768452Y-96567319D01*
X84768452Y-96567319D02*
X84958928Y-96567319D01*
X84958928Y-96567319D02*
X85054166Y-96614938D01*
X85054166Y-96614938D02*
X85101785Y-96662557D01*
X85101785Y-96662557D02*
X85149404Y-96757795D01*
X85149404Y-96757795D02*
X85149404Y-96805414D01*
X85149404Y-96805414D02*
X85101785Y-96900652D01*
X85101785Y-96900652D02*
X85054166Y-96948271D01*
X85054166Y-96948271D02*
X84958928Y-96995890D01*
X84958928Y-96995890D02*
X84768452Y-96995890D01*
X84768452Y-96995890D02*
X84673214Y-97043509D01*
X84673214Y-97043509D02*
X84625595Y-97091128D01*
X84625595Y-97091128D02*
X84577976Y-97186366D01*
X84577976Y-97186366D02*
X84577976Y-97376842D01*
X84577976Y-97376842D02*
X84625595Y-97472080D01*
X84625595Y-97472080D02*
X84673214Y-97519700D01*
X84673214Y-97519700D02*
X84768452Y-97567319D01*
X84768452Y-97567319D02*
X84958928Y-97567319D01*
X84958928Y-97567319D02*
X85054166Y-97519700D01*
X85054166Y-97519700D02*
X85101785Y-97472080D01*
X85101785Y-97472080D02*
X85149404Y-97376842D01*
X85149404Y-97376842D02*
X85149404Y-97186366D01*
X85149404Y-97186366D02*
X85101785Y-97091128D01*
X85101785Y-97091128D02*
X85054166Y-97043509D01*
X85054166Y-97043509D02*
X84958928Y-96995890D01*
%TO.C,C8*%
X90597080Y-87904166D02*
X90644700Y-87951785D01*
X90644700Y-87951785D02*
X90692319Y-88094642D01*
X90692319Y-88094642D02*
X90692319Y-88189880D01*
X90692319Y-88189880D02*
X90644700Y-88332737D01*
X90644700Y-88332737D02*
X90549461Y-88427975D01*
X90549461Y-88427975D02*
X90454223Y-88475594D01*
X90454223Y-88475594D02*
X90263747Y-88523213D01*
X90263747Y-88523213D02*
X90120890Y-88523213D01*
X90120890Y-88523213D02*
X89930414Y-88475594D01*
X89930414Y-88475594D02*
X89835176Y-88427975D01*
X89835176Y-88427975D02*
X89739938Y-88332737D01*
X89739938Y-88332737D02*
X89692319Y-88189880D01*
X89692319Y-88189880D02*
X89692319Y-88094642D01*
X89692319Y-88094642D02*
X89739938Y-87951785D01*
X89739938Y-87951785D02*
X89787557Y-87904166D01*
X90120890Y-87332737D02*
X90073271Y-87427975D01*
X90073271Y-87427975D02*
X90025652Y-87475594D01*
X90025652Y-87475594D02*
X89930414Y-87523213D01*
X89930414Y-87523213D02*
X89882795Y-87523213D01*
X89882795Y-87523213D02*
X89787557Y-87475594D01*
X89787557Y-87475594D02*
X89739938Y-87427975D01*
X89739938Y-87427975D02*
X89692319Y-87332737D01*
X89692319Y-87332737D02*
X89692319Y-87142261D01*
X89692319Y-87142261D02*
X89739938Y-87047023D01*
X89739938Y-87047023D02*
X89787557Y-86999404D01*
X89787557Y-86999404D02*
X89882795Y-86951785D01*
X89882795Y-86951785D02*
X89930414Y-86951785D01*
X89930414Y-86951785D02*
X90025652Y-86999404D01*
X90025652Y-86999404D02*
X90073271Y-87047023D01*
X90073271Y-87047023D02*
X90120890Y-87142261D01*
X90120890Y-87142261D02*
X90120890Y-87332737D01*
X90120890Y-87332737D02*
X90168509Y-87427975D01*
X90168509Y-87427975D02*
X90216128Y-87475594D01*
X90216128Y-87475594D02*
X90311366Y-87523213D01*
X90311366Y-87523213D02*
X90501842Y-87523213D01*
X90501842Y-87523213D02*
X90597080Y-87475594D01*
X90597080Y-87475594D02*
X90644700Y-87427975D01*
X90644700Y-87427975D02*
X90692319Y-87332737D01*
X90692319Y-87332737D02*
X90692319Y-87142261D01*
X90692319Y-87142261D02*
X90644700Y-87047023D01*
X90644700Y-87047023D02*
X90597080Y-86999404D01*
X90597080Y-86999404D02*
X90501842Y-86951785D01*
X90501842Y-86951785D02*
X90311366Y-86951785D01*
X90311366Y-86951785D02*
X90216128Y-86999404D01*
X90216128Y-86999404D02*
X90168509Y-87047023D01*
X90168509Y-87047023D02*
X90120890Y-87142261D01*
%TO.C,C9*%
X87633333Y-80647080D02*
X87585714Y-80694700D01*
X87585714Y-80694700D02*
X87442857Y-80742319D01*
X87442857Y-80742319D02*
X87347619Y-80742319D01*
X87347619Y-80742319D02*
X87204762Y-80694700D01*
X87204762Y-80694700D02*
X87109524Y-80599461D01*
X87109524Y-80599461D02*
X87061905Y-80504223D01*
X87061905Y-80504223D02*
X87014286Y-80313747D01*
X87014286Y-80313747D02*
X87014286Y-80170890D01*
X87014286Y-80170890D02*
X87061905Y-79980414D01*
X87061905Y-79980414D02*
X87109524Y-79885176D01*
X87109524Y-79885176D02*
X87204762Y-79789938D01*
X87204762Y-79789938D02*
X87347619Y-79742319D01*
X87347619Y-79742319D02*
X87442857Y-79742319D01*
X87442857Y-79742319D02*
X87585714Y-79789938D01*
X87585714Y-79789938D02*
X87633333Y-79837557D01*
X88109524Y-80742319D02*
X88300000Y-80742319D01*
X88300000Y-80742319D02*
X88395238Y-80694700D01*
X88395238Y-80694700D02*
X88442857Y-80647080D01*
X88442857Y-80647080D02*
X88538095Y-80504223D01*
X88538095Y-80504223D02*
X88585714Y-80313747D01*
X88585714Y-80313747D02*
X88585714Y-79932795D01*
X88585714Y-79932795D02*
X88538095Y-79837557D01*
X88538095Y-79837557D02*
X88490476Y-79789938D01*
X88490476Y-79789938D02*
X88395238Y-79742319D01*
X88395238Y-79742319D02*
X88204762Y-79742319D01*
X88204762Y-79742319D02*
X88109524Y-79789938D01*
X88109524Y-79789938D02*
X88061905Y-79837557D01*
X88061905Y-79837557D02*
X88014286Y-79932795D01*
X88014286Y-79932795D02*
X88014286Y-80170890D01*
X88014286Y-80170890D02*
X88061905Y-80266128D01*
X88061905Y-80266128D02*
X88109524Y-80313747D01*
X88109524Y-80313747D02*
X88204762Y-80361366D01*
X88204762Y-80361366D02*
X88395238Y-80361366D01*
X88395238Y-80361366D02*
X88490476Y-80313747D01*
X88490476Y-80313747D02*
X88538095Y-80266128D01*
X88538095Y-80266128D02*
X88585714Y-80170890D01*
%TO.C,R6*%
X131104819Y-94954166D02*
X130628628Y-95287499D01*
X131104819Y-95525594D02*
X130104819Y-95525594D01*
X130104819Y-95525594D02*
X130104819Y-95144642D01*
X130104819Y-95144642D02*
X130152438Y-95049404D01*
X130152438Y-95049404D02*
X130200057Y-95001785D01*
X130200057Y-95001785D02*
X130295295Y-94954166D01*
X130295295Y-94954166D02*
X130438152Y-94954166D01*
X130438152Y-94954166D02*
X130533390Y-95001785D01*
X130533390Y-95001785D02*
X130581009Y-95049404D01*
X130581009Y-95049404D02*
X130628628Y-95144642D01*
X130628628Y-95144642D02*
X130628628Y-95525594D01*
X130104819Y-94097023D02*
X130104819Y-94287499D01*
X130104819Y-94287499D02*
X130152438Y-94382737D01*
X130152438Y-94382737D02*
X130200057Y-94430356D01*
X130200057Y-94430356D02*
X130342914Y-94525594D01*
X130342914Y-94525594D02*
X130533390Y-94573213D01*
X130533390Y-94573213D02*
X130914342Y-94573213D01*
X130914342Y-94573213D02*
X131009580Y-94525594D01*
X131009580Y-94525594D02*
X131057200Y-94477975D01*
X131057200Y-94477975D02*
X131104819Y-94382737D01*
X131104819Y-94382737D02*
X131104819Y-94192261D01*
X131104819Y-94192261D02*
X131057200Y-94097023D01*
X131057200Y-94097023D02*
X131009580Y-94049404D01*
X131009580Y-94049404D02*
X130914342Y-94001785D01*
X130914342Y-94001785D02*
X130676247Y-94001785D01*
X130676247Y-94001785D02*
X130581009Y-94049404D01*
X130581009Y-94049404D02*
X130533390Y-94097023D01*
X130533390Y-94097023D02*
X130485771Y-94192261D01*
X130485771Y-94192261D02*
X130485771Y-94382737D01*
X130485771Y-94382737D02*
X130533390Y-94477975D01*
X130533390Y-94477975D02*
X130581009Y-94525594D01*
X130581009Y-94525594D02*
X130676247Y-94573213D01*
%TO.C,R1*%
X93417319Y-88904166D02*
X92941128Y-89237499D01*
X93417319Y-89475594D02*
X92417319Y-89475594D01*
X92417319Y-89475594D02*
X92417319Y-89094642D01*
X92417319Y-89094642D02*
X92464938Y-88999404D01*
X92464938Y-88999404D02*
X92512557Y-88951785D01*
X92512557Y-88951785D02*
X92607795Y-88904166D01*
X92607795Y-88904166D02*
X92750652Y-88904166D01*
X92750652Y-88904166D02*
X92845890Y-88951785D01*
X92845890Y-88951785D02*
X92893509Y-88999404D01*
X92893509Y-88999404D02*
X92941128Y-89094642D01*
X92941128Y-89094642D02*
X92941128Y-89475594D01*
X93417319Y-87951785D02*
X93417319Y-88523213D01*
X93417319Y-88237499D02*
X92417319Y-88237499D01*
X92417319Y-88237499D02*
X92560176Y-88332737D01*
X92560176Y-88332737D02*
X92655414Y-88427975D01*
X92655414Y-88427975D02*
X92703033Y-88523213D01*
%TO.C,R18*%
X158304819Y-90642857D02*
X157828628Y-90976190D01*
X158304819Y-91214285D02*
X157304819Y-91214285D01*
X157304819Y-91214285D02*
X157304819Y-90833333D01*
X157304819Y-90833333D02*
X157352438Y-90738095D01*
X157352438Y-90738095D02*
X157400057Y-90690476D01*
X157400057Y-90690476D02*
X157495295Y-90642857D01*
X157495295Y-90642857D02*
X157638152Y-90642857D01*
X157638152Y-90642857D02*
X157733390Y-90690476D01*
X157733390Y-90690476D02*
X157781009Y-90738095D01*
X157781009Y-90738095D02*
X157828628Y-90833333D01*
X157828628Y-90833333D02*
X157828628Y-91214285D01*
X158304819Y-89690476D02*
X158304819Y-90261904D01*
X158304819Y-89976190D02*
X157304819Y-89976190D01*
X157304819Y-89976190D02*
X157447676Y-90071428D01*
X157447676Y-90071428D02*
X157542914Y-90166666D01*
X157542914Y-90166666D02*
X157590533Y-90261904D01*
X157733390Y-89119047D02*
X157685771Y-89214285D01*
X157685771Y-89214285D02*
X157638152Y-89261904D01*
X157638152Y-89261904D02*
X157542914Y-89309523D01*
X157542914Y-89309523D02*
X157495295Y-89309523D01*
X157495295Y-89309523D02*
X157400057Y-89261904D01*
X157400057Y-89261904D02*
X157352438Y-89214285D01*
X157352438Y-89214285D02*
X157304819Y-89119047D01*
X157304819Y-89119047D02*
X157304819Y-88928571D01*
X157304819Y-88928571D02*
X157352438Y-88833333D01*
X157352438Y-88833333D02*
X157400057Y-88785714D01*
X157400057Y-88785714D02*
X157495295Y-88738095D01*
X157495295Y-88738095D02*
X157542914Y-88738095D01*
X157542914Y-88738095D02*
X157638152Y-88785714D01*
X157638152Y-88785714D02*
X157685771Y-88833333D01*
X157685771Y-88833333D02*
X157733390Y-88928571D01*
X157733390Y-88928571D02*
X157733390Y-89119047D01*
X157733390Y-89119047D02*
X157781009Y-89214285D01*
X157781009Y-89214285D02*
X157828628Y-89261904D01*
X157828628Y-89261904D02*
X157923866Y-89309523D01*
X157923866Y-89309523D02*
X158114342Y-89309523D01*
X158114342Y-89309523D02*
X158209580Y-89261904D01*
X158209580Y-89261904D02*
X158257200Y-89214285D01*
X158257200Y-89214285D02*
X158304819Y-89119047D01*
X158304819Y-89119047D02*
X158304819Y-88928571D01*
X158304819Y-88928571D02*
X158257200Y-88833333D01*
X158257200Y-88833333D02*
X158209580Y-88785714D01*
X158209580Y-88785714D02*
X158114342Y-88738095D01*
X158114342Y-88738095D02*
X157923866Y-88738095D01*
X157923866Y-88738095D02*
X157828628Y-88785714D01*
X157828628Y-88785714D02*
X157781009Y-88833333D01*
X157781009Y-88833333D02*
X157733390Y-88928571D01*
%TO.C,C5*%
X92633333Y-85222080D02*
X92585714Y-85269700D01*
X92585714Y-85269700D02*
X92442857Y-85317319D01*
X92442857Y-85317319D02*
X92347619Y-85317319D01*
X92347619Y-85317319D02*
X92204762Y-85269700D01*
X92204762Y-85269700D02*
X92109524Y-85174461D01*
X92109524Y-85174461D02*
X92061905Y-85079223D01*
X92061905Y-85079223D02*
X92014286Y-84888747D01*
X92014286Y-84888747D02*
X92014286Y-84745890D01*
X92014286Y-84745890D02*
X92061905Y-84555414D01*
X92061905Y-84555414D02*
X92109524Y-84460176D01*
X92109524Y-84460176D02*
X92204762Y-84364938D01*
X92204762Y-84364938D02*
X92347619Y-84317319D01*
X92347619Y-84317319D02*
X92442857Y-84317319D01*
X92442857Y-84317319D02*
X92585714Y-84364938D01*
X92585714Y-84364938D02*
X92633333Y-84412557D01*
X93538095Y-84317319D02*
X93061905Y-84317319D01*
X93061905Y-84317319D02*
X93014286Y-84793509D01*
X93014286Y-84793509D02*
X93061905Y-84745890D01*
X93061905Y-84745890D02*
X93157143Y-84698271D01*
X93157143Y-84698271D02*
X93395238Y-84698271D01*
X93395238Y-84698271D02*
X93490476Y-84745890D01*
X93490476Y-84745890D02*
X93538095Y-84793509D01*
X93538095Y-84793509D02*
X93585714Y-84888747D01*
X93585714Y-84888747D02*
X93585714Y-85126842D01*
X93585714Y-85126842D02*
X93538095Y-85222080D01*
X93538095Y-85222080D02*
X93490476Y-85269700D01*
X93490476Y-85269700D02*
X93395238Y-85317319D01*
X93395238Y-85317319D02*
X93157143Y-85317319D01*
X93157143Y-85317319D02*
X93061905Y-85269700D01*
X93061905Y-85269700D02*
X93014286Y-85222080D01*
%TO.C,R19*%
X159704819Y-90642857D02*
X159228628Y-90976190D01*
X159704819Y-91214285D02*
X158704819Y-91214285D01*
X158704819Y-91214285D02*
X158704819Y-90833333D01*
X158704819Y-90833333D02*
X158752438Y-90738095D01*
X158752438Y-90738095D02*
X158800057Y-90690476D01*
X158800057Y-90690476D02*
X158895295Y-90642857D01*
X158895295Y-90642857D02*
X159038152Y-90642857D01*
X159038152Y-90642857D02*
X159133390Y-90690476D01*
X159133390Y-90690476D02*
X159181009Y-90738095D01*
X159181009Y-90738095D02*
X159228628Y-90833333D01*
X159228628Y-90833333D02*
X159228628Y-91214285D01*
X159704819Y-89690476D02*
X159704819Y-90261904D01*
X159704819Y-89976190D02*
X158704819Y-89976190D01*
X158704819Y-89976190D02*
X158847676Y-90071428D01*
X158847676Y-90071428D02*
X158942914Y-90166666D01*
X158942914Y-90166666D02*
X158990533Y-90261904D01*
X159704819Y-89214285D02*
X159704819Y-89023809D01*
X159704819Y-89023809D02*
X159657200Y-88928571D01*
X159657200Y-88928571D02*
X159609580Y-88880952D01*
X159609580Y-88880952D02*
X159466723Y-88785714D01*
X159466723Y-88785714D02*
X159276247Y-88738095D01*
X159276247Y-88738095D02*
X158895295Y-88738095D01*
X158895295Y-88738095D02*
X158800057Y-88785714D01*
X158800057Y-88785714D02*
X158752438Y-88833333D01*
X158752438Y-88833333D02*
X158704819Y-88928571D01*
X158704819Y-88928571D02*
X158704819Y-89119047D01*
X158704819Y-89119047D02*
X158752438Y-89214285D01*
X158752438Y-89214285D02*
X158800057Y-89261904D01*
X158800057Y-89261904D02*
X158895295Y-89309523D01*
X158895295Y-89309523D02*
X159133390Y-89309523D01*
X159133390Y-89309523D02*
X159228628Y-89261904D01*
X159228628Y-89261904D02*
X159276247Y-89214285D01*
X159276247Y-89214285D02*
X159323866Y-89119047D01*
X159323866Y-89119047D02*
X159323866Y-88928571D01*
X159323866Y-88928571D02*
X159276247Y-88833333D01*
X159276247Y-88833333D02*
X159228628Y-88785714D01*
X159228628Y-88785714D02*
X159133390Y-88738095D01*
%TO.C,L2*%
X92495833Y-101392319D02*
X92019643Y-101392319D01*
X92019643Y-101392319D02*
X92019643Y-100392319D01*
X92781548Y-100487557D02*
X92829167Y-100439938D01*
X92829167Y-100439938D02*
X92924405Y-100392319D01*
X92924405Y-100392319D02*
X93162500Y-100392319D01*
X93162500Y-100392319D02*
X93257738Y-100439938D01*
X93257738Y-100439938D02*
X93305357Y-100487557D01*
X93305357Y-100487557D02*
X93352976Y-100582795D01*
X93352976Y-100582795D02*
X93352976Y-100678033D01*
X93352976Y-100678033D02*
X93305357Y-100820890D01*
X93305357Y-100820890D02*
X92733929Y-101392319D01*
X92733929Y-101392319D02*
X93352976Y-101392319D01*
%TO.C,J9*%
X160804266Y-100242019D02*
X160804266Y-100956304D01*
X160804266Y-100956304D02*
X160756647Y-101099161D01*
X160756647Y-101099161D02*
X160661409Y-101194400D01*
X160661409Y-101194400D02*
X160518552Y-101242019D01*
X160518552Y-101242019D02*
X160423314Y-101242019D01*
X161328076Y-101242019D02*
X161518552Y-101242019D01*
X161518552Y-101242019D02*
X161613790Y-101194400D01*
X161613790Y-101194400D02*
X161661409Y-101146780D01*
X161661409Y-101146780D02*
X161756647Y-101003923D01*
X161756647Y-101003923D02*
X161804266Y-100813447D01*
X161804266Y-100813447D02*
X161804266Y-100432495D01*
X161804266Y-100432495D02*
X161756647Y-100337257D01*
X161756647Y-100337257D02*
X161709028Y-100289638D01*
X161709028Y-100289638D02*
X161613790Y-100242019D01*
X161613790Y-100242019D02*
X161423314Y-100242019D01*
X161423314Y-100242019D02*
X161328076Y-100289638D01*
X161328076Y-100289638D02*
X161280457Y-100337257D01*
X161280457Y-100337257D02*
X161232838Y-100432495D01*
X161232838Y-100432495D02*
X161232838Y-100670590D01*
X161232838Y-100670590D02*
X161280457Y-100765828D01*
X161280457Y-100765828D02*
X161328076Y-100813447D01*
X161328076Y-100813447D02*
X161423314Y-100861066D01*
X161423314Y-100861066D02*
X161613790Y-100861066D01*
X161613790Y-100861066D02*
X161709028Y-100813447D01*
X161709028Y-100813447D02*
X161756647Y-100765828D01*
X161756647Y-100765828D02*
X161804266Y-100670590D01*
%TO.C,R49*%
X97832142Y-96154819D02*
X97498809Y-95678628D01*
X97260714Y-96154819D02*
X97260714Y-95154819D01*
X97260714Y-95154819D02*
X97641666Y-95154819D01*
X97641666Y-95154819D02*
X97736904Y-95202438D01*
X97736904Y-95202438D02*
X97784523Y-95250057D01*
X97784523Y-95250057D02*
X97832142Y-95345295D01*
X97832142Y-95345295D02*
X97832142Y-95488152D01*
X97832142Y-95488152D02*
X97784523Y-95583390D01*
X97784523Y-95583390D02*
X97736904Y-95631009D01*
X97736904Y-95631009D02*
X97641666Y-95678628D01*
X97641666Y-95678628D02*
X97260714Y-95678628D01*
X98689285Y-95488152D02*
X98689285Y-96154819D01*
X98451190Y-95107200D02*
X98213095Y-95821485D01*
X98213095Y-95821485D02*
X98832142Y-95821485D01*
X99260714Y-96154819D02*
X99451190Y-96154819D01*
X99451190Y-96154819D02*
X99546428Y-96107200D01*
X99546428Y-96107200D02*
X99594047Y-96059580D01*
X99594047Y-96059580D02*
X99689285Y-95916723D01*
X99689285Y-95916723D02*
X99736904Y-95726247D01*
X99736904Y-95726247D02*
X99736904Y-95345295D01*
X99736904Y-95345295D02*
X99689285Y-95250057D01*
X99689285Y-95250057D02*
X99641666Y-95202438D01*
X99641666Y-95202438D02*
X99546428Y-95154819D01*
X99546428Y-95154819D02*
X99355952Y-95154819D01*
X99355952Y-95154819D02*
X99260714Y-95202438D01*
X99260714Y-95202438D02*
X99213095Y-95250057D01*
X99213095Y-95250057D02*
X99165476Y-95345295D01*
X99165476Y-95345295D02*
X99165476Y-95583390D01*
X99165476Y-95583390D02*
X99213095Y-95678628D01*
X99213095Y-95678628D02*
X99260714Y-95726247D01*
X99260714Y-95726247D02*
X99355952Y-95773866D01*
X99355952Y-95773866D02*
X99546428Y-95773866D01*
X99546428Y-95773866D02*
X99641666Y-95726247D01*
X99641666Y-95726247D02*
X99689285Y-95678628D01*
X99689285Y-95678628D02*
X99736904Y-95583390D01*
%TO.C,R10*%
X137829819Y-90530357D02*
X137353628Y-90863690D01*
X137829819Y-91101785D02*
X136829819Y-91101785D01*
X136829819Y-91101785D02*
X136829819Y-90720833D01*
X136829819Y-90720833D02*
X136877438Y-90625595D01*
X136877438Y-90625595D02*
X136925057Y-90577976D01*
X136925057Y-90577976D02*
X137020295Y-90530357D01*
X137020295Y-90530357D02*
X137163152Y-90530357D01*
X137163152Y-90530357D02*
X137258390Y-90577976D01*
X137258390Y-90577976D02*
X137306009Y-90625595D01*
X137306009Y-90625595D02*
X137353628Y-90720833D01*
X137353628Y-90720833D02*
X137353628Y-91101785D01*
X137829819Y-89577976D02*
X137829819Y-90149404D01*
X137829819Y-89863690D02*
X136829819Y-89863690D01*
X136829819Y-89863690D02*
X136972676Y-89958928D01*
X136972676Y-89958928D02*
X137067914Y-90054166D01*
X137067914Y-90054166D02*
X137115533Y-90149404D01*
X136829819Y-88958928D02*
X136829819Y-88863690D01*
X136829819Y-88863690D02*
X136877438Y-88768452D01*
X136877438Y-88768452D02*
X136925057Y-88720833D01*
X136925057Y-88720833D02*
X137020295Y-88673214D01*
X137020295Y-88673214D02*
X137210771Y-88625595D01*
X137210771Y-88625595D02*
X137448866Y-88625595D01*
X137448866Y-88625595D02*
X137639342Y-88673214D01*
X137639342Y-88673214D02*
X137734580Y-88720833D01*
X137734580Y-88720833D02*
X137782200Y-88768452D01*
X137782200Y-88768452D02*
X137829819Y-88863690D01*
X137829819Y-88863690D02*
X137829819Y-88958928D01*
X137829819Y-88958928D02*
X137782200Y-89054166D01*
X137782200Y-89054166D02*
X137734580Y-89101785D01*
X137734580Y-89101785D02*
X137639342Y-89149404D01*
X137639342Y-89149404D02*
X137448866Y-89197023D01*
X137448866Y-89197023D02*
X137210771Y-89197023D01*
X137210771Y-89197023D02*
X137020295Y-89149404D01*
X137020295Y-89149404D02*
X136925057Y-89101785D01*
X136925057Y-89101785D02*
X136877438Y-89054166D01*
X136877438Y-89054166D02*
X136829819Y-88958928D01*
%TO.C,R15*%
X150142319Y-95067857D02*
X149666128Y-95401190D01*
X150142319Y-95639285D02*
X149142319Y-95639285D01*
X149142319Y-95639285D02*
X149142319Y-95258333D01*
X149142319Y-95258333D02*
X149189938Y-95163095D01*
X149189938Y-95163095D02*
X149237557Y-95115476D01*
X149237557Y-95115476D02*
X149332795Y-95067857D01*
X149332795Y-95067857D02*
X149475652Y-95067857D01*
X149475652Y-95067857D02*
X149570890Y-95115476D01*
X149570890Y-95115476D02*
X149618509Y-95163095D01*
X149618509Y-95163095D02*
X149666128Y-95258333D01*
X149666128Y-95258333D02*
X149666128Y-95639285D01*
X150142319Y-94115476D02*
X150142319Y-94686904D01*
X150142319Y-94401190D02*
X149142319Y-94401190D01*
X149142319Y-94401190D02*
X149285176Y-94496428D01*
X149285176Y-94496428D02*
X149380414Y-94591666D01*
X149380414Y-94591666D02*
X149428033Y-94686904D01*
X149142319Y-93210714D02*
X149142319Y-93686904D01*
X149142319Y-93686904D02*
X149618509Y-93734523D01*
X149618509Y-93734523D02*
X149570890Y-93686904D01*
X149570890Y-93686904D02*
X149523271Y-93591666D01*
X149523271Y-93591666D02*
X149523271Y-93353571D01*
X149523271Y-93353571D02*
X149570890Y-93258333D01*
X149570890Y-93258333D02*
X149618509Y-93210714D01*
X149618509Y-93210714D02*
X149713747Y-93163095D01*
X149713747Y-93163095D02*
X149951842Y-93163095D01*
X149951842Y-93163095D02*
X150047080Y-93210714D01*
X150047080Y-93210714D02*
X150094700Y-93258333D01*
X150094700Y-93258333D02*
X150142319Y-93353571D01*
X150142319Y-93353571D02*
X150142319Y-93591666D01*
X150142319Y-93591666D02*
X150094700Y-93686904D01*
X150094700Y-93686904D02*
X150047080Y-93734523D01*
%TO.C,R5*%
X129654819Y-90491666D02*
X129178628Y-90824999D01*
X129654819Y-91063094D02*
X128654819Y-91063094D01*
X128654819Y-91063094D02*
X128654819Y-90682142D01*
X128654819Y-90682142D02*
X128702438Y-90586904D01*
X128702438Y-90586904D02*
X128750057Y-90539285D01*
X128750057Y-90539285D02*
X128845295Y-90491666D01*
X128845295Y-90491666D02*
X128988152Y-90491666D01*
X128988152Y-90491666D02*
X129083390Y-90539285D01*
X129083390Y-90539285D02*
X129131009Y-90586904D01*
X129131009Y-90586904D02*
X129178628Y-90682142D01*
X129178628Y-90682142D02*
X129178628Y-91063094D01*
X128654819Y-89586904D02*
X128654819Y-90063094D01*
X128654819Y-90063094D02*
X129131009Y-90110713D01*
X129131009Y-90110713D02*
X129083390Y-90063094D01*
X129083390Y-90063094D02*
X129035771Y-89967856D01*
X129035771Y-89967856D02*
X129035771Y-89729761D01*
X129035771Y-89729761D02*
X129083390Y-89634523D01*
X129083390Y-89634523D02*
X129131009Y-89586904D01*
X129131009Y-89586904D02*
X129226247Y-89539285D01*
X129226247Y-89539285D02*
X129464342Y-89539285D01*
X129464342Y-89539285D02*
X129559580Y-89586904D01*
X129559580Y-89586904D02*
X129607200Y-89634523D01*
X129607200Y-89634523D02*
X129654819Y-89729761D01*
X129654819Y-89729761D02*
X129654819Y-89967856D01*
X129654819Y-89967856D02*
X129607200Y-90063094D01*
X129607200Y-90063094D02*
X129559580Y-90110713D01*
%TO.C,U7*%
X113730619Y-89941304D02*
X114540142Y-89941304D01*
X114540142Y-89941304D02*
X114635380Y-89893685D01*
X114635380Y-89893685D02*
X114683000Y-89846066D01*
X114683000Y-89846066D02*
X114730619Y-89750828D01*
X114730619Y-89750828D02*
X114730619Y-89560352D01*
X114730619Y-89560352D02*
X114683000Y-89465114D01*
X114683000Y-89465114D02*
X114635380Y-89417495D01*
X114635380Y-89417495D02*
X114540142Y-89369876D01*
X114540142Y-89369876D02*
X113730619Y-89369876D01*
X113730619Y-88988923D02*
X113730619Y-88322257D01*
X113730619Y-88322257D02*
X114730619Y-88750828D01*
%TO.C,C11*%
X94734580Y-80767857D02*
X94782200Y-80815476D01*
X94782200Y-80815476D02*
X94829819Y-80958333D01*
X94829819Y-80958333D02*
X94829819Y-81053571D01*
X94829819Y-81053571D02*
X94782200Y-81196428D01*
X94782200Y-81196428D02*
X94686961Y-81291666D01*
X94686961Y-81291666D02*
X94591723Y-81339285D01*
X94591723Y-81339285D02*
X94401247Y-81386904D01*
X94401247Y-81386904D02*
X94258390Y-81386904D01*
X94258390Y-81386904D02*
X94067914Y-81339285D01*
X94067914Y-81339285D02*
X93972676Y-81291666D01*
X93972676Y-81291666D02*
X93877438Y-81196428D01*
X93877438Y-81196428D02*
X93829819Y-81053571D01*
X93829819Y-81053571D02*
X93829819Y-80958333D01*
X93829819Y-80958333D02*
X93877438Y-80815476D01*
X93877438Y-80815476D02*
X93925057Y-80767857D01*
X94829819Y-79815476D02*
X94829819Y-80386904D01*
X94829819Y-80101190D02*
X93829819Y-80101190D01*
X93829819Y-80101190D02*
X93972676Y-80196428D01*
X93972676Y-80196428D02*
X94067914Y-80291666D01*
X94067914Y-80291666D02*
X94115533Y-80386904D01*
X94829819Y-78863095D02*
X94829819Y-79434523D01*
X94829819Y-79148809D02*
X93829819Y-79148809D01*
X93829819Y-79148809D02*
X93972676Y-79244047D01*
X93972676Y-79244047D02*
X94067914Y-79339285D01*
X94067914Y-79339285D02*
X94115533Y-79434523D01*
%TO.C,C7*%
X88646033Y-91928880D02*
X88598414Y-91976500D01*
X88598414Y-91976500D02*
X88455557Y-92024119D01*
X88455557Y-92024119D02*
X88360319Y-92024119D01*
X88360319Y-92024119D02*
X88217462Y-91976500D01*
X88217462Y-91976500D02*
X88122224Y-91881261D01*
X88122224Y-91881261D02*
X88074605Y-91786023D01*
X88074605Y-91786023D02*
X88026986Y-91595547D01*
X88026986Y-91595547D02*
X88026986Y-91452690D01*
X88026986Y-91452690D02*
X88074605Y-91262214D01*
X88074605Y-91262214D02*
X88122224Y-91166976D01*
X88122224Y-91166976D02*
X88217462Y-91071738D01*
X88217462Y-91071738D02*
X88360319Y-91024119D01*
X88360319Y-91024119D02*
X88455557Y-91024119D01*
X88455557Y-91024119D02*
X88598414Y-91071738D01*
X88598414Y-91071738D02*
X88646033Y-91119357D01*
X88979367Y-91024119D02*
X89646033Y-91024119D01*
X89646033Y-91024119D02*
X89217462Y-92024119D01*
%TO.C,R22*%
X171792319Y-95055357D02*
X171316128Y-95388690D01*
X171792319Y-95626785D02*
X170792319Y-95626785D01*
X170792319Y-95626785D02*
X170792319Y-95245833D01*
X170792319Y-95245833D02*
X170839938Y-95150595D01*
X170839938Y-95150595D02*
X170887557Y-95102976D01*
X170887557Y-95102976D02*
X170982795Y-95055357D01*
X170982795Y-95055357D02*
X171125652Y-95055357D01*
X171125652Y-95055357D02*
X171220890Y-95102976D01*
X171220890Y-95102976D02*
X171268509Y-95150595D01*
X171268509Y-95150595D02*
X171316128Y-95245833D01*
X171316128Y-95245833D02*
X171316128Y-95626785D01*
X170887557Y-94674404D02*
X170839938Y-94626785D01*
X170839938Y-94626785D02*
X170792319Y-94531547D01*
X170792319Y-94531547D02*
X170792319Y-94293452D01*
X170792319Y-94293452D02*
X170839938Y-94198214D01*
X170839938Y-94198214D02*
X170887557Y-94150595D01*
X170887557Y-94150595D02*
X170982795Y-94102976D01*
X170982795Y-94102976D02*
X171078033Y-94102976D01*
X171078033Y-94102976D02*
X171220890Y-94150595D01*
X171220890Y-94150595D02*
X171792319Y-94722023D01*
X171792319Y-94722023D02*
X171792319Y-94102976D01*
X170887557Y-93722023D02*
X170839938Y-93674404D01*
X170839938Y-93674404D02*
X170792319Y-93579166D01*
X170792319Y-93579166D02*
X170792319Y-93341071D01*
X170792319Y-93341071D02*
X170839938Y-93245833D01*
X170839938Y-93245833D02*
X170887557Y-93198214D01*
X170887557Y-93198214D02*
X170982795Y-93150595D01*
X170982795Y-93150595D02*
X171078033Y-93150595D01*
X171078033Y-93150595D02*
X171220890Y-93198214D01*
X171220890Y-93198214D02*
X171792319Y-93769642D01*
X171792319Y-93769642D02*
X171792319Y-93150595D01*
%TO.C,U3*%
X133451519Y-94513304D02*
X134261042Y-94513304D01*
X134261042Y-94513304D02*
X134356280Y-94465685D01*
X134356280Y-94465685D02*
X134403900Y-94418066D01*
X134403900Y-94418066D02*
X134451519Y-94322828D01*
X134451519Y-94322828D02*
X134451519Y-94132352D01*
X134451519Y-94132352D02*
X134403900Y-94037114D01*
X134403900Y-94037114D02*
X134356280Y-93989495D01*
X134356280Y-93989495D02*
X134261042Y-93941876D01*
X134261042Y-93941876D02*
X133451519Y-93941876D01*
X133451519Y-93560923D02*
X133451519Y-92941876D01*
X133451519Y-92941876D02*
X133832471Y-93275209D01*
X133832471Y-93275209D02*
X133832471Y-93132352D01*
X133832471Y-93132352D02*
X133880090Y-93037114D01*
X133880090Y-93037114D02*
X133927709Y-92989495D01*
X133927709Y-92989495D02*
X134022947Y-92941876D01*
X134022947Y-92941876D02*
X134261042Y-92941876D01*
X134261042Y-92941876D02*
X134356280Y-92989495D01*
X134356280Y-92989495D02*
X134403900Y-93037114D01*
X134403900Y-93037114D02*
X134451519Y-93132352D01*
X134451519Y-93132352D02*
X134451519Y-93418066D01*
X134451519Y-93418066D02*
X134403900Y-93513304D01*
X134403900Y-93513304D02*
X134356280Y-93560923D01*
%TO.C,C16*%
X84287142Y-95264244D02*
X84239523Y-95311864D01*
X84239523Y-95311864D02*
X84096666Y-95359483D01*
X84096666Y-95359483D02*
X84001428Y-95359483D01*
X84001428Y-95359483D02*
X83858571Y-95311864D01*
X83858571Y-95311864D02*
X83763333Y-95216625D01*
X83763333Y-95216625D02*
X83715714Y-95121387D01*
X83715714Y-95121387D02*
X83668095Y-94930911D01*
X83668095Y-94930911D02*
X83668095Y-94788054D01*
X83668095Y-94788054D02*
X83715714Y-94597578D01*
X83715714Y-94597578D02*
X83763333Y-94502340D01*
X83763333Y-94502340D02*
X83858571Y-94407102D01*
X83858571Y-94407102D02*
X84001428Y-94359483D01*
X84001428Y-94359483D02*
X84096666Y-94359483D01*
X84096666Y-94359483D02*
X84239523Y-94407102D01*
X84239523Y-94407102D02*
X84287142Y-94454721D01*
X85239523Y-95359483D02*
X84668095Y-95359483D01*
X84953809Y-95359483D02*
X84953809Y-94359483D01*
X84953809Y-94359483D02*
X84858571Y-94502340D01*
X84858571Y-94502340D02*
X84763333Y-94597578D01*
X84763333Y-94597578D02*
X84668095Y-94645197D01*
X86096666Y-94359483D02*
X85906190Y-94359483D01*
X85906190Y-94359483D02*
X85810952Y-94407102D01*
X85810952Y-94407102D02*
X85763333Y-94454721D01*
X85763333Y-94454721D02*
X85668095Y-94597578D01*
X85668095Y-94597578D02*
X85620476Y-94788054D01*
X85620476Y-94788054D02*
X85620476Y-95169006D01*
X85620476Y-95169006D02*
X85668095Y-95264244D01*
X85668095Y-95264244D02*
X85715714Y-95311864D01*
X85715714Y-95311864D02*
X85810952Y-95359483D01*
X85810952Y-95359483D02*
X86001428Y-95359483D01*
X86001428Y-95359483D02*
X86096666Y-95311864D01*
X86096666Y-95311864D02*
X86144285Y-95264244D01*
X86144285Y-95264244D02*
X86191904Y-95169006D01*
X86191904Y-95169006D02*
X86191904Y-94930911D01*
X86191904Y-94930911D02*
X86144285Y-94835673D01*
X86144285Y-94835673D02*
X86096666Y-94788054D01*
X86096666Y-94788054D02*
X86001428Y-94740435D01*
X86001428Y-94740435D02*
X85810952Y-94740435D01*
X85810952Y-94740435D02*
X85715714Y-94788054D01*
X85715714Y-94788054D02*
X85668095Y-94835673D01*
X85668095Y-94835673D02*
X85620476Y-94930911D01*
%TO.C,Q1*%
X80222561Y-87037857D02*
X80127323Y-86990238D01*
X80127323Y-86990238D02*
X80032085Y-86895000D01*
X80032085Y-86895000D02*
X79889228Y-86752142D01*
X79889228Y-86752142D02*
X79793990Y-86704523D01*
X79793990Y-86704523D02*
X79698752Y-86704523D01*
X79746371Y-86942619D02*
X79651133Y-86895000D01*
X79651133Y-86895000D02*
X79555895Y-86799761D01*
X79555895Y-86799761D02*
X79508276Y-86609285D01*
X79508276Y-86609285D02*
X79508276Y-86275952D01*
X79508276Y-86275952D02*
X79555895Y-86085476D01*
X79555895Y-86085476D02*
X79651133Y-85990238D01*
X79651133Y-85990238D02*
X79746371Y-85942619D01*
X79746371Y-85942619D02*
X79936847Y-85942619D01*
X79936847Y-85942619D02*
X80032085Y-85990238D01*
X80032085Y-85990238D02*
X80127323Y-86085476D01*
X80127323Y-86085476D02*
X80174942Y-86275952D01*
X80174942Y-86275952D02*
X80174942Y-86609285D01*
X80174942Y-86609285D02*
X80127323Y-86799761D01*
X80127323Y-86799761D02*
X80032085Y-86895000D01*
X80032085Y-86895000D02*
X79936847Y-86942619D01*
X79936847Y-86942619D02*
X79746371Y-86942619D01*
X81127323Y-86942619D02*
X80555895Y-86942619D01*
X80841609Y-86942619D02*
X80841609Y-85942619D01*
X80841609Y-85942619D02*
X80746371Y-86085476D01*
X80746371Y-86085476D02*
X80651133Y-86180714D01*
X80651133Y-86180714D02*
X80555895Y-86228333D01*
%TO.C,R45*%
X88464219Y-98940857D02*
X87988028Y-99274190D01*
X88464219Y-99512285D02*
X87464219Y-99512285D01*
X87464219Y-99512285D02*
X87464219Y-99131333D01*
X87464219Y-99131333D02*
X87511838Y-99036095D01*
X87511838Y-99036095D02*
X87559457Y-98988476D01*
X87559457Y-98988476D02*
X87654695Y-98940857D01*
X87654695Y-98940857D02*
X87797552Y-98940857D01*
X87797552Y-98940857D02*
X87892790Y-98988476D01*
X87892790Y-98988476D02*
X87940409Y-99036095D01*
X87940409Y-99036095D02*
X87988028Y-99131333D01*
X87988028Y-99131333D02*
X87988028Y-99512285D01*
X87797552Y-98083714D02*
X88464219Y-98083714D01*
X87416600Y-98321809D02*
X88130885Y-98559904D01*
X88130885Y-98559904D02*
X88130885Y-97940857D01*
X87464219Y-97083714D02*
X87464219Y-97559904D01*
X87464219Y-97559904D02*
X87940409Y-97607523D01*
X87940409Y-97607523D02*
X87892790Y-97559904D01*
X87892790Y-97559904D02*
X87845171Y-97464666D01*
X87845171Y-97464666D02*
X87845171Y-97226571D01*
X87845171Y-97226571D02*
X87892790Y-97131333D01*
X87892790Y-97131333D02*
X87940409Y-97083714D01*
X87940409Y-97083714D02*
X88035647Y-97036095D01*
X88035647Y-97036095D02*
X88273742Y-97036095D01*
X88273742Y-97036095D02*
X88368980Y-97083714D01*
X88368980Y-97083714D02*
X88416600Y-97131333D01*
X88416600Y-97131333D02*
X88464219Y-97226571D01*
X88464219Y-97226571D02*
X88464219Y-97464666D01*
X88464219Y-97464666D02*
X88416600Y-97559904D01*
X88416600Y-97559904D02*
X88368980Y-97607523D01*
%TO.C,C15*%
X82618342Y-101375380D02*
X82570723Y-101423000D01*
X82570723Y-101423000D02*
X82427866Y-101470619D01*
X82427866Y-101470619D02*
X82332628Y-101470619D01*
X82332628Y-101470619D02*
X82189771Y-101423000D01*
X82189771Y-101423000D02*
X82094533Y-101327761D01*
X82094533Y-101327761D02*
X82046914Y-101232523D01*
X82046914Y-101232523D02*
X81999295Y-101042047D01*
X81999295Y-101042047D02*
X81999295Y-100899190D01*
X81999295Y-100899190D02*
X82046914Y-100708714D01*
X82046914Y-100708714D02*
X82094533Y-100613476D01*
X82094533Y-100613476D02*
X82189771Y-100518238D01*
X82189771Y-100518238D02*
X82332628Y-100470619D01*
X82332628Y-100470619D02*
X82427866Y-100470619D01*
X82427866Y-100470619D02*
X82570723Y-100518238D01*
X82570723Y-100518238D02*
X82618342Y-100565857D01*
X83570723Y-101470619D02*
X82999295Y-101470619D01*
X83285009Y-101470619D02*
X83285009Y-100470619D01*
X83285009Y-100470619D02*
X83189771Y-100613476D01*
X83189771Y-100613476D02*
X83094533Y-100708714D01*
X83094533Y-100708714D02*
X82999295Y-100756333D01*
X84475485Y-100470619D02*
X83999295Y-100470619D01*
X83999295Y-100470619D02*
X83951676Y-100946809D01*
X83951676Y-100946809D02*
X83999295Y-100899190D01*
X83999295Y-100899190D02*
X84094533Y-100851571D01*
X84094533Y-100851571D02*
X84332628Y-100851571D01*
X84332628Y-100851571D02*
X84427866Y-100899190D01*
X84427866Y-100899190D02*
X84475485Y-100946809D01*
X84475485Y-100946809D02*
X84523104Y-101042047D01*
X84523104Y-101042047D02*
X84523104Y-101280142D01*
X84523104Y-101280142D02*
X84475485Y-101375380D01*
X84475485Y-101375380D02*
X84427866Y-101423000D01*
X84427866Y-101423000D02*
X84332628Y-101470619D01*
X84332628Y-101470619D02*
X84094533Y-101470619D01*
X84094533Y-101470619D02*
X83999295Y-101423000D01*
X83999295Y-101423000D02*
X83951676Y-101375380D01*
%TO.C,R38*%
X110024942Y-87399019D02*
X109691609Y-86922828D01*
X109453514Y-87399019D02*
X109453514Y-86399019D01*
X109453514Y-86399019D02*
X109834466Y-86399019D01*
X109834466Y-86399019D02*
X109929704Y-86446638D01*
X109929704Y-86446638D02*
X109977323Y-86494257D01*
X109977323Y-86494257D02*
X110024942Y-86589495D01*
X110024942Y-86589495D02*
X110024942Y-86732352D01*
X110024942Y-86732352D02*
X109977323Y-86827590D01*
X109977323Y-86827590D02*
X109929704Y-86875209D01*
X109929704Y-86875209D02*
X109834466Y-86922828D01*
X109834466Y-86922828D02*
X109453514Y-86922828D01*
X110358276Y-86399019D02*
X110977323Y-86399019D01*
X110977323Y-86399019D02*
X110643990Y-86779971D01*
X110643990Y-86779971D02*
X110786847Y-86779971D01*
X110786847Y-86779971D02*
X110882085Y-86827590D01*
X110882085Y-86827590D02*
X110929704Y-86875209D01*
X110929704Y-86875209D02*
X110977323Y-86970447D01*
X110977323Y-86970447D02*
X110977323Y-87208542D01*
X110977323Y-87208542D02*
X110929704Y-87303780D01*
X110929704Y-87303780D02*
X110882085Y-87351400D01*
X110882085Y-87351400D02*
X110786847Y-87399019D01*
X110786847Y-87399019D02*
X110501133Y-87399019D01*
X110501133Y-87399019D02*
X110405895Y-87351400D01*
X110405895Y-87351400D02*
X110358276Y-87303780D01*
X111548752Y-86827590D02*
X111453514Y-86779971D01*
X111453514Y-86779971D02*
X111405895Y-86732352D01*
X111405895Y-86732352D02*
X111358276Y-86637114D01*
X111358276Y-86637114D02*
X111358276Y-86589495D01*
X111358276Y-86589495D02*
X111405895Y-86494257D01*
X111405895Y-86494257D02*
X111453514Y-86446638D01*
X111453514Y-86446638D02*
X111548752Y-86399019D01*
X111548752Y-86399019D02*
X111739228Y-86399019D01*
X111739228Y-86399019D02*
X111834466Y-86446638D01*
X111834466Y-86446638D02*
X111882085Y-86494257D01*
X111882085Y-86494257D02*
X111929704Y-86589495D01*
X111929704Y-86589495D02*
X111929704Y-86637114D01*
X111929704Y-86637114D02*
X111882085Y-86732352D01*
X111882085Y-86732352D02*
X111834466Y-86779971D01*
X111834466Y-86779971D02*
X111739228Y-86827590D01*
X111739228Y-86827590D02*
X111548752Y-86827590D01*
X111548752Y-86827590D02*
X111453514Y-86875209D01*
X111453514Y-86875209D02*
X111405895Y-86922828D01*
X111405895Y-86922828D02*
X111358276Y-87018066D01*
X111358276Y-87018066D02*
X111358276Y-87208542D01*
X111358276Y-87208542D02*
X111405895Y-87303780D01*
X111405895Y-87303780D02*
X111453514Y-87351400D01*
X111453514Y-87351400D02*
X111548752Y-87399019D01*
X111548752Y-87399019D02*
X111739228Y-87399019D01*
X111739228Y-87399019D02*
X111834466Y-87351400D01*
X111834466Y-87351400D02*
X111882085Y-87303780D01*
X111882085Y-87303780D02*
X111929704Y-87208542D01*
X111929704Y-87208542D02*
X111929704Y-87018066D01*
X111929704Y-87018066D02*
X111882085Y-86922828D01*
X111882085Y-86922828D02*
X111834466Y-86875209D01*
X111834466Y-86875209D02*
X111739228Y-86827590D01*
%TO.C,R3*%
X98787333Y-91133019D02*
X98454000Y-90656828D01*
X98215905Y-91133019D02*
X98215905Y-90133019D01*
X98215905Y-90133019D02*
X98596857Y-90133019D01*
X98596857Y-90133019D02*
X98692095Y-90180638D01*
X98692095Y-90180638D02*
X98739714Y-90228257D01*
X98739714Y-90228257D02*
X98787333Y-90323495D01*
X98787333Y-90323495D02*
X98787333Y-90466352D01*
X98787333Y-90466352D02*
X98739714Y-90561590D01*
X98739714Y-90561590D02*
X98692095Y-90609209D01*
X98692095Y-90609209D02*
X98596857Y-90656828D01*
X98596857Y-90656828D02*
X98215905Y-90656828D01*
X99120667Y-90133019D02*
X99739714Y-90133019D01*
X99739714Y-90133019D02*
X99406381Y-90513971D01*
X99406381Y-90513971D02*
X99549238Y-90513971D01*
X99549238Y-90513971D02*
X99644476Y-90561590D01*
X99644476Y-90561590D02*
X99692095Y-90609209D01*
X99692095Y-90609209D02*
X99739714Y-90704447D01*
X99739714Y-90704447D02*
X99739714Y-90942542D01*
X99739714Y-90942542D02*
X99692095Y-91037780D01*
X99692095Y-91037780D02*
X99644476Y-91085400D01*
X99644476Y-91085400D02*
X99549238Y-91133019D01*
X99549238Y-91133019D02*
X99263524Y-91133019D01*
X99263524Y-91133019D02*
X99168286Y-91085400D01*
X99168286Y-91085400D02*
X99120667Y-91037780D01*
D13*
%TO.C,R42*%
X113259841Y-100481400D02*
X112952559Y-100481400D01*
X113259841Y-99721400D02*
X112952559Y-99721400D01*
D14*
%TO.C,Q6*%
X86912400Y-100343400D02*
X86112400Y-100343400D01*
X86112400Y-100343400D02*
X86112400Y-97319400D01*
X86112400Y-97319400D02*
X86912400Y-97319400D01*
X86912400Y-97319400D02*
X86912400Y-100343400D01*
X88362400Y-100406400D02*
X87262400Y-100406400D01*
D10*
%TO.C,D2*%
X83250000Y-96225000D02*
X80700000Y-96225000D01*
X82400000Y-94975000D02*
X80700000Y-94975000D01*
D13*
%TO.C,R46*%
X89686159Y-99645200D02*
X89993441Y-99645200D01*
X89686159Y-100405200D02*
X89993441Y-100405200D01*
%TO.C,R31*%
X90342500Y-92296359D02*
X90342500Y-92603641D01*
X89582500Y-92296359D02*
X89582500Y-92603641D01*
%TO.C,R21*%
X170138800Y-91991559D02*
X170138800Y-92298841D01*
X169378800Y-91991559D02*
X169378800Y-92298841D01*
D14*
%TO.C,Q5*%
X111484400Y-98086800D02*
X111484400Y-97086800D01*
X111529400Y-96736800D02*
X111529400Y-96036800D01*
X114449400Y-96736800D02*
X111529400Y-96736800D01*
X111529400Y-96036800D02*
X114449400Y-96036800D01*
X114449400Y-96036800D02*
X114449400Y-96736800D01*
D13*
%TO.C,R26*%
X178444600Y-91978259D02*
X178444600Y-92285541D01*
X177684600Y-91978259D02*
X177684600Y-92285541D01*
%TO.C,R39*%
X113691641Y-83641200D02*
X113384359Y-83641200D01*
X113691641Y-82881200D02*
X113384359Y-82881200D01*
%TO.C,U8*%
X94311300Y-99729400D02*
X94311300Y-98054400D01*
X96111300Y-98054400D02*
X96111300Y-99354400D01*
D15*
X94826439Y-99954400D02*
G75*
G03*
X94826439Y-99954400I-90139J0D01*
G01*
D13*
%TO.C,U1*%
X95728200Y-91073100D02*
X93928200Y-91073100D01*
X95728200Y-91073100D02*
X96528200Y-91073100D01*
X95728200Y-94193100D02*
X94928200Y-94193100D01*
X95728200Y-94193100D02*
X96528200Y-94193100D01*
%TO.C,C12*%
X90738748Y-76890000D02*
X92161252Y-76890000D01*
X90738748Y-78710000D02*
X92161252Y-78710000D01*
%TO.C,R2*%
X91491800Y-87326441D02*
X91491800Y-87019159D01*
X92251800Y-87326441D02*
X92251800Y-87019159D01*
%TO.C,R44*%
X106526600Y-93902559D02*
X106526600Y-94209841D01*
X105766600Y-93902559D02*
X105766600Y-94209841D01*
%TO.C,R23*%
X170316600Y-96385759D02*
X170316600Y-96693041D01*
X169556600Y-96385759D02*
X169556600Y-96693041D01*
%TO.C,J6*%
X150661000Y-77288600D02*
X148611000Y-77288600D01*
X146791000Y-77288600D02*
X146491000Y-77288600D01*
X146491000Y-77288600D02*
X146491000Y-78088600D01*
X150661000Y-78058600D02*
X150661000Y-77288600D01*
X150311000Y-78058600D02*
X150661000Y-78058600D01*
X146491000Y-78088600D02*
X145191000Y-78088600D01*
X145191000Y-78088600D02*
X145191000Y-88908600D01*
X150901000Y-80038600D02*
X150311000Y-80038600D01*
X150311000Y-80038600D02*
X150311000Y-78058600D01*
X146491000Y-88908600D02*
X146491000Y-89708600D01*
X145191000Y-88908600D02*
X146491000Y-88908600D01*
X150661000Y-88938600D02*
X150311000Y-88938600D01*
X150311000Y-88938600D02*
X150311000Y-86958600D01*
X150661000Y-89708600D02*
X150661000Y-88938600D01*
X148611000Y-89708600D02*
X150661000Y-89708600D01*
X146491000Y-89708600D02*
X146791000Y-89708600D01*
%TO.C,U6*%
X87973800Y-86230000D02*
X90848800Y-86230000D01*
X87973800Y-86230000D02*
X86473800Y-86230000D01*
X87973800Y-83010000D02*
X89473800Y-83010000D01*
X87973800Y-83010000D02*
X86473800Y-83010000D01*
D15*
X91094511Y-85620000D02*
G75*
G03*
X91094511Y-85620000I-70711J0D01*
G01*
D13*
%TO.C,U9*%
X87812500Y-96847500D02*
X89612500Y-96847500D01*
X87812500Y-96847500D02*
X87012500Y-96847500D01*
X87812500Y-93727500D02*
X88612500Y-93727500D01*
X87812500Y-93727500D02*
X87012500Y-93727500D01*
%TO.C,R41*%
X120966359Y-99120000D02*
X121273641Y-99120000D01*
X120966359Y-99880000D02*
X121273641Y-99880000D01*
%TO.C,J4*%
X117334400Y-89708600D02*
X119384400Y-89708600D01*
X121204400Y-89708600D02*
X121504400Y-89708600D01*
X121504400Y-89708600D02*
X121504400Y-88908600D01*
X117334400Y-88938600D02*
X117334400Y-89708600D01*
X117684400Y-88938600D02*
X117334400Y-88938600D01*
X121504400Y-88908600D02*
X122804400Y-88908600D01*
X122804400Y-88908600D02*
X122804400Y-78088600D01*
X117094400Y-86958600D02*
X117684400Y-86958600D01*
X117684400Y-86958600D02*
X117684400Y-88938600D01*
X121504400Y-78088600D02*
X121504400Y-77288600D01*
X122804400Y-78088600D02*
X121504400Y-78088600D01*
X117334400Y-78058600D02*
X117684400Y-78058600D01*
X117684400Y-78058600D02*
X117684400Y-80038600D01*
X117334400Y-77288600D02*
X117334400Y-78058600D01*
X119384400Y-77288600D02*
X117334400Y-77288600D01*
X121504400Y-77288600D02*
X121204400Y-77288600D01*
%TO.C,J13*%
X178294400Y-89734000D02*
X180344400Y-89734000D01*
X182164400Y-89734000D02*
X182464400Y-89734000D01*
X182464400Y-89734000D02*
X182464400Y-88934000D01*
X178294400Y-88964000D02*
X178294400Y-89734000D01*
X178644400Y-88964000D02*
X178294400Y-88964000D01*
X182464400Y-88934000D02*
X183764400Y-88934000D01*
X183764400Y-88934000D02*
X183764400Y-78114000D01*
X178054400Y-86984000D02*
X178644400Y-86984000D01*
X178644400Y-86984000D02*
X178644400Y-88964000D01*
X182464400Y-78114000D02*
X182464400Y-77314000D01*
X183764400Y-78114000D02*
X182464400Y-78114000D01*
X178294400Y-78084000D02*
X178644400Y-78084000D01*
X178644400Y-78084000D02*
X178644400Y-80064000D01*
X178294400Y-77314000D02*
X178294400Y-78084000D01*
X180344400Y-77314000D02*
X178294400Y-77314000D01*
X182464400Y-77314000D02*
X182164400Y-77314000D01*
%TO.C,C4*%
X83148752Y-91560000D02*
X81726248Y-91560000D01*
X83148752Y-89740000D02*
X81726248Y-89740000D01*
%TO.C,R29*%
X86037559Y-92501800D02*
X86344841Y-92501800D01*
X86037559Y-93261800D02*
X86344841Y-93261800D01*
%TO.C,R28*%
X92367741Y-84073000D02*
X92060459Y-84073000D01*
X92367741Y-83313000D02*
X92060459Y-83313000D01*
%TO.C,R17*%
X158175400Y-96360359D02*
X158175400Y-96667641D01*
X157415400Y-96360359D02*
X157415400Y-96667641D01*
%TO.C,J10*%
X169358000Y-101177400D02*
X169358000Y-99847400D01*
X170688000Y-101177400D02*
X169358000Y-101177400D01*
X171958000Y-101177400D02*
X179638000Y-101177400D01*
X171958000Y-101177400D02*
X171958000Y-98517400D01*
X179638000Y-101177400D02*
X179638000Y-98517400D01*
X171958000Y-98517400D02*
X179638000Y-98517400D01*
%TO.C,R33*%
X85733658Y-81573900D02*
X85259142Y-81573900D01*
X85733658Y-80528900D02*
X85259142Y-80528900D01*
D14*
%TO.C,T1*%
X80096600Y-76824000D02*
X80096600Y-76824000D01*
X79996600Y-76824000D02*
X79996600Y-76824000D01*
X81396600Y-77624000D02*
X80596600Y-77624000D01*
X82246600Y-78624000D02*
X82246600Y-79824000D01*
X79746600Y-78624000D02*
X79746600Y-79824000D01*
X81396600Y-80824000D02*
X80596600Y-80824000D01*
X79996600Y-76824000D02*
G75*
G03*
X80096600Y-76824000I50000J0D01*
G01*
X80096600Y-76824000D02*
G75*
G03*
X79996600Y-76824000I-50000J0D01*
G01*
D13*
%TO.C,R24*%
X179841600Y-96385759D02*
X179841600Y-96693041D01*
X179081600Y-96385759D02*
X179081600Y-96693041D01*
%TO.C,R7*%
X129666000Y-96366359D02*
X129666000Y-96673641D01*
X128906000Y-96366359D02*
X128906000Y-96673641D01*
%TO.C,R13*%
X149844200Y-91966159D02*
X149844200Y-92273441D01*
X149084200Y-91966159D02*
X149084200Y-92273441D01*
D10*
%TO.C,D1*%
X87000000Y-77200000D02*
X85400000Y-77200000D01*
D15*
X88600000Y-77900000D02*
X88600000Y-77900000D01*
X88600000Y-78000000D02*
X88600000Y-78000000D01*
D10*
X87000000Y-78800000D02*
X85400000Y-78800000D01*
D15*
X88600000Y-78000000D02*
G75*
G03*
X88600000Y-77900000I0J50000D01*
G01*
X88600000Y-77900000D02*
G75*
G03*
X88600000Y-78000000I0J-50000D01*
G01*
D13*
%TO.C,C18*%
X91469800Y-94818252D02*
X91469800Y-93395748D01*
X93289800Y-94818252D02*
X93289800Y-93395748D01*
%TO.C,J11*%
X137654400Y-89708600D02*
X139704400Y-89708600D01*
X141524400Y-89708600D02*
X141824400Y-89708600D01*
X141824400Y-89708600D02*
X141824400Y-88908600D01*
X137654400Y-88938600D02*
X137654400Y-89708600D01*
X138004400Y-88938600D02*
X137654400Y-88938600D01*
X141824400Y-88908600D02*
X143124400Y-88908600D01*
X143124400Y-88908600D02*
X143124400Y-78088600D01*
X137414400Y-86958600D02*
X138004400Y-86958600D01*
X138004400Y-86958600D02*
X138004400Y-88938600D01*
X141824400Y-78088600D02*
X141824400Y-77288600D01*
X143124400Y-78088600D02*
X141824400Y-78088600D01*
X137654400Y-78058600D02*
X138004400Y-78058600D01*
X138004400Y-78058600D02*
X138004400Y-80038600D01*
X137654400Y-77288600D02*
X137654400Y-78058600D01*
X139704400Y-77288600D02*
X137654400Y-77288600D01*
X141824400Y-77288600D02*
X141524400Y-77288600D01*
%TO.C,R40*%
X113818641Y-99236800D02*
X113511359Y-99236800D01*
X113818641Y-98476800D02*
X113511359Y-98476800D01*
%TO.C,R51*%
X94196300Y-96318041D02*
X94196300Y-96010759D01*
X94956300Y-96318041D02*
X94956300Y-96010759D01*
%TO.C,R50*%
X96099059Y-96419400D02*
X96406341Y-96419400D01*
X96099059Y-97179400D02*
X96406341Y-97179400D01*
%TO.C,C3*%
X86832748Y-89056800D02*
X88255252Y-89056800D01*
X86832748Y-90876800D02*
X88255252Y-90876800D01*
%TO.C,C2*%
X83161252Y-89222500D02*
X81738748Y-89222500D01*
X83161252Y-87402500D02*
X81738748Y-87402500D01*
%TO.C,R20*%
X171612000Y-91978259D02*
X171612000Y-92285541D01*
X170852000Y-91978259D02*
X170852000Y-92285541D01*
D14*
%TO.C,IC25*%
X121275000Y-91727000D02*
X121275000Y-93252000D01*
X121146000Y-93602000D02*
X121146000Y-96802000D01*
X116244000Y-93602000D02*
X121146000Y-93602000D01*
X121146000Y-96802000D02*
X116244000Y-96802000D01*
X116244000Y-96802000D02*
X116244000Y-93602000D01*
D15*
X120840416Y-94327000D02*
G75*
G03*
X120840416Y-94327000I-270416J0D01*
G01*
D13*
%TO.C,C10*%
X83099364Y-82780000D02*
X83315036Y-82780000D01*
X83099364Y-83500000D02*
X83315036Y-83500000D01*
%TO.C,C13*%
X111730200Y-83826236D02*
X111730200Y-83610564D01*
X112450200Y-83826236D02*
X112450200Y-83610564D01*
D14*
%TO.C,U5*%
X171797300Y-97445800D02*
X171797300Y-95970800D01*
X172147300Y-95620800D02*
X172147300Y-91920800D01*
X177147300Y-95620800D02*
X172147300Y-95620800D01*
X172147300Y-91920800D02*
X177147300Y-91920800D01*
X177147300Y-91920800D02*
X177147300Y-95620800D01*
D15*
X173267456Y-94745800D02*
G75*
G03*
X173267456Y-94745800I-320156J0D01*
G01*
D13*
%TO.C,R4*%
X130961400Y-91958859D02*
X130961400Y-92266141D01*
X130201400Y-91958859D02*
X130201400Y-92266141D01*
%TO.C,J3*%
X107420000Y-77290000D02*
X105370000Y-77290000D01*
X103550000Y-77290000D02*
X103250000Y-77290000D01*
X103250000Y-77290000D02*
X103250000Y-78090000D01*
X107420000Y-78060000D02*
X107420000Y-77290000D01*
X107070000Y-78060000D02*
X107420000Y-78060000D01*
X103250000Y-78090000D02*
X101950000Y-78090000D01*
X101950000Y-78090000D02*
X101950000Y-88910000D01*
X107660000Y-80040000D02*
X107070000Y-80040000D01*
X107070000Y-80040000D02*
X107070000Y-78060000D01*
X103250000Y-88910000D02*
X103250000Y-89710000D01*
X101950000Y-88910000D02*
X103250000Y-88910000D01*
X107420000Y-88940000D02*
X107070000Y-88940000D01*
X107070000Y-88940000D02*
X107070000Y-86960000D01*
X107420000Y-89710000D02*
X107420000Y-88940000D01*
X105370000Y-89710000D02*
X107420000Y-89710000D01*
X103250000Y-89710000D02*
X103550000Y-89710000D01*
D14*
%TO.C,Q4*%
X110902800Y-97106000D02*
X110902800Y-98106000D01*
X110857800Y-98456000D02*
X110857800Y-99156000D01*
X107937800Y-98456000D02*
X110857800Y-98456000D01*
X110857800Y-99156000D02*
X107937800Y-99156000D01*
X107937800Y-99156000D02*
X107937800Y-98456000D01*
D13*
%TO.C,R8*%
X139191000Y-96366359D02*
X139191000Y-96673641D01*
X138431000Y-96366359D02*
X138431000Y-96673641D01*
%TO.C,J8*%
X128845000Y-101152000D02*
X128845000Y-99822000D01*
X130175000Y-101152000D02*
X128845000Y-101152000D01*
X131445000Y-101152000D02*
X139125000Y-101152000D01*
X131445000Y-101152000D02*
X131445000Y-98492000D01*
X139125000Y-101152000D02*
X139125000Y-98492000D01*
X131445000Y-98492000D02*
X139125000Y-98492000D01*
D14*
%TO.C,U4*%
X151502700Y-97420400D02*
X151502700Y-95945400D01*
X151852700Y-95595400D02*
X151852700Y-91895400D01*
X156852700Y-95595400D02*
X151852700Y-95595400D01*
X151852700Y-91895400D02*
X156852700Y-91895400D01*
X156852700Y-91895400D02*
X156852700Y-95595400D01*
D15*
X152972856Y-94720400D02*
G75*
G03*
X152972856Y-94720400I-320156J0D01*
G01*
D13*
%TO.C,R30*%
X86344841Y-92296600D02*
X86037559Y-92296600D01*
X86344841Y-91536600D02*
X86037559Y-91536600D01*
%TO.C,R27*%
X179816200Y-91966159D02*
X179816200Y-92273441D01*
X179056200Y-91966159D02*
X179056200Y-92273441D01*
%TO.C,C6*%
X88495536Y-93241800D02*
X88279864Y-93241800D01*
X88495536Y-92521800D02*
X88279864Y-92521800D01*
%TO.C,R14*%
X151317400Y-96360359D02*
X151317400Y-96667641D01*
X150557400Y-96360359D02*
X150557400Y-96667641D01*
%TO.C,R32*%
X85876159Y-81916000D02*
X86183441Y-81916000D01*
X85876159Y-82676000D02*
X86183441Y-82676000D01*
%TO.C,R43*%
X106731800Y-94184441D02*
X106731800Y-93877159D01*
X107491800Y-94184441D02*
X107491800Y-93877159D01*
%TO.C,C14*%
X96657100Y-98997380D02*
X96657100Y-98716220D01*
X97677100Y-98997380D02*
X97677100Y-98716220D01*
%TO.C,L1*%
X79839800Y-98961252D02*
X79839800Y-98438748D01*
X82059800Y-98961252D02*
X82059800Y-98438748D01*
%TO.C,J7*%
X170955600Y-77282600D02*
X168905600Y-77282600D01*
X167085600Y-77282600D02*
X166785600Y-77282600D01*
X166785600Y-77282600D02*
X166785600Y-78082600D01*
X170955600Y-78052600D02*
X170955600Y-77282600D01*
X170605600Y-78052600D02*
X170955600Y-78052600D01*
X166785600Y-78082600D02*
X165485600Y-78082600D01*
X165485600Y-78082600D02*
X165485600Y-88902600D01*
X171195600Y-80032600D02*
X170605600Y-80032600D01*
X170605600Y-80032600D02*
X170605600Y-78052600D01*
X166785600Y-88902600D02*
X166785600Y-89702600D01*
X165485600Y-88902600D02*
X166785600Y-88902600D01*
X170955600Y-88932600D02*
X170605600Y-88932600D01*
X170605600Y-88932600D02*
X170605600Y-86952600D01*
X170955600Y-89702600D02*
X170955600Y-88932600D01*
X168905600Y-89702600D02*
X170955600Y-89702600D01*
X166785600Y-89702600D02*
X167085600Y-89702600D01*
%TO.C,R25*%
X178470000Y-96385759D02*
X178470000Y-96693041D01*
X177710000Y-96385759D02*
X177710000Y-96693041D01*
%TO.C,R12*%
X151317400Y-91952859D02*
X151317400Y-92260141D01*
X150557400Y-91952859D02*
X150557400Y-92260141D01*
%TO.C,R35*%
X92060459Y-81382600D02*
X92367741Y-81382600D01*
X92060459Y-82142600D02*
X92367741Y-82142600D01*
%TO.C,R34*%
X80869159Y-82760000D02*
X81176441Y-82760000D01*
X80869159Y-83520000D02*
X81176441Y-83520000D01*
%TO.C,J2*%
X94490000Y-89710000D02*
X96540000Y-89710000D01*
X98360000Y-89710000D02*
X98660000Y-89710000D01*
X98660000Y-89710000D02*
X98660000Y-88910000D01*
X94490000Y-88940000D02*
X94490000Y-89710000D01*
X94840000Y-88940000D02*
X94490000Y-88940000D01*
X98660000Y-88910000D02*
X99960000Y-88910000D01*
X99960000Y-88910000D02*
X99960000Y-78090000D01*
X94250000Y-86960000D02*
X94840000Y-86960000D01*
X94840000Y-86960000D02*
X94840000Y-88940000D01*
X98660000Y-78090000D02*
X98660000Y-77290000D01*
X99960000Y-78090000D02*
X98660000Y-78090000D01*
X94490000Y-78060000D02*
X94840000Y-78060000D01*
X94840000Y-78060000D02*
X94840000Y-80040000D01*
X94490000Y-77290000D02*
X94490000Y-78060000D01*
X96540000Y-77290000D02*
X94490000Y-77290000D01*
X98660000Y-77290000D02*
X98360000Y-77290000D01*
%TO.C,Q3*%
X113131600Y-94270000D02*
X114806600Y-94270000D01*
X113131600Y-94270000D02*
X112481600Y-94270000D01*
X113131600Y-91150000D02*
X113781600Y-91150000D01*
X113131600Y-91150000D02*
X112481600Y-91150000D01*
%TO.C,C1*%
X99040836Y-93984400D02*
X98825164Y-93984400D01*
X99040836Y-93264400D02*
X98825164Y-93264400D01*
D14*
%TO.C,Q2*%
X107867400Y-96569000D02*
X107867400Y-95569000D01*
X107912400Y-95219000D02*
X107912400Y-94519000D01*
X110832400Y-95219000D02*
X107912400Y-95219000D01*
X107912400Y-94519000D02*
X110832400Y-94519000D01*
X110832400Y-94519000D02*
X110832400Y-95219000D01*
D13*
%TO.C,R37*%
X113391141Y-87342500D02*
X113083859Y-87342500D01*
X113391141Y-86582500D02*
X113083859Y-86582500D01*
%TO.C,R36*%
X92367741Y-83107800D02*
X92060459Y-83107800D01*
X92367741Y-82347800D02*
X92060459Y-82347800D01*
%TO.C,C17*%
X83148752Y-93900000D02*
X81726248Y-93900000D01*
X83148752Y-92080000D02*
X81726248Y-92080000D01*
%TO.C,J12*%
X157999800Y-89708600D02*
X160049800Y-89708600D01*
X161869800Y-89708600D02*
X162169800Y-89708600D01*
X162169800Y-89708600D02*
X162169800Y-88908600D01*
X157999800Y-88938600D02*
X157999800Y-89708600D01*
X158349800Y-88938600D02*
X157999800Y-88938600D01*
X162169800Y-88908600D02*
X163469800Y-88908600D01*
X163469800Y-88908600D02*
X163469800Y-78088600D01*
X157759800Y-86958600D02*
X158349800Y-86958600D01*
X158349800Y-86958600D02*
X158349800Y-88938600D01*
X162169800Y-78088600D02*
X162169800Y-77288600D01*
X163469800Y-78088600D02*
X162169800Y-78088600D01*
X157999800Y-78058600D02*
X158349800Y-78058600D01*
X158349800Y-78058600D02*
X158349800Y-80038600D01*
X157999800Y-77288600D02*
X157999800Y-78058600D01*
X160049800Y-77288600D02*
X157999800Y-77288600D01*
X162169800Y-77288600D02*
X161869800Y-77288600D01*
%TO.C,R9*%
X137819400Y-96366359D02*
X137819400Y-96673641D01*
X137059400Y-96366359D02*
X137059400Y-96673641D01*
%TO.C,R16*%
X159547000Y-96360359D02*
X159547000Y-96667641D01*
X158787000Y-96360359D02*
X158787000Y-96667641D01*
%TO.C,R11*%
X139165600Y-91946759D02*
X139165600Y-92254041D01*
X138405600Y-91946759D02*
X138405600Y-92254041D01*
%TO.C,J5*%
X130303600Y-77290000D02*
X128253600Y-77290000D01*
X126433600Y-77290000D02*
X126133600Y-77290000D01*
X126133600Y-77290000D02*
X126133600Y-78090000D01*
X130303600Y-78060000D02*
X130303600Y-77290000D01*
X129953600Y-78060000D02*
X130303600Y-78060000D01*
X126133600Y-78090000D02*
X124833600Y-78090000D01*
X124833600Y-78090000D02*
X124833600Y-88910000D01*
X130543600Y-80040000D02*
X129953600Y-80040000D01*
X129953600Y-80040000D02*
X129953600Y-78060000D01*
X126133600Y-88910000D02*
X126133600Y-89710000D01*
X124833600Y-88910000D02*
X126133600Y-88910000D01*
X130303600Y-88940000D02*
X129953600Y-88940000D01*
X129953600Y-88940000D02*
X129953600Y-86960000D01*
X130303600Y-89710000D02*
X130303600Y-88940000D01*
X128253600Y-89710000D02*
X130303600Y-89710000D01*
X126133600Y-89710000D02*
X126433600Y-89710000D01*
%TO.C,R48*%
X84730000Y-95748859D02*
X84730000Y-96056141D01*
X83970000Y-95748859D02*
X83970000Y-96056141D01*
%TO.C,C8*%
X86842548Y-86745400D02*
X88265052Y-86745400D01*
X86842548Y-88565400D02*
X88265052Y-88565400D01*
%TO.C,C9*%
X87295400Y-81845036D02*
X87295400Y-81629364D01*
X88015400Y-81845036D02*
X88015400Y-81629364D01*
%TO.C,R6*%
X130961400Y-96366359D02*
X130961400Y-96673641D01*
X130201400Y-96366359D02*
X130201400Y-96673641D01*
%TO.C,R1*%
X92482400Y-87326441D02*
X92482400Y-87019159D01*
X93242400Y-87326441D02*
X93242400Y-87019159D01*
%TO.C,R18*%
X158150000Y-91952859D02*
X158150000Y-92260141D01*
X157390000Y-91952859D02*
X157390000Y-92260141D01*
%TO.C,C5*%
X92119564Y-84272800D02*
X92335236Y-84272800D01*
X92119564Y-84992800D02*
X92335236Y-84992800D01*
%TO.C,R19*%
X159521600Y-91940759D02*
X159521600Y-92248041D01*
X158761600Y-91940759D02*
X158761600Y-92248041D01*
%TO.C,L2*%
X91473000Y-98813252D02*
X91473000Y-98290748D01*
X93693000Y-98813252D02*
X93693000Y-98290748D01*
%TO.C,J9*%
X149063400Y-101152000D02*
X149063400Y-99822000D01*
X150393400Y-101152000D02*
X149063400Y-101152000D01*
X151663400Y-101152000D02*
X159343400Y-101152000D01*
X151663400Y-101152000D02*
X151663400Y-98492000D01*
X159343400Y-101152000D02*
X159343400Y-98492000D01*
X151663400Y-98492000D02*
X159343400Y-98492000D01*
%TO.C,R49*%
X96099059Y-95403400D02*
X96406341Y-95403400D01*
X96099059Y-96163400D02*
X96406341Y-96163400D01*
%TO.C,R10*%
X137794000Y-91958859D02*
X137794000Y-92266141D01*
X137034000Y-91958859D02*
X137034000Y-92266141D01*
%TO.C,R15*%
X150022000Y-96360359D02*
X150022000Y-96667641D01*
X149262000Y-96360359D02*
X149262000Y-96667641D01*
%TO.C,R5*%
X129488200Y-91972159D02*
X129488200Y-92279441D01*
X128728200Y-91972159D02*
X128728200Y-92279441D01*
%TO.C,U7*%
X114350800Y-90714000D02*
X116150800Y-90714000D01*
X114350800Y-90714000D02*
X113550800Y-90714000D01*
X114350800Y-87594000D02*
X115150800Y-87594000D01*
X114350800Y-87594000D02*
X113550800Y-87594000D01*
D15*
X116535878Y-90079000D02*
G75*
G03*
X116535878Y-90079000I-160078J0D01*
G01*
D13*
%TO.C,C11*%
X90738748Y-79202500D02*
X92161252Y-79202500D01*
X90738748Y-81022500D02*
X92161252Y-81022500D01*
%TO.C,C7*%
X88495536Y-92276600D02*
X88279864Y-92276600D01*
X88495536Y-91556600D02*
X88279864Y-91556600D01*
%TO.C,R22*%
X171612000Y-96385759D02*
X171612000Y-96693041D01*
X170852000Y-96385759D02*
X170852000Y-96693041D01*
D14*
%TO.C,U3*%
X131146700Y-97426400D02*
X131146700Y-95951400D01*
X131496700Y-95601400D02*
X131496700Y-91901400D01*
X136496700Y-95601400D02*
X131496700Y-95601400D01*
X131496700Y-91901400D02*
X136496700Y-91901400D01*
X136496700Y-91901400D02*
X136496700Y-95601400D01*
D15*
X132616856Y-94726400D02*
G75*
G03*
X132616856Y-94726400I-320156J0D01*
G01*
D13*
%TO.C,C16*%
X84930000Y-95120336D02*
X84930000Y-94904664D01*
X85650000Y-95120336D02*
X85650000Y-94904664D01*
D14*
%TO.C,Q1*%
X83330000Y-86860000D02*
X82030000Y-86860000D01*
X81680000Y-86810000D02*
X81280000Y-86810000D01*
X81680000Y-83910000D02*
X81680000Y-86810000D01*
X81280000Y-86810000D02*
X81280000Y-83910000D01*
X81280000Y-83910000D02*
X81680000Y-83910000D01*
D13*
%TO.C,R45*%
X88799400Y-98451641D02*
X88799400Y-98144359D01*
X89559400Y-98451641D02*
X89559400Y-98144359D01*
%TO.C,C15*%
X84101400Y-99021020D02*
X84101400Y-99302180D01*
X83081400Y-99021020D02*
X83081400Y-99302180D01*
%TO.C,R38*%
X111407500Y-88553641D02*
X111407500Y-88246359D01*
X112167500Y-88553641D02*
X112167500Y-88246359D01*
%TO.C,R3*%
X98800359Y-91263200D02*
X99107641Y-91263200D01*
X98800359Y-92023200D02*
X99107641Y-92023200D01*
%TD*%
%LPC*%
D16*
%TO.C,R42*%
X113616200Y-100101400D03*
X112596200Y-100101400D03*
%TD*%
D17*
%TO.C,Q6*%
X87812400Y-99781400D03*
X87812400Y-98831400D03*
X87812400Y-97881400D03*
X85212400Y-97881400D03*
X85212400Y-98831400D03*
X85212400Y-99781400D03*
%TD*%
D18*
%TO.C,D2*%
X82750000Y-95600000D03*
X80350000Y-95600000D03*
%TD*%
D19*
%TO.C,R46*%
X89329800Y-100025200D03*
X90349800Y-100025200D03*
%TD*%
D20*
%TO.C,R31*%
X89962500Y-91940000D03*
X89962500Y-92960000D03*
%TD*%
%TO.C,R21*%
X169758800Y-91635200D03*
X169758800Y-92655200D03*
%TD*%
D21*
%TO.C,Q5*%
X112034400Y-97586800D03*
X113944400Y-97586800D03*
X112989400Y-95186800D03*
%TD*%
D20*
%TO.C,R26*%
X178064600Y-91621900D03*
X178064600Y-92641900D03*
%TD*%
D16*
%TO.C,R39*%
X114048000Y-83261200D03*
X113028000Y-83261200D03*
%TD*%
D22*
%TO.C,U8*%
X94711300Y-99454400D03*
X95211300Y-99454400D03*
X95711300Y-99454400D03*
X95711300Y-97954400D03*
X95211300Y-97954400D03*
X94711300Y-97954400D03*
%TD*%
D23*
%TO.C,U1*%
X94590700Y-91683100D03*
X94590700Y-92633100D03*
X94590700Y-93583100D03*
X96865700Y-93583100D03*
X96865700Y-91683100D03*
%TD*%
D24*
%TO.C,C12*%
X89975000Y-77800000D03*
X92925000Y-77800000D03*
%TD*%
D25*
%TO.C,R2*%
X91871800Y-87682800D03*
X91871800Y-86662800D03*
%TD*%
D20*
%TO.C,R44*%
X106146600Y-93546200D03*
X106146600Y-94566200D03*
%TD*%
%TO.C,R23*%
X169936600Y-96029400D03*
X169936600Y-97049400D03*
%TD*%
D26*
%TO.C,J6*%
X150401000Y-80498600D03*
X150401000Y-81498600D03*
X150401000Y-82498600D03*
X150401000Y-83498600D03*
X150401000Y-84498600D03*
X150401000Y-85498600D03*
X150401000Y-86498600D03*
D27*
X147701000Y-77698600D03*
X147701000Y-89298600D03*
%TD*%
D28*
%TO.C,U6*%
X90123800Y-85620000D03*
X90123800Y-85120000D03*
X90123800Y-84620000D03*
X90123800Y-84120000D03*
X90123800Y-83620000D03*
X85823800Y-83620000D03*
X85823800Y-84120000D03*
X85823800Y-84620000D03*
X85823800Y-85120000D03*
X85823800Y-85620000D03*
D29*
X87973800Y-84620000D03*
%TD*%
D30*
%TO.C,U9*%
X88950000Y-96237500D03*
X88950000Y-95287500D03*
X88950000Y-94337500D03*
X86675000Y-94337500D03*
X86675000Y-96237500D03*
%TD*%
D19*
%TO.C,R41*%
X120610000Y-99500000D03*
X121630000Y-99500000D03*
%TD*%
D26*
%TO.C,J4*%
X117594400Y-86498600D03*
X117594400Y-85498600D03*
X117594400Y-84498600D03*
X117594400Y-83498600D03*
X117594400Y-82498600D03*
X117594400Y-81498600D03*
X117594400Y-80498600D03*
D27*
X120294400Y-89298600D03*
X120294400Y-77698600D03*
%TD*%
D26*
%TO.C,J13*%
X178554400Y-86524000D03*
X178554400Y-85524000D03*
X178554400Y-84524000D03*
X178554400Y-83524000D03*
X178554400Y-82524000D03*
X178554400Y-81524000D03*
X178554400Y-80524000D03*
D27*
X181254400Y-89324000D03*
X181254400Y-77724000D03*
%TD*%
D31*
%TO.C,C4*%
X83912500Y-90650000D03*
X80962500Y-90650000D03*
%TD*%
D19*
%TO.C,R29*%
X85681200Y-92881800D03*
X86701200Y-92881800D03*
%TD*%
D16*
%TO.C,R28*%
X92724100Y-83693000D03*
X91704100Y-83693000D03*
%TD*%
D20*
%TO.C,R17*%
X157795400Y-96004000D03*
X157795400Y-97024000D03*
%TD*%
D32*
%TO.C,J10*%
X170688000Y-99847400D03*
D33*
X173228000Y-99847400D03*
X175768000Y-99847400D03*
X178308000Y-99847400D03*
%TD*%
D34*
%TO.C,R33*%
X86321400Y-81051400D03*
X84671400Y-81051400D03*
%TD*%
D35*
%TO.C,T1*%
X80111600Y-77724000D03*
X81881600Y-77724000D03*
X81881600Y-80724000D03*
X80111600Y-80724000D03*
%TD*%
D20*
%TO.C,R24*%
X179461600Y-96029400D03*
X179461600Y-97049400D03*
%TD*%
%TO.C,R7*%
X129286000Y-96010000D03*
X129286000Y-97030000D03*
%TD*%
%TO.C,R13*%
X149464200Y-91609800D03*
X149464200Y-92629800D03*
%TD*%
D36*
%TO.C,D1*%
X87725000Y-78000000D03*
X84675000Y-78000000D03*
%TD*%
D37*
%TO.C,C18*%
X92379800Y-95582000D03*
X92379800Y-92632000D03*
%TD*%
D26*
%TO.C,J11*%
X137914400Y-86498600D03*
X137914400Y-85498600D03*
X137914400Y-84498600D03*
X137914400Y-83498600D03*
X137914400Y-82498600D03*
X137914400Y-81498600D03*
X137914400Y-80498600D03*
D27*
X140614400Y-89298600D03*
X140614400Y-77698600D03*
%TD*%
D16*
%TO.C,R40*%
X114175000Y-98856800D03*
X113155000Y-98856800D03*
%TD*%
D25*
%TO.C,R51*%
X94576300Y-96674400D03*
X94576300Y-95654400D03*
%TD*%
D19*
%TO.C,R50*%
X95742700Y-96799400D03*
X96762700Y-96799400D03*
%TD*%
D24*
%TO.C,C3*%
X86069000Y-89966800D03*
X89019000Y-89966800D03*
%TD*%
D31*
%TO.C,C2*%
X83925000Y-88312500D03*
X80975000Y-88312500D03*
%TD*%
D20*
%TO.C,R20*%
X171232000Y-91621900D03*
X171232000Y-92641900D03*
%TD*%
D38*
%TO.C,IC25*%
X120600000Y-92490000D03*
X119330000Y-92490000D03*
X118060000Y-92490000D03*
X116790000Y-92490000D03*
X116790000Y-97914000D03*
X118060000Y-97914000D03*
X119330000Y-97914000D03*
X120600000Y-97914000D03*
%TD*%
D39*
%TO.C,C10*%
X82727200Y-83140000D03*
X83687200Y-83140000D03*
%TD*%
D40*
%TO.C,C13*%
X112090200Y-84198400D03*
X112090200Y-83238400D03*
%TD*%
D41*
%TO.C,U5*%
X172372300Y-96708800D03*
X173022300Y-96708800D03*
X173672300Y-96708800D03*
X174322300Y-96708800D03*
X174972300Y-96708800D03*
X175622300Y-96708800D03*
X176272300Y-96708800D03*
X176922300Y-96708800D03*
X176922300Y-90832800D03*
X176272300Y-90832800D03*
X175622300Y-90832800D03*
X174972300Y-90832800D03*
X174322300Y-90832800D03*
X173672300Y-90832800D03*
X173022300Y-90832800D03*
X172372300Y-90832800D03*
%TD*%
D20*
%TO.C,R4*%
X130581400Y-91602500D03*
X130581400Y-92622500D03*
%TD*%
D26*
%TO.C,J3*%
X107160000Y-80500000D03*
X107160000Y-81500000D03*
X107160000Y-82500000D03*
X107160000Y-83500000D03*
X107160000Y-84500000D03*
X107160000Y-85500000D03*
X107160000Y-86500000D03*
D27*
X104460000Y-77700000D03*
X104460000Y-89300000D03*
%TD*%
D21*
%TO.C,Q4*%
X110352800Y-97606000D03*
X108442800Y-97606000D03*
X109397800Y-100006000D03*
%TD*%
D20*
%TO.C,R8*%
X138811000Y-96010000D03*
X138811000Y-97030000D03*
%TD*%
D32*
%TO.C,J8*%
X130175000Y-99822000D03*
D33*
X132715000Y-99822000D03*
X135255000Y-99822000D03*
X137795000Y-99822000D03*
%TD*%
D41*
%TO.C,U4*%
X152077700Y-96683400D03*
X152727700Y-96683400D03*
X153377700Y-96683400D03*
X154027700Y-96683400D03*
X154677700Y-96683400D03*
X155327700Y-96683400D03*
X155977700Y-96683400D03*
X156627700Y-96683400D03*
X156627700Y-90807400D03*
X155977700Y-90807400D03*
X155327700Y-90807400D03*
X154677700Y-90807400D03*
X154027700Y-90807400D03*
X153377700Y-90807400D03*
X152727700Y-90807400D03*
X152077700Y-90807400D03*
%TD*%
D16*
%TO.C,R30*%
X86701200Y-91916600D03*
X85681200Y-91916600D03*
%TD*%
D20*
%TO.C,R27*%
X179436200Y-91609800D03*
X179436200Y-92629800D03*
%TD*%
D42*
%TO.C,C6*%
X88867700Y-92881800D03*
X87907700Y-92881800D03*
%TD*%
D20*
%TO.C,R14*%
X150937400Y-96004000D03*
X150937400Y-97024000D03*
%TD*%
D19*
%TO.C,R32*%
X85519800Y-82296000D03*
X86539800Y-82296000D03*
%TD*%
D25*
%TO.C,R43*%
X107111800Y-94540800D03*
X107111800Y-93520800D03*
%TD*%
D43*
%TO.C,C14*%
X97167100Y-99631800D03*
X97167100Y-98081800D03*
%TD*%
D44*
%TO.C,L1*%
X80949800Y-99775000D03*
X80949800Y-97625000D03*
%TD*%
D26*
%TO.C,J7*%
X170695600Y-80492600D03*
X170695600Y-81492600D03*
X170695600Y-82492600D03*
X170695600Y-83492600D03*
X170695600Y-84492600D03*
X170695600Y-85492600D03*
X170695600Y-86492600D03*
D27*
X167995600Y-77692600D03*
X167995600Y-89292600D03*
%TD*%
D20*
%TO.C,R25*%
X178090000Y-96029400D03*
X178090000Y-97049400D03*
%TD*%
%TO.C,R12*%
X150937400Y-91596500D03*
X150937400Y-92616500D03*
%TD*%
D19*
%TO.C,R35*%
X91704100Y-81762600D03*
X92724100Y-81762600D03*
%TD*%
%TO.C,R34*%
X80512800Y-83140000D03*
X81532800Y-83140000D03*
%TD*%
D26*
%TO.C,J2*%
X94750000Y-86500000D03*
X94750000Y-85500000D03*
X94750000Y-84500000D03*
X94750000Y-83500000D03*
X94750000Y-82500000D03*
X94750000Y-81500000D03*
X94750000Y-80500000D03*
D27*
X97450000Y-89300000D03*
X97450000Y-77700000D03*
%TD*%
D45*
%TO.C,Q3*%
X114069100Y-93660000D03*
X114069100Y-91760000D03*
X112194100Y-92710000D03*
%TD*%
D42*
%TO.C,C1*%
X99413000Y-93624400D03*
X98453000Y-93624400D03*
%TD*%
D21*
%TO.C,Q2*%
X108417400Y-96069000D03*
X110327400Y-96069000D03*
X109372400Y-93669000D03*
%TD*%
D16*
%TO.C,R37*%
X113747500Y-86962500D03*
X112727500Y-86962500D03*
%TD*%
%TO.C,R36*%
X92724100Y-82727800D03*
X91704100Y-82727800D03*
%TD*%
D31*
%TO.C,C17*%
X83912500Y-92990000D03*
X80962500Y-92990000D03*
%TD*%
D26*
%TO.C,J12*%
X158259800Y-86498600D03*
X158259800Y-85498600D03*
X158259800Y-84498600D03*
X158259800Y-83498600D03*
X158259800Y-82498600D03*
X158259800Y-81498600D03*
X158259800Y-80498600D03*
D27*
X160959800Y-89298600D03*
X160959800Y-77698600D03*
%TD*%
D20*
%TO.C,R9*%
X137439400Y-96010000D03*
X137439400Y-97030000D03*
%TD*%
%TO.C,R16*%
X159167000Y-96004000D03*
X159167000Y-97024000D03*
%TD*%
%TO.C,R11*%
X138785600Y-91590400D03*
X138785600Y-92610400D03*
%TD*%
D26*
%TO.C,J5*%
X130043600Y-80500000D03*
X130043600Y-81500000D03*
X130043600Y-82500000D03*
X130043600Y-83500000D03*
X130043600Y-84500000D03*
X130043600Y-85500000D03*
X130043600Y-86500000D03*
D27*
X127343600Y-77700000D03*
X127343600Y-89300000D03*
%TD*%
D20*
%TO.C,R48*%
X84350000Y-95392500D03*
X84350000Y-96412500D03*
%TD*%
D24*
%TO.C,C8*%
X86078800Y-87655400D03*
X89028800Y-87655400D03*
%TD*%
D40*
%TO.C,C9*%
X87655400Y-82217200D03*
X87655400Y-81257200D03*
%TD*%
D20*
%TO.C,R6*%
X130581400Y-96010000D03*
X130581400Y-97030000D03*
%TD*%
D25*
%TO.C,R1*%
X92862400Y-87682800D03*
X92862400Y-86662800D03*
%TD*%
D20*
%TO.C,R18*%
X157770000Y-91596500D03*
X157770000Y-92616500D03*
%TD*%
D39*
%TO.C,C5*%
X91747400Y-84632800D03*
X92707400Y-84632800D03*
%TD*%
D20*
%TO.C,R19*%
X159141600Y-91584400D03*
X159141600Y-92604400D03*
%TD*%
D44*
%TO.C,L2*%
X92583000Y-99627000D03*
X92583000Y-97477000D03*
%TD*%
D32*
%TO.C,J9*%
X150393400Y-99822000D03*
D33*
X152933400Y-99822000D03*
X155473400Y-99822000D03*
X158013400Y-99822000D03*
%TD*%
D19*
%TO.C,R49*%
X95742700Y-95783400D03*
X96762700Y-95783400D03*
%TD*%
D20*
%TO.C,R10*%
X137414000Y-91602500D03*
X137414000Y-92622500D03*
%TD*%
%TO.C,R15*%
X149642000Y-96004000D03*
X149642000Y-97024000D03*
%TD*%
%TO.C,R5*%
X129108200Y-91615800D03*
X129108200Y-92635800D03*
%TD*%
D30*
%TO.C,U7*%
X115488300Y-90104000D03*
X115488300Y-89154000D03*
X115488300Y-88204000D03*
X113213300Y-88204000D03*
X113213300Y-89154000D03*
X113213300Y-90104000D03*
%TD*%
D24*
%TO.C,C11*%
X89975000Y-80112500D03*
X92925000Y-80112500D03*
%TD*%
D42*
%TO.C,C7*%
X88867700Y-91916600D03*
X87907700Y-91916600D03*
%TD*%
D20*
%TO.C,R22*%
X171232000Y-96029400D03*
X171232000Y-97049400D03*
%TD*%
D41*
%TO.C,U3*%
X131721700Y-96689400D03*
X132371700Y-96689400D03*
X133021700Y-96689400D03*
X133671700Y-96689400D03*
X134321700Y-96689400D03*
X134971700Y-96689400D03*
X135621700Y-96689400D03*
X136271700Y-96689400D03*
X136271700Y-90813400D03*
X135621700Y-90813400D03*
X134971700Y-90813400D03*
X134321700Y-90813400D03*
X133671700Y-90813400D03*
X133021700Y-90813400D03*
X132371700Y-90813400D03*
X131721700Y-90813400D03*
%TD*%
D40*
%TO.C,C16*%
X85290000Y-95492500D03*
X85290000Y-94532500D03*
%TD*%
D46*
%TO.C,Q1*%
X82680000Y-86310000D03*
X82680000Y-84410000D03*
X80280000Y-85360000D03*
%TD*%
D25*
%TO.C,R45*%
X89179400Y-98808000D03*
X89179400Y-97788000D03*
%TD*%
D47*
%TO.C,C15*%
X83591400Y-98386600D03*
X83591400Y-99936600D03*
%TD*%
D25*
%TO.C,R38*%
X111787500Y-88910000D03*
X111787500Y-87890000D03*
%TD*%
D19*
%TO.C,R3*%
X98444000Y-91643200D03*
X99464000Y-91643200D03*
%TD*%
%LPD*%
M02*
