%TF.GenerationSoftware,KiCad,Pcbnew,7.0.5*%
%TF.CreationDate,2024-05-30T09:30:07-05:00*%
%TF.ProjectId,wrist_ems_12_electrodes,77726973-745f-4656-9d73-5f31325f656c,rev?*%
%TF.SameCoordinates,Original*%
%TF.FileFunction,Paste,Bot*%
%TF.FilePolarity,Positive*%
%FSLAX46Y46*%
G04 Gerber Fmt 4.6, Leading zero omitted, Abs format (unit mm)*
G04 Created by KiCad (PCBNEW 7.0.5) date 2024-05-30 09:30:07*
%MOMM*%
%LPD*%
G01*
G04 APERTURE LIST*
G04 Aperture macros list*
%AMRoundRect*
0 Rectangle with rounded corners*
0 $1 Rounding radius*
0 $2 $3 $4 $5 $6 $7 $8 $9 X,Y pos of 4 corners*
0 Add a 4 corners polygon primitive as box body*
4,1,4,$2,$3,$4,$5,$6,$7,$8,$9,$2,$3,0*
0 Add four circle primitives for the rounded corners*
1,1,$1+$1,$2,$3*
1,1,$1+$1,$4,$5*
1,1,$1+$1,$6,$7*
1,1,$1+$1,$8,$9*
0 Add four rect primitives between the rounded corners*
20,1,$1+$1,$2,$3,$4,$5,0*
20,1,$1+$1,$4,$5,$6,$7,0*
20,1,$1+$1,$6,$7,$8,$9,0*
20,1,$1+$1,$8,$9,$2,$3,0*%
G04 Aperture macros list end*
%ADD10R,1.650000X0.700000*%
%ADD11RoundRect,0.150000X-0.150000X-0.700000X0.150000X-0.700000X0.150000X0.700000X-0.150000X0.700000X0*%
%ADD12RoundRect,0.250000X-0.250000X-1.100000X0.250000X-1.100000X0.250000X1.100000X-0.250000X1.100000X0*%
%ADD13R,3.000000X2.000000*%
G04 APERTURE END LIST*
D10*
%TO.C,IC13*%
X162306000Y-88724000D03*
X162306000Y-91264000D03*
X155806000Y-91264000D03*
X155806000Y-88724000D03*
%TD*%
%TO.C,IC16*%
X162306000Y-82724000D03*
X162306000Y-85264000D03*
X155806000Y-85264000D03*
X155806000Y-82724000D03*
%TD*%
%TO.C,IC6*%
X141950000Y-93730000D03*
X141950000Y-96270000D03*
X135450000Y-96270000D03*
X135450000Y-93730000D03*
%TD*%
%TO.C,IC9*%
X146306000Y-85264000D03*
X146306000Y-82724000D03*
X152806000Y-82724000D03*
X152806000Y-85264000D03*
%TD*%
%TO.C,IC18*%
X166600600Y-80289400D03*
X166600600Y-77749400D03*
X173100600Y-77749400D03*
X173100600Y-80289400D03*
%TD*%
%TO.C,IC15*%
X162306000Y-77724000D03*
X162306000Y-80264000D03*
X155806000Y-80264000D03*
X155806000Y-77724000D03*
%TD*%
%TO.C,IC5*%
X141950000Y-88730000D03*
X141950000Y-91270000D03*
X135450000Y-91270000D03*
X135450000Y-88730000D03*
%TD*%
%TO.C,IC14*%
X162306000Y-93724000D03*
X162306000Y-96264000D03*
X155806000Y-96264000D03*
X155806000Y-93724000D03*
%TD*%
%TO.C,IC8*%
X141950000Y-82730000D03*
X141950000Y-85270000D03*
X135450000Y-85270000D03*
X135450000Y-82730000D03*
%TD*%
%TO.C,IC11*%
X146306000Y-96264000D03*
X146306000Y-93724000D03*
X152806000Y-93724000D03*
X152806000Y-96264000D03*
%TD*%
%TO.C,IC1*%
X125950000Y-85270000D03*
X125950000Y-82730000D03*
X132450000Y-82730000D03*
X132450000Y-85270000D03*
%TD*%
D11*
%TO.C,J1*%
X95615600Y-99843200D03*
X96865600Y-99843200D03*
D12*
X93765600Y-96643200D03*
X98715600Y-96643200D03*
%TD*%
D10*
%TO.C,IC4*%
X125950000Y-91270000D03*
X125950000Y-88730000D03*
X132450000Y-88730000D03*
X132450000Y-91270000D03*
%TD*%
%TO.C,IC2*%
X125950000Y-80270000D03*
X125950000Y-77730000D03*
X132450000Y-77730000D03*
X132450000Y-80270000D03*
%TD*%
%TO.C,IC23*%
X182600600Y-77749400D03*
X182600600Y-80289400D03*
X176100600Y-80289400D03*
X176100600Y-77749400D03*
%TD*%
%TO.C,IC10*%
X146306000Y-80264000D03*
X146306000Y-77724000D03*
X152806000Y-77724000D03*
X152806000Y-80264000D03*
%TD*%
%TO.C,IC21*%
X182600600Y-88749400D03*
X182600600Y-91289400D03*
X176100600Y-91289400D03*
X176100600Y-88749400D03*
%TD*%
%TO.C,IC20*%
X166600600Y-91289400D03*
X166600600Y-88749400D03*
X173100600Y-88749400D03*
X173100600Y-91289400D03*
%TD*%
%TO.C,IC24*%
X182600600Y-82749400D03*
X182600600Y-85289400D03*
X176100600Y-85289400D03*
X176100600Y-82749400D03*
%TD*%
D13*
%TO.C,U2*%
X120877000Y-80592015D03*
X120877000Y-83132015D03*
X120877000Y-85672015D03*
X120877000Y-88212015D03*
X120877000Y-90752015D03*
X120877000Y-93292015D03*
X120877000Y-95832015D03*
X103877000Y-95832015D03*
X103877000Y-93292015D03*
X103877000Y-90752015D03*
X103877000Y-88212015D03*
X103877000Y-85672015D03*
X103877000Y-83132015D03*
X103877000Y-80592015D03*
%TD*%
D10*
%TO.C,IC17*%
X166600600Y-85289400D03*
X166600600Y-82749400D03*
X173100600Y-82749400D03*
X173100600Y-85289400D03*
%TD*%
%TO.C,IC3*%
X125950000Y-96270000D03*
X125950000Y-93730000D03*
X132450000Y-93730000D03*
X132450000Y-96270000D03*
%TD*%
%TO.C,IC12*%
X146306000Y-91264000D03*
X146306000Y-88724000D03*
X152806000Y-88724000D03*
X152806000Y-91264000D03*
%TD*%
%TO.C,IC19*%
X166600600Y-96289400D03*
X166600600Y-93749400D03*
X173100600Y-93749400D03*
X173100600Y-96289400D03*
%TD*%
%TO.C,IC7*%
X141950000Y-77730000D03*
X141950000Y-80270000D03*
X135450000Y-80270000D03*
X135450000Y-77730000D03*
%TD*%
%TO.C,IC22*%
X182600600Y-93749400D03*
X182600600Y-96289400D03*
X176100600Y-96289400D03*
X176100600Y-93749400D03*
%TD*%
M02*
